/* XPM */
static char *_fabd571d263418cff018f8cfc119f6cQrkLSs6ekMd70zkV[] = {
/* columns rows colors chars-per-pixel */
"64 48 234 2 ",
"   c None",
".  c #3A332E",
"X  c #353232",
"o  c #3C3633",
"O  c #3B3738",
"+  c #352F31",
"@  c #423932",
"#  c #493B33",
"$  c #47383A",
"%  c #553739",
"&  c #4C433A",
"*  c #53433B",
"=  c #443D46",
"-  c #443E4B",
";  c #4A3C4A",
":  c #573B45",
">  c #45404D",
",  c #48424D",
"<  c #4A4140",
"1  c #5C4A44",
"2  c #574849",
"3  c #58514A",
"4  c #494452",
"5  c #4D4955",
"6  c #4D4B5B",
"7  c #484556",
"8  c #554B56",
"9  c #59545B",
"0  c #4F515F",
"q  c #67544A",
"w  c #745F4D",
"e  c #634C56",
"r  c #79495C",
"t  c #675D55",
"y  c #63545B",
"u  c #6B5751",
"i  c #755B57",
"p  c #7B635A",
"a  c #7A6A5B",
"s  c #535362",
"d  c #53596B",
"f  c #5B5D6C",
"g  c #595867",
"h  c #535266",
"j  c #6D5964",
"k  c #675666",
"l  c #785A68",
"z  c #625F74",
"x  c #744D64",
"c  c #5B606E",
"v  c #5D6275",
"b  c #4A7F7D",
"n  c #656C7C",
"m  c #666775",
"M  c #796374",
"N  c #766776",
"B  c #667678",
"V  c #79767A",
"C  c #6D6666",
"Z  c #865849",
"A  c #824D5E",
"S  c #8B6455",
"D  c #856A5A",
"F  c #876A57",
"G  c #926E59",
"H  c #94745C",
"J  c #98755B",
"K  c #86725D",
"L  c #8D5369",
"P  c #876966",
"I  c #837569",
"U  c #8C7D6C",
"Y  c #8A7267",
"T  c #917164",
"R  c #9B7D64",
"E  c #957767",
"W  c #8D6877",
"Q  c #877974",
"!  c #957D75",
"~  c #9E6B60",
"^  c #A5786A",
"/  c #9C826C",
"(  c #9D8468",
")  c #988577",
"_  c #9E907F",
"`  c #A28265",
"'  c #A6886E",
"]  c #A58C73",
"[  c #AC8F73",
"{  c #AB8C7B",
"}  c #A78878",
"|  c #AA9275",
" . c #AC937C",
".. c #A99578",
"X. c #B39D7B",
"o. c #B19779",
"O. c #AF8D76",
"+. c #B4A07D",
"@. c #5F7086",
"#. c #626D83",
"$. c #646D88",
"%. c #7B6C84",
"&. c #637185",
"*. c #6B7486",
"=. c #6D7A8D",
"-. c #6B768A",
";. c #737484",
":. c #737B8D",
">. c #7D7D8D",
",. c #797787",
"<. c #697995",
"1. c #747D94",
"2. c #7B7C92",
"3. c #737692",
"4. c #9C6B82",
"5. c #8A7C83",
"6. c #837D87",
"7. c #977784",
"8. c #8E7D91",
"9. c #A46D83",
"0. c #A06480",
"q. c #A17385",
"w. c #A6788A",
"e. c #5E8C85",
"r. c #688499",
"t. c #738397",
"y. c #74849D",
"u. c #7A859A",
"i. c #7B8899",
"p. c #79898F",
"a. c #7B8CA3",
"s. c #7784A2",
"d. c #7997A9",
"f. c #77A4A1",
"g. c #8A848F",
"h. c #978688",
"j. c #838393",
"k. c #858A9C",
"l. c #8B8897",
"z. c #938995",
"x. c #938D9C",
"c. c #978698",
"v. c #87919C",
"b. c #93949D",
"n. c #9F939D",
"m. c #AB828A",
"M. c #AA9989",
"N. c #B59E84",
"B. c #B49D8A",
"V. c #B79689",
"C. c #A8999A",
"Z. c #B39A98",
"A. c #B18D93",
"S. c #B4A28C",
"D. c #BAA48C",
"F. c #BBA587",
"G. c #ACA296",
"H. c #B5A294",
"J. c #BAA593",
"K. c #BDA992",
"L. c #B2A39A",
"P. c #B9A59C",
"I. c #BCAA9B",
"U. c #B6A998",
"Y. c #BBB09F",
"T. c #838DA2",
"R. c #8A8EA3",
"E. c #8787A2",
"W. c #938DA2",
"Q. c #988EA5",
"!. c #8392A5",
"~. c #8C93A4",
"^. c #8A94AB",
"/. c #8797A9",
"(. c #9494A4",
"). c #9C95AA",
"_. c #959BAC",
"`. c #9D9AAD",
"'. c #9898A2",
"]. c #9E9DB2",
"[. c #849FB2",
"{. c #AC8DA0",
"}. c #A594A5",
"|. c #AA9AA9",
" X c #B495A5",
".X c #B499A7",
"XX c #A49AB1",
"oX c #95A2AA",
"OX c #94A3B4",
"+X c #9EA3B4",
"@X c #9AAAB7",
"#X c #92ABB9",
"$X c #A2A1AF",
"%X c #ABA1A9",
"&X c #B7A9A5",
"*X c #BEB0A3",
"=X c #BEB4A8",
"-X c #A3A4B4",
";X c #A9A3B4",
":X c #A6ACBC",
">X c #AAABB8",
",X c #B9A9B6",
"<X c #ABB1B9",
"1X c #BDB2BC",
"2X c #C2AD95",
"3X c #C2A499",
"4X c #C1AC9C",
"5X c #C5AB9A",
"6X c #C4B19D",
"7X c #C8B29E",
"8X c #C1ADA2",
"9X c #CCACA8",
"0X c #C5B3A3",
"qX c #C9B6A4",
"wX c #C4B4A9",
"eX c #C9B5AA",
"rX c #C5BAAD",
"tX c #CCBAAC",
"yX c #CAB8A4",
"uX c #C5BBB1",
"iX c #CBBDB3",
"pX c #C1A7B0",
"aX c #CEC0B4",
"sX c #CEC2BB",
"dX c #D1C1B5",
"fX c #D3C4BB",
"gX c #CFC2AF",
"hX c #98B5C4",
"jX c #9EACC1",
"kX c #A8B7C5",
"lX c #B7BAC5",
"zX c #C5BCC4",
"xX c #C2BBC7",
"cX c #CEC8C9",
/* pixels */
"                                                                                                                                ",
"                                                                                                                                ",
"                                                                                                                                ",
"                                                                                                                                ",
"                                                                                                                                ",
"                                                                                                                                ",
"                                                                  X O o X +                                                     ",
"                                                              X . O 3 t 3 < o                                                   ",
"                                                            . @ 3 a / _ ) I t & .                                               ",
"                                                            * K | X.U.Y.4X0XG.V *                                               ",
"                                                          q F | X.+.K.6XqXaXiX&Xa o                                             ",
"                                                          w H [ X.+.K.6XiXdXfXwXI @ .                                           ",
"                                                          w F / +.K.I.8XwXiXaX0Xa & .                                           ",
"                                                          1 # # a _ / u e Q &X0Xa & o                                           ",
"                                                          1 i P F / / T Y U ) I._ 3 &                                           ",
"                                                          P } E F ] N.'  .4XP.H.U.a O                                           ",
"                                                          p q 1 q J.8XS G ! Z.&X8XU &                                           ",
"                                                          p w u S eXiXR T i ) wXeXI <                                           ",
"                                                        U ] ] H R tXfXyXH.8XiXsXiXa e                                           ",
"                                                        U  .[ J ' gXcXdXiXiXsXsXuX) M.&X                                        ",
"                                                        E  .| ^ | qXtXqXiXdXdXaX=X} J.I.V.                                      ",
"                                                        E { o.J J  .B.5XyXiXiXiX*XS.X.7XJ.                                      ",
"                                                          } R Z ^ J.qXeX7XtXaXrXY.4X9XeX                                        ",
"                                                          / G S ^ V.3X4XI.0XrX=XU.U.                                            ",
"                                                          E H Z ^ { ^ V.B.8X8X&XL.                                              ",
"                                                            G ~ V.3X9X9XeX8XI.U.G.                                              ",
"                                                            T ~ ^ V.3X0XqXY.I.G.                                                ",
"                                                            T J ^ o.3X7X7XY.J.L.                                                ",
"                                                            u H ` S.I.7X2XS.F.S.t                                               ",
"                                                          - $ w R | X.+...| K.S.3 9                                             ",
"                                                        , = X & F J ` ' | +.I.S.3 m ~.                                          ",
"                                                      , , = O # F ( | +.K.Y.0XS.9 ;.^./.t.                                      ",
"                                                  - - > 4 ; o # G [ F.2X6XrXgXM.t -.a.^.a.t.t.i.a.                              ",
"                                              , 4 - = > 4 , = * G X.2X6X7XyXuX) g *.u.d.a.y.s.y.a.!.i.                          ",
"                                            , 4 7 > - 7 6 6 m t H +.7X7XrXrX=Xp.B *.1.!.a.s.s.s.s.a.a.k.                        ",
"                                          = 6 g 6 4 7 s d m v.Q ` +.7XgXyXuX&X'.l.>.3.d d <.u.s.y.a.a.~.>X                      ",
"                                        - > 6 h d 6 5 c n 8.;X%X| K.qXeXtXZ.! m..X8.5 O z 1.y.1.y.a.T.>.).+X                    ",
"                                        0 7 f v d 6 5 C Q.8.q.A.B.K.0X0XU.) h. X9.W e f >X<X!.T.a.a.T.;.%.l.                    ",
"                                        s h $.&.#.m k j C.4.9. XP.J.K.F./ h.pXpX9.A k d.kXlX).XX+XT.^.x.Q.6.                    ",
"                                      6 7 m u.k.XX6.6.j C .X,X}.C.F.X.( V !.hXxXC.l b.hXhX:XQ.XX1X/.y._.cX(.                    ",
"                                      9 g k.).XX<Xp.p.y 8 '.<X$XC.N.| F z.@X#XlX5.l ,XlXlXxX.X,X,Xu.=.!.:X~.                    ",
"                                      4 *.`.l.v.d.b B p W p.b.1Xw.V./ i )._.-XxX7.L pXXX].,Xq.w.}.m >.:Xx.x.                    ",
"                                    e 9 ].pX}.oXf.e.V A P j k |.m.m.Y 6.(.).XX.XW 9.{.).W. X9.W 4.l L {.z.z.%X                  ",
"                                    i N c.9.W v.p.B y % i M N 7..XZ.5.2.XXjX;X|..X8.8.3.3.3.6.%.x A L 9.W W }.                  ",
"                                  8 : k M x x %.d 6 ; 9 z.i.b.V z.lXR.s.:XkXhXjXXX,.v -.$.@.@.-.M 7.w.w.r 4.,X                  ",
"                                  e ; y z z n $.v 0 0 j.OXr.oXV 9 oX_.a.].[.d.lX>XT.-.#.-.u.u.-.%.Q.|.h.l {.lX<X                ",
"                                1 : : k @.&.-.&.d 7 c =.d.r.@Xp.0 ;.<XT.@XjXkXcXzX(.a.t.=.(.kXu.:.1._.z.M 8.+X-X                ",
"                                % % 8 v <.<.^.u.6 0 c p.OX#XxXl.c c ~.R.+X-X].zX,XE.s.^.u.k.-XE.:.k.OXp.V x.`.kX                "
};
