/* XPM */
static char *_4a582831b0d4871b1165aaabcd9a939pSnoQzd3Y2qi0YHT[] = {
/* columns rows colors chars-per-pixel */
"64 90 185 2 ",
"   c None",
".  c #000001",
"X  c #0C0B0C",
"o  c #070608",
"O  c #110D0B",
"+  c #18090A",
"@  c #1C150F",
"#  c #171616",
"$  c #1C1610",
"%  c #121618",
"&  c #1D1D1E",
"*  c #181A1A",
"=  c #2A0E0E",
"-  c #3F130F",
";  c #231D16",
":  c #221A1C",
">  c #321211",
",  c #26211B",
"<  c #2C261F",
"1  c #1C2529",
"2  c #142B3C",
"3  c #232323",
"4  c #2B2929",
"5  c #3F3626",
"6  c #302F32",
"7  c #2A393E",
"8  c #3E3E3D",
"9  c #323232",
"0  c #3C2626",
"q  c #491812",
"w  c #631E1A",
"e  c #75221D",
"r  c #423D3D",
"t  c #51343E",
"y  c #71322A",
"u  c #5B4A37",
"i  c #534737",
"p  c #69573C",
"a  c #284458",
"s  c #444648",
"d  c #584F43",
"f  c #564E42",
"g  c #5C5244",
"h  c #565856",
"j  c #604D4D",
"k  c #695E4F",
"l  c #645A4B",
"z  c #625D57",
"x  c #6A6051",
"c  c #756A59",
"v  c #776348",
"b  c #565D66",
"n  c #4D6370",
"m  c #696A6A",
"M  c #656565",
"N  c #766C6E",
"B  c #797268",
"V  c #737374",
"C  c #7A7B7C",
"Z  c #777778",
"A  c #83241F",
"S  c #8B302E",
"D  c #AD312B",
"F  c #B9342D",
"G  c #BF3733",
"H  c #A53631",
"J  c #C5392E",
"K  c #C63D38",
"L  c #E23C32",
"P  c #F33F35",
"I  c #995C16",
"U  c #8B650F",
"Y  c #B87416",
"T  c #AB443A",
"R  c #DA7E1C",
"E  c #C3413E",
"W  c #D24F2A",
"Q  c #EB4037",
"!  c #E2443B",
"~  c #EB4538",
"^  c #F44235",
"/  c #F94135",
"(  c #F24A32",
")  c #F1473B",
"_  c #E4513F",
"`  c #F0503F",
"'  c #E8482E",
"]  c #9D535D",
"[  c #8A7759",
"{  c #947951",
"}  c #9A7E55",
"|  c #886A50",
" . c #AD6247",
".. c #BB5B64",
"X. c #887A65",
"o. c #887270",
"O. c #A7696E",
"+. c #DB5645",
"@. c #D16548",
"#. c #EF644F",
"$. c #EF6F58",
"%. c #F57859",
"&. c #F96C4C",
"*. c #D96D66",
"=. c #F8831E",
"-. c #F7831E",
";. c #ED9019",
":. c #F9A613",
">. c #FAA912",
",. c #9D835B",
"<. c #A88E5F",
"1. c #8E826D",
"2. c #978366",
"3. c #8A867F",
"4. c #988972",
"5. c #B79869",
"6. c #A18F78",
"7. c #AE9C7F",
"8. c #B58B6D",
"9. c #A7A17F",
"0. c #F08D5D",
"q. c #FE9A64",
"w. c #C4A573",
"e. c #D1AC71",
"r. c #D8B174",
"t. c #FDCB7F",
"y. c #0A6D9D",
"u. c #19729F",
"i. c #2976A5",
"p. c #627C9D",
"a. c #6D7BA0",
"s. c #8E6D88",
"d. c #8F6E84",
"f. c #7F8080",
"g. c #5A83AD",
"h. c #4F89BC",
"j. c #5686B3",
"k. c #1993CE",
"l. c #169CD7",
"z. c #0584C1",
"x. c #299ADB",
"c. c #22A1D8",
"v. c #069DE1",
"b. c #00AEFF",
"n. c #22A5E0",
"m. c #888686",
"M. c #958A8A",
"N. c #AE9D80",
"B. c #B09E82",
"V. c #B79E9B",
"C. c #9EB29C",
"Z. c #B4A183",
"A. c #BEAC8D",
"S. c #C3AD8A",
"D. c #C4B090",
"F. c #D6BF9B",
"G. c #C6B98E",
"H. c #F5B08C",
"J. c #F7B692",
"K. c #DCC59E",
"L. c #F6CA85",
"P. c #FFD185",
"I. c #E4C99E",
"U. c #F0CE97",
"Y. c #FED699",
"T. c #FDD99F",
"R. c #FAD394",
"E. c #DEC7A1",
"W. c #C7C4BB",
"Q. c #FEDBA2",
"!. c #F3D8AA",
"~. c #FCDDAC",
"^. c #FEDFB3",
"/. c #E8CFA7",
"(. c #FDE1B4",
"). c #9BCAC4",
"_. c #D3CEC3",
"`. c #E0DAD0",
"'. c #FBE7C7",
"]. c #FAEFDA",
"[. c #FCF1DB",
"{. c #FCF6E9",
"}. c #FCF7EA",
"|. c #FDFFFF",
" X c #FDFCF6",
/* pixels */
"                                                                                                                                ",
"                                                                                                                                ",
"                                                                                                                                ",
"                                                                                                                                ",
"                                                                                                                                ",
"                                                                                                                                ",
"                                                                                                                                ",
"                                                                                                                                ",
"                                                                                                                                ",
"                                                                                                                                ",
"                                                                                                                                ",
"                                                                                                                                ",
"                                                                                                                                ",
"                                                                                                                                ",
"                                                                                                                                ",
"                                                                                                                                ",
"                                                                                                                                ",
"                                                                                                                                ",
"                                                            & & 3                                                               ",
"                                                            . . o                                                               ",
"                                                          s % % *                                                               ",
"                                                    . . . % 1 1 1 X . . #                                                       ",
"                                              4 o o . . . . . . . . . . . o o                                                   ",
"                                          9 9 o . . . . . . . . . . . . . . . *                                                 ",
"                                          m . . . . . . . . . . . . . . . . . . O                                               ",
"                                            . . . . . . . . . . . . . . . . . . o                                               ",
"                                        m . . . . . . . ; O . . . . . . . . . . &                                               ",
"                                      s o . . . . . . X 5.u . . . . . . . . . . . 3                                             ",
"                                        h . . . . . . X S.l . . . . . . . . . . . o 8                                           ",
"                                        s . . . . . ; c I.7.f . . u r . . . . . . o M                                           ",
"                                      4 . . . . . . 5 L.Q.(.Z.o o 5.,., . . . . . X                                             ",
"                                    i & X . . . . o i !.^.(.Z.# o 7.T.5.; . . . . X                                             ",
"                                        m . . . . f E.^.(.(.!.Z.# 7.(.!.S.; . . . . 3                                           ",
"                                        C . O v ; k K.c x D.(./.4.c k X.E., i u . o V                                           ",
"                                          s $ r.[ 6.F.l g D.(.^.(.1.f X./.c w.} # M                                             ",
"                                            $ r.Q.(.^.^.(.^.^.^.^.^.^.^.^.^.Y.{ 3                                               ",
"                                            , e.Q.(.(.(.(.(.(.(.(.(.(.(.^.^.R.{ 9                                               ",
"                                              g w.Q.(.{.{.{.{.{.{.{.{.{.^.Y.[ B                                                 ",
"                                                B 5.~.[. X|.|.|.|.|.}.'.U.,.B                                                   ",
"                                                f.1.(.'.W.`.].].]._._.'.I.z                                                     ",
"                                                        s 4.P.P.L.u m.                                                          ",
"                                                      s u.C.t.t.t.@.y m                                                         ",
"                                                    n y.v.).Q.Q.!.$.J S V                                                       ",
"                                                  o.t p.h.V.J.^.H.#.P +.a                                                       ",
"                                                z y L K ! ^ $.H.) ^ L ] k.7                                                     ",
"                                              8 <.0.J = G ^ ( ) ^ ^ A 2 c.G.p Z                                                 ",
"                                              4 5.q.F + F ^ ^ P ^ ^ e : O.L.p m                                                 ",
"                                              4  .&.W U R =.-.-.=.=.Y I ) %.y M                                                 ",
"                                              4 D L W :.:.:.>.:.>.>.>.;.J P w m                                                 ",
"                                              r H S q ' ( ( ( ( ' _ _ T > F y C                                                 ",
"                                                d + - P ^ / ^ ^ ~ g.x.i.X = M.                                                  ",
"                                                  h - ! d...^ ^ ( j.b.z.# a.                                                    ",
"                                                    N s.x.j...( ^ s.g.p.C                                                       ",
"                                                      l.n.l.g.    _ ! *.                                                        ",
"                                                      7 N.h b   0 8.{ j                                                         ",
"                                                        h @ h   & < m.                                                          ",
"                                                          V     m.V                                                             ",
"                                                                                                                                ",
"                                                                                                                                ",
"                                                                                                                                ",
"                                                                                                                                ",
"                                                                                                                                ",
"                                                                                                                                ",
"                                                                                                                                ",
"                                                                                                                                ",
"                                                                                                                                ",
"                                                                                                                                ",
"                                                                                                                                ",
"                                                                                                                                ",
"                                                                                                                                ",
"                                                                                                                                ",
"                                                                                                                                ",
"                                                                                                                                ",
"                                                                                                                                ",
"                                                                                                                                ",
"                                                                                                                                ",
"                                                                                                                                ",
"                                                                                                                                ",
"                                                                                                                                ",
"                                                                                                                                ",
"                                                                                                                                ",
"                                                                                                                                ",
"                                                                                                                                ",
"                                                                                                                                ",
"                                                                                                                                ",
"                                                                                                                                ",
"                                                                                                                                ",
"                                                                                                                                ",
"                                                                                                                                ",
"                                                                                                                                "
};