/* XPM */
static char *_08a3d32afc84d6d8602a3ccf7ae32e37CEzkTFKALT45I1m[] = {
/* columns rows colors chars-per-pixel */
"64 64 238 2 ",
"   c #020300",
".  c #0F0001",
"X  c #0A020B",
"o  c #020709",
"O  c #120200",
"+  c #1C0200",
"@  c #120901",
"#  c #190C00",
"$  c #06130C",
"%  c #17150B",
"&  c #050718",
"*  c #16081A",
"=  c #16121B",
"-  c #00121A",
";  c #220802",
":  c #221101",
">  c #291907",
",  c #28141A",
"<  c #1A211A",
"1  c #29271D",
"2  c #3C3012",
"3  c #011C27",
"4  c #140B34",
"5  c #150D32",
"6  c #0C2C2E",
"7  c #30302B",
"8  c #741B02",
"9  c #761818",
"0  c #462C0C",
"q  c #4F3000",
"w  c #473717",
"e  c #4D2E0B",
"r  c #7A2906",
"t  c #702E11",
"y  c #4E3A22",
"u  c #38453B",
"i  c #5B451A",
"p  c #4E4019",
"a  c #6C5218",
"s  c #444329",
"d  c #574523",
"f  c #565726",
"g  c #5A4A37",
"h  c #52513A",
"j  c #674729",
"k  c #6B5428",
"l  c #665439",
"z  c #764831",
"x  c #746231",
"c  c #171C45",
"v  c #31364D",
"b  c #193972",
"n  c #353E79",
"m  c #413654",
"M  c #384959",
"N  c #3C5A55",
"B  c #2F4B4E",
"V  c #17496F",
"C  c #284D67",
"Z  c #2A5467",
"A  c #385668",
"S  c #235576",
"D  c #2E4E6F",
"F  c #39666C",
"G  c #37657E",
"H  c #5B5543",
"J  c #464554",
"K  c #474A54",
"L  c #534C55",
"P  c #575656",
"I  c #48514E",
"U  c #7F4E40",
"Y  c #695743",
"T  c #665557",
"R  c #6D544F",
"E  c #596953",
"W  c #7C6B4B",
"Q  c #686457",
"!  c #7C735D",
"~  c #736D4E",
"^  c #475570",
"/  c #645E60",
"(  c #5D6873",
")  c #446878",
"_  c #697678",
"`  c #787C74",
"'  c #6A696F",
"]  c #97561C",
"[  c #8B5B28",
"{  c #856839",
"}  c #977D35",
"|  c #96723C",
" . c #A5743A",
".. c #967C4A",
"X. c #846C56",
"o. c #867858",
"O. c #9C7F55",
"+. c #94704C",
"@. c #A57F58",
"#. c #857966",
"$. c #837D76",
"%. c #C27D5E",
"&. c #78887A",
"*. c #7D8C6B",
"=. c #BC8B2B",
"-. c #B4853B",
";. c #CF9C31",
":. c #DBAA3C",
">. c #C3A83F",
",. c #E8B43E",
"<. c #9C8856",
"1. c #98904F",
"2. c #A38746",
"3. c #AB9347",
"4. c #B39949",
"5. c #A88758",
"6. c #B39759",
"7. c #AE9C50",
"8. c #BAA24A",
"9. c #BDA858",
"0. c #988773",
"q. c #98947A",
"w. c #948F69",
"e. c #AC956E",
"r. c #AAA373",
"t. c #B1A469",
"y. c #C39D4E",
"u. c #C39E50",
"i. c #E59E50",
"p. c #CDA74C",
"a. c #D5AA4A",
"s. c #DBB44B",
"d. c #C4A652",
"f. c #CAA758",
"g. c #D3AB51",
"h. c #DCBB59",
"j. c #D8B758",
"k. c #E8B748",
"l. c #F5BF47",
"z. c #E7AC58",
"x. c #EABD54",
"c. c #E6B958",
"v. c #F2BB56",
"b. c #E0A944",
"n. c #C1A265",
"m. c #C7AC67",
"M. c #D8B865",
"N. c #D3A775",
"B. c #CBB477",
"V. c #D7BB7C",
"C. c #E2BA64",
"Z. c #E5BC7A",
"A. c #DCC55D",
"S. c #ECC35C",
"D. c #E7C65A",
"F. c #F3C351",
"G. c #D6C06D",
"H. c #E9C267",
"J. c #F6C566",
"K. c #E7C271",
"L. c #1A5482",
"P. c #2D4D83",
"I. c #2E5585",
"U. c #395A83",
"Y. c #38518A",
"T. c #356A87",
"R. c #376D95",
"E. c #2B608F",
"W. c #485A89",
"Q. c #465A97",
"!. c #52678F",
"~. c #707F92",
"^. c #9A9689",
"/. c #8E919A",
"(. c #9B9D94",
"). c #9B9998",
"_. c #8E868D",
"`. c #A69D86",
"'. c #A39D96",
"]. c #B9A697",
"[. c #AEA487",
"{. c #9699A7",
"}. c #B29CA9",
"|. c #9CA1A5",
" X c #AAB7AA",
".X c #BBBBA7",
"XX c #A9AAB3",
"oX c #B1ACAD",
"OX c #8AA68D",
"+X c #CCAD86",
"@X c #C4AD99",
"#X c #CBB58F",
"$X c #C4BAA8",
"%X c #C7BEB9",
"&X c #DACC9B",
"*X c #C8C4B6",
"=X c #D4CDBE",
"-X c #D1CAB2",
";X c #91ABC2",
":X c #B6BACA",
">X c #C2BDC1",
",X c #BACED9",
"<X c #CBC9CA",
"1X c #D1CFC8",
"2X c #CCDDCB",
"3X c #DAD6C6",
"4X c #D7D8D5",
"5X c #CECED9",
"6X c #E7D4D2",
"7X c #D9E5DB",
"8X c #E6E2D7",
"9X c #F5EAD7",
"0X c #FBF6DC",
"qX c #F5EDD5",
"wX c #DDD9E7",
"eX c #E7DBE9",
"rX c #DCF0EE",
"tX c #EAE8E7",
"yX c #FBEBE8",
"uX c #EAF3EC",
"iX c #F5F9E4",
"pX c #F4F4ED",
"aX c #FFF5EB",
"sX c #FDFDED",
"dX c #FCF8E7",
"fX c #EBE9F7",
"gX c #FAEDFB",
"hX c #E4FFFE",
"jX c #ECFDFC",
"kX c #ECF7F7",
"lX c #FCF2F4",
"zX c #F4FDF5",
"xX c #FDFDF4",
"cX c #F4F4FE",
"vX c #FEF4FE",
"bX c #F5FDFE",
"nX c #FFFFFF",
"mX c #F5F3F4",
/* pixels */
"nXnXnXnXnXnXnXnXnXnXnXnXnXnXnXnXnXnXnXnXnXnXnXnXnXnXnXnXnXnXnXnXnXnXnXnXnXnXnXnXnXnXnXnXnXnXnXnXnXnXnXnXnXnXnXnXnXnXnXnXnXnXnXnX",
"nXnXnXnXnXnXnXnXnXnXnXnXnXnXnXnXnXnXnXnXnXnXnXnXnXnXnXnXnXnXnXnXnXnXnXnXnXnXnXnXnXnXnXnXnXnXnXnXnXnXnXnXnXnXnXnXnXnXnXnXnXnXnXnX",
"nXnXnXnXnXnXnXnXnXnXnXnXnXnXnXnXnXnXnXnXnXnXnXnXnXnXnXnXnXnXnXnXnXnXnXnXnXnXnXnXnXnXnXnXnXnXnXnXnXnXnXnXnXnXnXnXnXnXnXnXnXnXnXnX",
"nXnXnXnXnXnXnXnXnXnXnXnXnXnXnXnXnXnXnXnXnXnXnXnXnXnXnXnXnXnXnXnXnXnXnXnXnXnXnXnXnXnXnXnXnXnXnXnXnXnXnXnXnXnXnXnXnXnXnXnXnXnXnXnX",
"nXnXnXnXnXnXnXnXnXnXnXnXnXnXnXnXnXnXnXnXnXnXnXnXnXnXnXnXnXnXnXnXnXnXnXnXnXnXnXnXnXnXnXnXnXnXnXnXnXnXnXnXnXnXnXnXnXnXnXnXnXnXnXnX",
"nXnXnXnXnXnXnXnXnXnXnXnXnXnXnXnXnXnXnXnXnXnXnXnXnXnXnXnXnXnXnXnXnXnXnXnXnXnXnXnXnXnXnXnXnXnXnXnXnXnXnXnXnXnXnXnXnXnXnXnXnXnXnXnX",
"nXnXnXnXnXnXnXnXnXnXnXnXnXnXnXnXnXnXnXnXnXnXnXnXnXnXnXnXnXnXnXnXnXnXnXnXnXnXnXnXnXnXnXnXnXnXnXnXnXnXnXnXnXnXnXnXnXnXnXnXnXnXnXnX",
"nXnXnXnXnXnXnXnXnXnXnXnXnXnXnXnXnXnXnXnXnXnXnXnXnXnXnXnXnXnXnXnXnXnXnXnXnXnXnXnXnXnXnXnXnXnXnXnXnXnXnXnXnXnXnXnXnXnXnXnXnXnXnXnX",
"nXnXnXnXnXnXnXnXnXnXnXnXnXnXnXnXnXnXnXnXnXnXnXnXnXnXnXnXnXnXnXnXnXnXnXnXnXnXnXnXnXnXnXnXnXnXnXnXnXnXnXnXnXnXnXnXnXnXnXnXnXnXnXnX",
"nXnXnXnXnXnXnXnXnXnXnXnXnXnXnXnXnXnXnXnXnXnXnXnXnXnXnXnXnXnXnXnXnXnXnXnXnXnXnXnXnXnXnXnXnXnXnXnXnXnXnXnXnXnXnXnXnXnXnXnXnXnXnXnX",
"nXnXnXnXnXnXnXnXnXnXnXnXnXnXnXnXnXnXnXnXnXnXnXnXnXnXnXnXnXnXnXnXnXnXnXnXnXnXnXnXnXnXnXnXnXnXnXnXnXnXnXnXnXnXnXnXnXnXnXnXnXnXnXnX",
"nXnXnXnXnXnXnXnXnXnXnXnXnXnXnXnXnXnXnXnXnXnXnXnXnXnXnXnXnXnXnXnXnXnXnXnXnXnXnXnXnXnXnXnXnXnXnXnXnXnXnXnXnXnXnXnXnXnXnXnXnXnXnXnX",
"nXnXnXnXnXnXnXnXnXnXnXnXnXnXnXnXnXnXnXnXnXnXnXnXnXnXnXnXnXnXnXnXnXnXnXnXnXnXnXnXnXnXnXnXnXnXnXnXnXnXnXnXnXnXnXnXnXnXnXnXnXnXnXnX",
"nXnXnXnXnXnXnXnXnXnXnXnXnXnXnXnXnXnXnXnXnXnXnXnXnXnXnXnXnXnXnXnXnXnXzXnXnXnXnXnXnXnXnXnXnXnXnXnXnXnXnXnXnXnXnXnXnXnXnXnXnXnXnXnX",
"nXnXnXnXnXnXnXnXnXnXnXnXnXnXnXnXnXnXnXnXnXnXnXnXnXnXnXnXnXnXnXnXnXnXnXnXnXnXnXnXnXnXnXnXnXnXnXnXnXnXnXnXnXnXnXnXnXnXnXnXnXnXnXnX",
"nXnXnXnXnXnXnXnXnXnXnXnXnXnXnXnXnXnXnXnXnXnXnXnXnXxXnXnXnXxXnXnXnXnXnXnXxXnXxXvXnXnXnXnXbXnXnXnXnXnXnXnXnXnXnXnXnXnXnXnXnXnXnXnX",
"nXnXnXnXnXnXnXnXnXnXnXnXnXnXnXnXbXbXbXbXbXnXnXnXxXxXaXxXdXxXxXnXxXxXbXuXnXxXyXvXlXnXnXbXbXuXnXpXnXnXnXnXnXnXnXnXnXnXnXnXnXnXnXnX",
"nXnXnXnXnXnXnXnXnXnXnXnXnXnXnXnXnXnXnXkXbXbX4XnXnXnXxX8X3X*X.X*X*X*X.X=X$X=XxXyXvXnXbXjXbXbXpXnXnXnXnXnXnXnXnXnXnXnXnXnXnXnXnXnX",
"nXnXnXnXnXnXnXnXnXnXnXnXnXnXnXnXaXxXnXnXfXnXbXbXmXlXaX@X+ + O + + + . @ O g lXvXnXnXbXkXbXpXnXlXnXnXnXnXnXnXnXnXnXnXnXnXnXnXnXnX",
"nXnXnXnXnXnXnXnXnXnXnXnXnXnXnXnXxXaXxXnXbXkXbXnXvXw > j @.+.@. . . .} 2.} x 0 ; _.nXzXbXxXnXvXvXnXnXnXnXnXnXnXnXnXnXnXnXnXnXnXnX",
"nXnXnXnXnXnXnXnXnXnXnXnXnXnXnXnXxXyXvXnXnXxXnX=Xo.y q a C.a.c.c.z.g.z.g.A.4.q e X.].aXxXxXnXlXvXnXnXnXnXnXnXnXnXnXnXnXnXnXnXnXnX",
"nXnXnXnXnXnXnXnXnXnXnXnXnXnXnXnXlXnXnXnXnXxX0XW ; n.M.a.;.v.F.:.v.v.x.D.h.g.g.Z.a + 0XiXxXnXnXvXnXnXnXnXnXnXnXnXnXnXnXnXnXnXnXnX",
"nXnXnXnXnXnXnXnXnXnXnXnXnXnXnXnXnXnXnXtXxXdX2 a n.y.p.c.c.g.S.D.c.c.j.A.D.S.F.:.a.2.# [.nXzXnXmXnXnXnXnXnXnXnXnXnXnXnXnXnXnXnXnX",
"nXnXnXnXnXnXnXnXnXnXnXnXnXnXnXnXnXbXnXnXxX9X+ k N.M.u.y.d.d.7.f.9.9.9.3.d.D.,.l.k.d.@ (.bXbXfXnXnXnXnXnXnXnXnXnXnXnXnXnXnXnXnXnX",
"nXnXnXnXnXnXnXnXnXnXnXnXnXnXnXnXbXbXnXnXxXdX# l +X+X5.@.r.e.`.`.r.r.w.x 6.f.k.F.D.M.. (.nXbXbXnXnXnXnXnXnXnXnXnXnXnXnXnXnXnXnXnX",
"nXnXnXnXnXnXnXnXnXnXnXnXnXnXnXnXnXbXbXxXnXaX# g @XY $XlX6X4XfX1X3X3X1X! p } M.H.M.9.@ (.bXbXnXnXnXnXnXnXnXnXnXnXnXnXnXnXnXnXnXnX",
"nXnXnXnXnXnXnXnXnXnXnXnXnXnXnXxXxXxXxXnXnXpX% 7 ` ^.%XtXmXnXkXnXbXcXfX|.Q W ..x ..W   (.nXnXvXnXnXnXnXnXnXnXnXnXnXnXnXnXnXnXnXnX",
"nXnXnXnXnXnXnXnXnXnXnXnXnXnXnXnXxXxXxXxXnXkX$ < P %X1XtXxXnXtXXX:XfXcXXX_.Y w d w w   ).nXnXvXnXnXnXnXnXnXnXnXnXnXnXnXnXnXnXnXnX",
"nXnXnXnXnXnXnXnXnXnXnXnXnXnXnXnXxXxXxXnXxXuX% 1 H q.@X0XdXiX^.  o {.cX/.&.Y d i j g   |.nXnXvXnXnXnXnXnXnXnXnXnXnXnXnXnXnXnXnXnX",
"nXnXnXnXnXnXnXnXnXnXnXnXnXnXnXnXnXnXlXxXxXpX% s `.0.-X9XsXsX&.  o {.bX_.! #.+X9.B.5.@ ).bXnXnXnXnXnXnXnXnXnXnXnXnXnXnXnXnXnXnXnX",
"nXnXnXnXnXnXnXnXnXnXnXnXnXnXnXnXnXnXnXzXxXdX: l @XX.-X9XpXnX:X( '  XbX).! O.Z.c.J.m.O ^.nXbXxXxXnXnXnXnXnXnXnXnXnXnXnXnXnXnXnXnX",
"nXnXnXnXnXnXnXnXnXnXnXnXnXnXnXnXbXbXbXxXnXdX+ j t.{ +XqXxXcXbXbXxXiX4X#.X.6.v.,.k.j.O '.bXbXxXsXnXnXnXnXnXnXnXnXnXnXnXnXnXnXnXnX",
"nXnXnXnXnXnXnXnXnXnXnXnXnXnXnXnXnXbXbXnXnXyX# i 9.j.-.3.#X=XoX>X$X[.^.$.j [ v.l.F.p.@ '.bXnXyXxXnXnXnXnXnXnXnXnXnXnXnXnXnXnXnXnX",
"nXnXnXnXnXnXnXnXnXnXnXnXnXnXnXnXnXnXnXtXnXnX> k G.A.p.8.+X#Xq.R X.U z z t ] Z.;.A.t.  |.bXnXnXaXnXnXnXnXnXnXnXnXnXnXnXnXnXnXnXnX",
"nXnXnXnXnXnXnXnXnXnXnXnXnXnXnXnXxXmXgXnXcXvXO d t.G.h.A.J.c.;.r 9 9 8 r r ] J.u.7.*.3 XXjXbXxXxXxXnXnXnXnXnXnXnXnXnXnXnXnXnXnXnX",
"nXnXnXnXnXnXnXnXnXnXnXnXnXnXnXxXiXxXnXnXnXmX@ 1 o.t.f.p.x.v.J.i.r 8 8 r %.N.n.a f H B ,XbXbXbXnXnXnXnXnXnXnXnXnXnXnXnXnXnXnXnXnX",
"nXnXnXnXnXnXnXnXnXnXnXnXnXnXnXnXxXsXxXxX$X2 q.w.h T Y { f.p.k.b.-.-.2.w L T W 1.7.B.#Xl Q lXvXvXnXnXnXnXnXnXnXnXnXnXnXnXnXnXnXnX",
"nXnXnXnXnXnXnXnXnXnXnXnXnXnXnXnXzXuXxX=Xo.0 w.W T J L Q e.<...2.3.1.w.B ^ K Y 6.p.h.3.i l oXgXgXnXnXnXnXnXnXnXnXnXnXnXnXnXnXnXnX",
"nXnXnXnXnXnXnXnXnXnXnXnXnXnXnXnXbXjXbX> w &X# f `.B ^ A ^ J ^ ( N N F F ) &.t.D.F.:.+ <.q.. 5XgXnXnXnXnXnXnXnXnXnXnXnXnXnXnXnXnX",
"nXnXnXnXnXnXnXnXnXnXnXnXnXnXnXbXjXbXbX1 ; W O H  XB ) G P.S P.b V S S T.A _ &XK.J.p.# d H   <XnXnXnXnXnXnXnXnXnXnXnXnXnXnXnXnXnX",
"nXnXnXnXnXnXnXnXnXnXnXnXnXnXnXbXbXjXnX^.T , X m ~.Z G V E.S V E.I.I.I.T.W.!./.$.0.<.. . s ~ 7XbXnXnXnXnXnXnXnXnXnXnXnXnXnXnXnXnX",
"nXnXnXnXnXnXnXnXnXnXnXnXnXnXnXnXbXbXnXlX}.* 5 v M C S T.E.E.Q.D Y.Q.Q.G G W.M M J L = % h sXzXbXbXnXnXnXnXnXnXnXnXnXnXnXnXnXnXnX",
"nXnXnXnXnXnXnXnXnXnXnXnXnXnXnXnXcXvXlXlXxXgXvX' o B Z S I.I.G D W.n D G V F ) M = * fXgXpXtXnXvXnXnXnXnXnXnXnXnXnXnXnXnXnXnXnXnX",
"nXnXnXnXnXnXnXnXnXnXnXnXnXnXnXnXnXvXnXxXxXtXnX2X&.$ 3 v W.c c 4 4 c 3 6 F Z 3 $ K XXvXcXbXbXnXnXnXnXnXnXnXnXnXnXnXnXnXnXnXnXnXnX",
"nXnXnXnXnXnXnXnXnXnXnXnXnXnXnXnXnXaXxXxXnXbXbXbX7Xu   $ !.& 5 m 7 7 6 $ M M X , '.bXhXhXhXkXyXxXnXnXnXnXnXnXnXnXnXnXnXnXnXnXnXnX",
"nXnXnXnXnXnXnXnXnXnXnXnXnXnXnXnXdXsXxXnXnXcXbXnXnXnXP o T = ' nXbXcX2X  J v O 6XxXbXjXhXhXzXvXyXnXnXnXnXnXnXnXnXnXnXnXnXnXnXnXnX",
"nXnXnXnXnXnXnXnXnXnXnXnXnXnXnXnXnXnXbXbXzXnXxXxXvXvXJ . %   E jXkXbX2X    X X eXnXbXbXbXxXxXlXvXnXnXnXnXnXnXnXnXnXnXnXnXnXnXnXnX",
"nXnXnXnXnXnXnXnXnXnXnXnXnXnXnXnXbXbXnXbXzXxXxXnXvXvX/.J E I OXzXbXcX4XQ L P ' wXnXvXnXnXsXxXnXvXnXnXnXnXnXnXnXnXnXnXnXnXnXnXnXnX",
"nXnXnXnXnXnXnXnXnXnXnXnXnXnXnXnXnXnXnXnXnXnXnXnXnXxXnXnXnXzXxXbXbXnXnXxXnXnXnXnXnXnXnXnXnXnXnXnXnXnXnXnXnXnXnXnXnXnXnXnXnXnXnXnX",
"nXnXnXnXnXnXnXnXnXnXnXnXnXnXnXnXnXnXnXnXnXnXnXnXnXnXnXnXnXnXbXnXnXnXbXnXnXnXnXnXnXnXnXnXnXnXnXnXnXnXnXnXnXnXnXnXnXnXnXnXnXnXnXnX",
"nXnXnXnXnXnXnXnXnXnXnXnXnXnXnXnXnXnXnXnXnXnXnXnXbXvXnXnXnXnXnXnXnXnXnXnXvXnXnXnXnXnXnXnXnXnXnXnXnXnXnXnXnXnXnXnXnXnXnXnXnXnXnXnX",
"nXnXnXnXnXnXnXnXnXnXnXnXnXnXnXnXnXnXnXnXnXnXnXnXnXnXnXnXnXnXnXnXnXnXnXnXnXnXnXnXnXnXnXnXnXnXnXnXnXnXnXnXnXnXnXnXnXnXnXnXnXnXnXnX",
"nXnXnXnXnXnXnXnXnXnXnXnXnXnXnXnXnXnXnXnXnXnXnXnXnXnXnXnXnXnXnXnXnXnXnXnXnXnXnXnXnXnXnXnXnXnXnXnXnXnXnXnXnXnXnXnXnXnXnXnXnXnXnXnX",
"nXnXnXnXnXnXnXnXnXnXnXnXnXnXnXnXnXnXnXnXnXnXnXnXnXnXnXnXnXnXnXnXnXnXnXnXnXnXnXnXnXnXnXnXnXnXnXnXnXnXnXnXnXnXnXnXnXnXnXnXnXnXnXnX",
"nXnXnXnXnXnXnXnXnXnXnXnXnXnXnXnXnXnXnXnXnXnXnXnXnXnXnXnXnXnXnXnXnXnXnXnXnXnXnXnXnXnXnXnXnXnXnXnXnXnXnXnXnXnXnXnXnXnXnXnXnXnXnXnX",
"nXnXnXnXnXnXnXnXnXnXnXnXnXnXnXnXnXnXnXnXnXnXnXnXnXnXnXnXnXnXnXnXnXnXnXnXnXnXnXnXnXnXnXnXnXnXnXnXnXnXnXnXnXnXnXnXnXnXnXnXnXnXnXnX",
"nXnXnXnXnXnXnXnXnXnXnXnXnXnXnXnXnXnXnXnXnXnXnXnXnXnXnXnXnXnXnXnXnXnXnXnXnXnXnXnXnXnXnXnXnXnXnXnXnXnXnXnXnXnXnXnXnXnXnXnXnXnXnXnX",
"nXnXnXnXnXnXnXnXnXnXnXnXnXnXnXnXnXnXnXnXnXnXnXnXnXnXnXnXnXnXnXnXnXnXnXnXnXnXnXnXnXnXnXnXnXnXnXnXnXnXnXnXnXnXnXnXnXnXnXnXnXnXnXnX",
"nXnXnXnXnXnXnXnXnXnXnXnXnXnXnXnXnXnXnXnXnXnXnXnXnXnXnXnXnXnXnXnXnXnXnXnXnXnXnXnXnXnXnXnXnXnXnXnXnXnXnXnXnXnXnXnXnXnXnXnXnXnXnXnX",
"nXnXnXnXnXnXnXnXnXnXnXnXnXnXnXnXnXnXnXnXnXnXnXnXnXnXnXnXnXnXnXnXnXnXnXnXnXnXnXnXnXnXnXnXnXnXnXnXnXnXnXnXnXnXnXnXnXnXnXnXnXnXnXnX",
"nXnXnXnXnXnXnXnXnXnXnXnXnXnXnXnXnXnXnXnXnXnXnXnXnXnXnXnXnXnXnXnXnXnXnXnXnXnXnXnXnXnXnXnXnXnXnXnXnXnXnXnXnXnXnXnXnXnXnXnXnXnXnXnX",
"nXnXnXnXnXnXnXnXnXnXnXnXnXnXnXnXnXnXnXnXnXnXnXnXnXnXnXnXnXnXnXnXnXnXnXnXnXnXnXnXnXnXnXnXnXnXnXnXnXnXnXnXnXnXnXnXnXnXnXnXnXnXnXnX",
"nXnXnXnXnXnXnXnXnXnXnXnXnXnXnXnXnXnXnXnXnXnXnXnXnXnXnXnXnXnXnXnXnXnXnXnXnXnXnXnXnXnXnXnXnXnXnXnXnXnXnXnXnXnXnXnXnXnXnXnXnXnXnXnX",
"nXnXnXnXnXnXnXnXnXnXnXnXnXnXnXnXnXnXnXnXnXnXnXnXnXnXnXnXnXnXnXnXnXnXnXnXnXnXnXnXnXnXnXnXnXnXnXnXnXnXnXnXnXnXnXnXnXnXnXnXnXnXnXnX"
};
