/* XPM */
static char *c8ab25e2bf8447c5ed6794a5beed290c54UkziXqCci7os1W[] = {
/* columns rows colors chars-per-pixel */
"40 40 133 2 ",
"   c None",
".  c #CE0001",
"X  c #D10601",
"o  c #D40E01",
"O  c #D61801",
"+  c #DD2C00",
"@  c #DF3300",
"#  c #E33D00",
"$  c #D35100",
"%  c #DC5100",
"&  c #D25C01",
"*  c #DC5D00",
"=  c #E64F00",
"-  c #E45503",
";  c #EA5500",
":  c #E15E00",
">  c #ED5A01",
",  c #FF5701",
"<  c #F65B00",
"1  c #FF5B01",
"2  c #FF5B0A",
"3  c #E65811",
"4  c #FF5E11",
"5  c #ED6400",
"6  c #FF6400",
"7  c #FF6B00",
"8  c #FF610E",
"9  c #EF7200",
"0  c #F37601",
"q  c #FF7300",
"w  c #FF7C00",
"e  c #FF750E",
"r  c #FF780C",
"t  c #FF6415",
"y  c #FF651B",
"u  c #FF691C",
"i  c #FF6720",
"p  c #FF6C23",
"a  c #FF6F29",
"s  c #FF7520",
"d  c #FF722D",
"f  c #FF7632",
"g  c #FF7C39",
"h  c #FF8300",
"j  c #FF8C00",
"k  c #FF840E",
"l  c #FF9301",
"z  c #FF9C00",
"x  c #FF930E",
"c  c #FF8F17",
"v  c #FF8B1A",
"b  c #FF9512",
"n  c #FF9A17",
"m  c #FE931F",
"M  c #FF991F",
"N  c #FFA400",
"B  c #FFAB00",
"V  c #FFB300",
"C  c #FFB900",
"Z  c #FF9D21",
"A  c #FF902D",
"S  c #FF9D2D",
"D  c #FE8337",
"F  c #FF9A37",
"G  c #FF9639",
"H  c #FF9E3A",
"J  c #FFA12D",
"K  c #FFA43A",
"L  c #FF8644",
"P  c #FF9444",
"I  c #FE9B4E",
"U  c #FF8C52",
"Y  c #FF955A",
"T  c #FF9C5A",
"R  c #FFA449",
"E  c #FFA949",
"W  c #FFA657",
"Q  c #FFAC56",
"!  c #FFA15C",
"~  c #FF9965",
"^  c #FF9E6E",
"/  c #FFAD66",
"(  c #FFB166",
")  c #FFB266",
"_  c #FFB367",
"`  c #FFA87A",
"'  c #FFAF7A",
"]  c #FFA97F",
"[  c #FFB177",
"{  c #FFB377",
"}  c #FFB277",
"|  c #FFB577",
" . c #FFB777",
".. c #FFB677",
"X. c #FFB877",
"o. c #FFB078",
"O. c #FFAB81",
"+. c #FFAE87",
"@. c #FFAF89",
"#. c #FFB283",
"$. c #FFB987",
"%. c #FFBA87",
"&. c #FFBB87",
"*. c #FFBC87",
"=. c #FFBD87",
"-. c #FEBC86",
";. c #FFB68E",
":. c #FFB888",
">. c #FEB88E",
",. c #FFBB97",
"<. c #FFBD94",
"1. c #FFBC99",
"2. c #FFBF9E",
"3. c #FFC197",
"4. c #FFC296",
"5. c #FFC396",
"6. c #FFC297",
"7. c #FFC397",
"8. c #FEC497",
"9. c #FFC497",
"0. c #FFC198",
"q. c #FFC199",
"w. c #FFC8A8",
"e. c #FFCAA9",
"r. c #FFCBA9",
"t. c #FFCAAA",
"y. c #FFCBAB",
"u. c #FFCCAB",
"i. c #FFCAAC",
"p. c #FFCCB1",
"a. c #FFD1B6",
"s. c #FFD1B7",
"d. c #FFD3B9",
/* pixels */
"                                                                                ",
"                                                                                ",
"                                                                                ",
"                                U ^ ] +.@.O.~ U                                 ",
"                          f g ^ 1.i.a.d.d.a.i.q.` L f                           ",
"                      g 8 L ;.w.u.u.r.u.r.u.r.u.w.,.Y 8 d                       ",
"                    y 1 L >.0.3.3.3.9.9.9.9.9.5.0.0.<.Y 8 4                     ",
"                  8 , s ' %.%.%.*.*.*.*.*.*.*.*.%.*.%.#.D 1 2                   ",
"                8 1 1 P ' ' [ ..X.X.X.X.X.X.X.X...[ [ o.T 7 1 2                 ",
"              t 1 6 7 I / / / / _ _ _ _ _ ( ( _ ( / / / T e 1 1 2               ",
"            d , 6 6 7 P W W Q W Q Q Q Q Q Q Q Q Q Q W W I r 6 6 1 u             ",
"            2 1 6 7 q A R R R R E E E E E E E E R R R R F q 7 6 1 ,             ",
"          p 1 6 7 7 q k F H K K K K K K K K K K K K H F v q q 6 6 1 t           ",
"          2 1 6 7 q w w v S S J J J J J J J J J S S S A h w q 7 6 1 1           ",
"        f , 6 6 q q w h h x M Z n J J n J n Z Z Z M b j h w w 7 7 6 1 p         ",
"        u 1 6 7 q w w h h j j x n n n n n n n n b l j h h w w q 7 6 1 4         ",
"        8 1 6 7 q w h h h j j j l l l x z x l l j j h j h h w q 7 7 1 2         ",
"        2 6 6 q q w h h j j j l l l l j 0 l l l j l j j h h w q q 6 6 ,         ",
"        1 1 6 7 q w h h j j l j l l l ; # j l l l l j j h h w q 7 7 6 ,         ",
"        1 1 7 7 q w h h j j l l z 0 @ o X @ 5 l l l l j j h w w q 7 1 ,         ",
"        2 1 7 q q w h h l l l l z j + . . O 9 z l l l j j h w w 7 7 6 ,         ",
"        2 1 6 7 w w h j l l z z z z - . . @ z z z z z l j h w q q 6 1 1         ",
"        t 1 6 7 q w h l l z z z z z 5 5 9 - l z N z z l j j h q 7 7 1 2         ",
"        d 1 6 7 q w j l z z N N N N z N B z N N z N N z l j h q 7 6 1 t         ",
"          1 1 6 q w j l N N N N N N N N N N N N N N N z z j h q 7 6 , a         ",
"          4 1 6 7 h l z z N N B B B B B B B B B B N N N z l h q 6 1 2           ",
"          g 1 6 7 w l z N B B B B B B B B B B B B B B N z l h 7 6 1 i           ",
"            4 1 6 w j z N B B B V B V B V V V B B B B N N l w 7 1 2             ",
"              2 1 q h l N B B V V V V V V V V V V V B B z j q 6 , d             ",
"              d 1 6 w j N B V V V C C V C C V C V V B N j w 7 1 p               ",
"                p 1 7 w j z B V C C C C C C C V V B N l w 7 1 t                 ",
"                  u 1 6 w j z B B V V C C C V V B z j w 7 6 u                   ",
"                      < 6 7 w j l z N B N N z z j h q 6 < 3                     ",
"                        % < 7 7 w h h j j j h w q 6 6 %                         ",
"                            $ > < 6 6 7 6 6 6 6 > %                             ",
"                                  & * : : * &                                   ",
"                                                                                ",
"                                                                                ",
"                                                                                ",
"                                                                                "
};
