/* XPM */
static char *c87ec56e8cf54a15d731640a5d2d37a4WCK0FL8E8G18Umbb[] = {
/* columns rows colors chars-per-pixel */
"64 64 162 2 ",
"   c None",
".  c #CE0506",
"X  c #CF0806",
"o  c #D00B06",
"O  c #D31405",
"+  c #D41A05",
"@  c #D72305",
"#  c #D92905",
"$  c #DD3304",
"%  c #DE3804",
"&  c #E13E04",
"*  c #C04F00",
"=  c #CA4C00",
"-  c #D74F00",
";  c #DB4E00",
":  c #CC5900",
">  c #DA5300",
",  c #DB5A00",
"<  c #E24403",
"1  c #E44C03",
"2  c #E15400",
"3  c #ED5601",
"4  c #E45A00",
"5  c #EA5B01",
"6  c #F35400",
"7  c #FF5500",
"8  c #F25800",
"9  c #FF5B00",
"0  c #FF5B0C",
"q  c #FF5F15",
"w  c #EC6302",
"e  c #EE6A02",
"r  c #FF6300",
"t  c #F16F02",
"y  c #FF6B00",
"u  c #FF6209",
"i  c #F47301",
"p  c #FF7300",
"a  c #FF7B00",
"s  c #FF7F09",
"d  c #FF6215",
"f  c #FF661A",
"g  c #FF6C1C",
"h  c #FF7114",
"j  c #FF7A12",
"k  c #FF751E",
"l  c #FF7B1C",
"z  c #FF6720",
"x  c #FF6F23",
"c  c #FF7323",
"v  c #FF7230",
"b  c #FF7836",
"n  c #FF7A3B",
"m  c #F58201",
"M  c #FF8300",
"N  c #F78901",
"B  c #FF8C00",
"V  c #FF8D0B",
"C  c #FF9300",
"Z  c #FF9C00",
"A  c #FF940D",
"S  c #FF8715",
"D  c #FF8B12",
"F  c #FF8018",
"G  c #FF8E1F",
"H  c #FF9415",
"J  c #FF951C",
"K  c #FF991D",
"L  c #FFA400",
"P  c #FFAB00",
"I  c #FFB300",
"U  c #FFB900",
"Y  c #FF8A23",
"T  c #FF882C",
"R  c #FF9723",
"E  c #FF9B24",
"W  c #FF972C",
"Q  c #FF9D2B",
"!  c #FF8334",
"~  c #FF8D3B",
"^  c #FF9533",
"/  c #FF9D31",
"(  c #FF953C",
")  c #FF9D39",
"_  c #FFA031",
"`  c #FFA239",
"'  c #FF8445",
"]  c #FF864D",
"[  c #FF9D41",
"{  c #FF9D4A",
"}  c #FF8E57",
"|  c #FF905C",
" . c #FF9A5A",
".. c #FFA441",
"X. c #FFA449",
"o. c #FFA849",
"O. c #FFA451",
"+. c #FFAA51",
"@. c #FFA45A",
"#. c #FFAC5A",
"$. c #FF9462",
"%. c #FF9D64",
"&. c #FF9C6B",
"*. c #FFA563",
"=. c #FFAC63",
"-. c #FFAC6D",
";. c #FFB063",
":. c #FFB26D",
">. c #FFAD76",
",. c #FFA67B",
"<. c #FFAE7A",
"1. c #FFB577",
"2. c #FFAD81",
"3. c #FFB381",
"4. c #FFB580",
"5. c #FFB780",
"6. c #FFB680",
"7. c #FFB980",
"8. c #FFB880",
"9. c #FFBA80",
"0. c #FFB28A",
"q. c #FFB98B",
"w. c #FFBB8B",
"e. c #FFBA8B",
"r. c #FFBC8B",
"t. c #FFBD8B",
"y. c #FFBE8B",
"u. c #FFB98D",
"i. c #FFB693",
"p. c #FFB991",
"a. c #FFBA97",
"s. c #FFBF95",
"d. c #FFBE95",
"f. c #FFBD97",
"g. c #FFBE98",
"h. c #FFBE9E",
"j. c #FFC095",
"k. c #FFC195",
"l. c #FFC295",
"z. c #FFC4A0",
"x. c #FFC5A0",
"c. c #FFC4A1",
"v. c #FFC6A0",
"b. c #FFC7A0",
"n. c #FFC4A3",
"m. c #FFC5A6",
"M. c #FFCBAB",
"N. c #FFCAAB",
"B. c #FFCCAB",
"V. c #FFCAAD",
"C. c #FFCAAD",
"Z. c #FFCCB2",
"A. c #FFCEB4",
"S. c #FFD1B6",
"D. c #FFD1B7",
"F. c #FFD2B9",
"G. c #FFD2B8",
"H. c #FFD3BB",
"J. c #FFD1B8",
"K. c #FFD5BE",
"L. c #FFD6BF",
"P. c #FFD7C1",
/* pixels */
"                                                                                                                                ",
"                                                                                                                                ",
"                                                                                                                                ",
"                                                                                                                                ",
"                                                                                                                                ",
"                                                      q v ' } $.$.| ] b z                                                       ",
"                                                0 b &.i.C.F.K.P.P.P.F.Z.h.,.] f 7                                               ",
"                                          7 0 n 2.C.F.F.J.A.D.D.F.F.D.D.F.F.A.a.| d 7                                           ",
"                                      7 7 f &.m.B.S.B.B.B.B.B.B.B.B.B.M.C.C.C.C.C.0.b 7 7                                       ",
"                                    7 7 x 2.c.c.b.l.l.l.l.b.b.l.b.b.b.b.b.b.b.c.l.m.d.] 9 7 7                                   ",
"                                7 7 7 g <.g.d.d.l.l.l.l.l.l.l.l.l.l.l.l.l.l.l.l.d.d.d.p.~ 7 7 7                                 ",
"                              7 7 9 u %.u.u.w.w.w.r.l.9.l.l.l.l.j.r.r.r.u.y.y.y.r.w.u.u.3.c 9 7 7                               ",
"                            7 7 9 9 ! 3.3.3.3.5.5.5.7.7.9.9.9.9.1.1.9.9.9.9.1.9.5.5.3.3.3. .u 9 7 7                             ",
"                          7 7 9 r u  .>.>.>.1.1.1.1.1.1.1.9.1.1.1.1.1.9.1.1.1.1.1.1.1.>.>.>.c 9 9 7 7                           ",
"                        7 7 9 r r h *.-.-.-.-.:.:.:.:.:.:.:.:.:.1.:.:.:.:.:.:.;.-.-.-.-.-.-.! r r 9 7 7                         ",
"                      7 7 9 9 r r k *.*.*.=.=.=.=.=.;.=.;.;.;.;.;.;.;.;.;.;.;.;.=.=.=.*.*.*.~ r r r r 7 7                       ",
"                      7 9 r r r y l  .@.@.@.@.#.#.#.#.#.#.#.#.#.#.#.#.#.#.#.#.@.#.@.@.@.@.@.~ y r r r 7 7 7                     ",
"                    7 7 9 r r y y j {  .X.O.O.+.O.+.+.+.+.+.+.+.+.+.+.+.+.+.+.+.+.O.O.O.X. .T y y r r r 9 7                     ",
"                  7 7 9 r r y y p p [ { { X.X.X.X.o.o.o.o.o.o.o.o.o.o.o.o.o.X.X.X.X.X.{ { { l p y y r r 9 7 7                   ",
"                  7 7 9 r r y y p p Y [ [ [ [ ........` ........` o.................[ [ [ ^ s p p y r r r 7 7                   ",
"                7 7 9 r r y y p p p s ^ ) ) ) ) ` ` ` ` ` ` ` ` ` ` ` ` ` ` ` ` ) ) ) ) ) S a p p y y r r 9 9 7                 ",
"                7 9 9 r r y p p p a a S ^ / / / _ _ _ _ _ _ _ _ _ _ _ _ _ _ _ / / / Q ^ Y M a p p p y y r 9 9 7                 ",
"                7 9 r r y y p p a a M M S W Q Q Q Q Q Q Q Q Q Q Q Q _ _ Q Q Q Q Q Q Q G M a a a p p y y y r 9 7 7               ",
"              7 7 7 r y y y p p a a a M M V J R E E E E E E E E E E E E R R Q R R R H M M M a a a p p y r r 9 7 7               ",
"              7 9 9 r y y p p a a a M M M B B H J J J E K K E K K K K K K K E K J V M M M M a a a p p y y r r 7 7               ",
"              7 9 r r y y p p a a M M M M B B B V A H H H J K K K K K K K H A V B B B M M M M a a p p p y r r 9 7               ",
"              7 7 r r y y p p a a M M M M B B B B B C C A A A A L A A A A C B B B B M B B M M a a a p p y y r 9 7 7             ",
"              7 9 r r y p p a a a M M M M B B B B C B V C B C C C C C C B B C B B B B M M M M M a a p y y y r 9 7 7             ",
"            7 7 r r r y p p p a M M M B M B B B C B C C C C Z i 4 C C C C B C B B B B B B M M M a a p p y y r 9 9 7             ",
"            7 7 7 r y y p p a a a M M M B B B C C C C C C C C % O a C C C C C C C B B B M M M a a a p p y y r r 7 7             ",
"            7 7 r r y y p p a a a M M B B B B B C C C C N a w O . < m B C C C C C B B B B M M M a a p p y y r r 9 7             ",
"            7 7 9 r r y p p a a M M M B B B C C C C C N & O X X . X O @ e C C C C C B B B B M M a a p p y y r r 7 7             ",
"            7 7 9 r y y y p a a M M M B B C C C Z C Z Z i O . . . . X ; N Z C C C C C B B B M M a a p p y y r r 7 7             ",
"            7 7 9 r r y p p a a M M B B C C C C C C Z Z Z 5 X . . . % C Z C Z Z Z C C C B B M M a a p p y y r 9 7 7             ",
"              7 9 r r y y p a a a M B C C C Z Z Z Z Z Z L 5 . . . . $ C Z Z Z Z Z C C C C B B M a p p p y y r 9 7 7             ",
"              7 7 r r y p p a a M B B C C Z Z Z Z Z Z Z L < O 1 w # + N L Z Z Z Z Z Z Z C B B M M a p p y r r 9 7 7             ",
"              7 9 r r y y p p a M B C C Z Z Z Z Z Z Z L Z e m Z L C e N L Z L Z Z Z Z Z Z C B M M a p p y r r 9 7               ",
"              7 7 r r r y p a a M B C Z Z Z Z Z L L L L L L L L L L L L Z L Z L Z Z Z Z Z C B B a a p y y r r 9 7               ",
"              7 7 9 r r y p a a B B C Z Z Z Z L Z L L L L L L L L L L L L L L L Z L Z Z Z C C B M a p y r r 7 7 7               ",
"                7 9 9 r y p p M B C Z Z Z L L L L L L L L L L P L L L L L L L L L L L L Z Z C C M a p y y r 9 7                 ",
"                7 7 r r r y a M B C Z Z L L L L L P L L L P L L P L L P L L L L P L L L Z Z C B M a y y r 9 7 7                 ",
"                  7 9 r y y p a B C Z L L L L L L L P P L P P P P P L P P P P L L L L L L L Z B M a p y r r 7 7                 ",
"                  7 7 r r y p M B C Z L L P P P P P P P P P P P P P P P P P P P L P P L L Z Z B M a p r r 7 7                   ",
"                    7 7 r r p a B C Z L L L P P P P P P P P I P P I P P P P P P P P P L L Z Z B M p y r 9 7 7                   ",
"                    7 7 9 r y a M C Z L P P P P P P I P P I P I I P P I P I P P P P P L L L Z B a p y 9 9 7                     ",
"                      7 9 9 y p M B Z L L P P I I I I I I I I I I I I I I I I I P I P P L Z C M p y r 7 7                       ",
"                        7 9 r y a M C Z L P I I I I I I I I I I I I I I I I I I I I P P L C B a p r r 7 7                       ",
"                        7 7 9 r p a B C L P P P I I I U I U U U I U U U I I I I I P P L Z B M p y r 7 7                         ",
"                          7 7 r r p a B C L P P I I U U U U U U U U U U U I I I I P L Z C M a y r 7 7                           ",
"                            7 7 r r p M B C Z P P I I I U U U U U U U U U U I I P L Z C M p y r 7 7                             ",
"                              7 9 r y p a B C Z L L I I I I U U U U U I I I P L Z C B a p y r 7 7                               ",
"                                  6 7 r y p a B C Z L L P P P P P I P P L L Z C B M a y y 9 7 6                                 ",
"                                    6 7 r y p p a B B C Z Z Z L L Z Z Z C C B M a p y 9 9 6                                     ",
"                                        6 7 r y y p a a M M M B B M B M M a p y y r 9 6 >                                       ",
"                                          = 3 7 9 r r y y p p p p p p y y y r r 7 8 >                                           ",
"                                                > 5 6 r r 9 r r r r r 9 9 9 8 2 *                                               ",
"                                                      : , 4 5 5 5 5 4 , :                                                       ",
"                                                                                                                                ",
"                                                                                                                                ",
"                                                                                                                                ",
"                                                                                                                                ",
"                                                                                                                                ",
"                                                                                                                                ",
"                                                                                                                                "
};