/* XPM */
static char *ab6c3e6889fd4fc6dac02019cf1a8c2egUhwDNpGPrUPx0V0[] = {
/* columns rows colors chars-per-pixel */
"64 64 162 2 ",
"   c #261403",
".  c #291604",
"X  c #2D1A06",
"o  c #26180B",
"O  c #2D1B0B",
"+  c #311C05",
"@  c #321E0C",
"#  c #2D1E11",
"$  c #321F11",
"%  c #2F210E",
"&  c #34220E",
"*  c #39240D",
"=  c #352313",
"-  c #392614",
";  c #362914",
":  c #3C2A15",
">  c #342418",
",  c #392718",
"<  c #36281D",
"1  c #3D2B1B",
"2  c #3E311D",
"3  c #3F2E20",
"4  c #412C16",
"5  c #412E1C",
"6  c #44321D",
"7  c #4A351E",
"8  c #4C381E",
"9  c #503D1F",
"0  c #412F20",
"q  c #453322",
"w  c #493624",
"e  c #473823",
"r  c #4C3A25",
"t  c #473729",
"y  c #4A3728",
"u  c #4D3C2A",
"i  c #523D26",
"p  c #523E2B",
"a  c #583F2B",
"s  c #4E3C30",
"d  c #523F30",
"f  c #4F402B",
"g  c #544027",
"h  c #54422D",
"j  c #5A452E",
"k  c #5C492F",
"l  c #554332",
"z  c #5A4633",
"x  c #564834",
"c  c #5D4A34",
"v  c #564638",
"b  c #5A4738",
"n  c #554838",
"m  c #5D4B3A",
"M  c #5F503B",
"N  c #614633",
"B  c #614C36",
"V  c #624E3A",
"C  c #684F3A",
"Z  c #655137",
"A  c #6A5334",
"S  c #695137",
"D  c #615138",
"F  c #635238",
"G  c #645038",
"H  c #655138",
"J  c #655139",
"K  c #645339",
"L  c #675338",
"P  c #665239",
"I  c #65533B",
"U  c #66523A",
"Y  c #67533A",
"T  c #65543A",
"R  c #66553B",
"E  c #62503C",
"W  c #66513C",
"Q  c #67513C",
"!  c #65503F",
"~  c #67523F",
"^  c #67563C",
"/  c #64523C",
"(  c #685439",
")  c #6A563B",
"_  c #68523D",
"`  c #69533E",
"'  c #6A543F",
"]  c #68563E",
"[  c #69573F",
"{  c #6A553D",
"}  c #69583F",
"|  c #6E5B3D",
" . c #6D583E",
".. c #70563D",
"X. c #72583F",
"o. c #624E40",
"O. c #635240",
"+. c #645341",
"@. c #645542",
"#. c #665742",
"$. c #655545",
"%. c #665442",
"&. c #695240",
"*. c #695441",
"=. c #6A5540",
"-. c #6B5442",
";. c #685743",
":. c #6D5644",
">. c #6A5642",
",. c #6B5941",
"<. c #6B5B42",
"1. c #6F5B40",
"2. c #6E5D43",
"3. c #6A5945",
"4. c #6A5947",
"5. c #6D5B45",
"6. c #6C5A46",
"7. c #6F5E44",
"8. c #6D5D46",
"9. c #6F5D47",
"0. c #6F5F47",
"q. c #6D5943",
"w. c #6A5748",
"e. c #6B5A48",
"r. c #6C5D4A",
"t. c #6E5D4D",
"y. c #6D5B49",
"u. c #705741",
"i. c #725D40",
"p. c #705C43",
"a. c #765F40",
"s. c #735F44",
"d. c #725C45",
"f. c #785E46",
"g. c #725D4A",
"h. c #785F49",
"j. c #756043",
"k. c #706046",
"l. c #766144",
"z. c #776446",
"x. c #746146",
"c. c #7B6445",
"v. c #796147",
"b. c #756149",
"n. c #70614C",
"m. c #71624F",
"M. c #76644C",
"N. c #75654E",
"B. c #75614B",
"V. c #7A634C",
"C. c #7E694F",
"Z. c #766754",
"A. c #756351",
"S. c #7A6552",
"D. c #7D6954",
"F. c #7D6B5A",
"G. c #806751",
"H. c #826C56",
"J. c #816D5A",
"K. c #837159",
"L. c #8C765F",
"P. c #857462",
/* pixels */
"c V 5 1 n v 1 < 2 x x M } 7.| 7.@.M n 2 ; l 3.x h e p j w r l a %.y 1 4 : c K K ( ( ( Z V N l d a V y m u % % % ; x 8.0.x.z.a.A ",
"&.V q = 1 1 = 1 f n x f h c c k x f e 2 1 f E x r l r e h h p B l q 1 2 g ^ ^ K Z Z Z / V / C C c c p c 1 % % % f #.N.0.^ | l.c.",
"*.C p 1 $ = 3 y f n l e 8 g 8 r e f w O O x 3.u u z u e l l h m 2 e r 2 k <.^ K Z B / Z ( { -.:.Q h b b = % = q A.n.8.<.p.j.j.i.",
"V c c y = = t y f l f l f 7 8 k r : 6 r e r l x x u h h y l b y 1 h x 6 M <.^ } / Z Z / ` { &.&.O.v m f O ; < n Z.r.#.9.M.p.( k ",
"d l b d $ > 0 > l l u u f r i g 1 4 x 9.6.x u h z r h v u h l 2 f M x : ^ N.} } ,.E / / =.&.C b z b v , # 0 = $.t.e.6.6./ j g j ",
"d a d u 1 0 y , q l l y h x w * * N z.2.q.B.3.h u j u u n u 1 t x x 8 * } K.x.7.,.) L ) =.` V c l m u $ < u > +.A.w.m z h i i j ",
"d d d y 0 y p 0 O t d p p r 5 - / | p.b.x.q.,.B.g l u u n t = 3 g f ; & x D.0.9.9.,.#.Q C m z l m v 3 > q b 3 u A.m u r a h a p ",
"p d y 0 0 y 0 , O , y d q @ 1 / x.D.V.u.p.d.g.N.m r u x y 1 1 = 1 6 * * w 9.^ n.9.y.3.O.z a p p m t $ $ q m 0 = v l p d h h p a ",
"y q 1 : 5 p &.A.%.5 $ $ $ 4 o.H.V.V.V.V.h.g.d.d.S.l 1 5 = l = y M.} j 6 - h &.z l x j u u p l l u 2 % = y d q O , $.l l p z d a ",
"0 5 - - u :.A.g.D.&.d - $ z A.&.) ..)  .| u.:.q.=.3.1 - y q 3 O.,.) ) B w 4 p Q u 6 y z x u u z l = o 1 y 6 & O = m l p u d d r ",
"1 @ & p u.g.g.V.g.S.g.0 . d w.s j k k k N B Z V m b.e 6 x 1 V S.q.( / ( z 7 5 s m v y t u l l e % # O % ; 1 5 : @ 5 p c m y 0 , ",
": - w :.S.g.:.f.g.h.D.V $ 0 o.d j k k k c c c B V ) r p p r H.g.u.p./ j V N q 4 y l z u u u 2 . > = = = 6 c #./ c p w 4 y 5 y y ",
": x ,.} { f.d.{ V. .g.&.q 5 s d c c M K C C V B V c 5 w w ` H.6.| C.u.c B V d y , 0 0 u 3 $ % 1 e ; % e #.9.d.d.6.d.B @ , v V q ",
"j T ,.T ( d.d.u.d. .q.V 4 $ 0 d j j j c B V V V ) c 4 4 N G.h.V.d.x.| B c c b N d 0 $ O = , t f ; 2 f m ^ } =.}  .p.d.r 7 z v q ",
"} c c }  .) | v.X.h.h.C q O - p f f g g h j z N C 8 4 7 V.G.V.h.c.| / / N c b d b u 3 0 d b y ; ; x #.M x K d.d.V. .q.B , : 1 m ",
"c m F L ( )  ...f.d.` V a = O 1 u f y r u g j j j X 4 N H.u.H.( f.q.f.q.c c C v b y t v v 0 = 1 M x x h j j F q.d.:.D.g.= # = n ",
"Z c c B ) ) ) ) ^ k } g x = 3 1 e l u u h l E u @ & 4 ` g.d.S.V.9.d.q.#.F m m o.d = 3 s t o # v M k f g g j f h x w.+.$.t # # v ",
"c k j j c c k j j r x f m 6 t t = f r y h t 1 @ 5 - . g g.B N { d.) ,.9.y.E b z s = O o # 3 $ 0 x k k f h j f e l w.v q # > 3 d ",
"c c j a g g g i g r r e x q u m o r 2 1 q e g 3.V l * w g.c 7 j x m m Z m c V m , = , < $ # # , f g f k j u l m b l = = # 3 3 s ",
"a c N a i g g g h g u y b q y $.6 o   r g.F.A.N.6.y.i 5 c V p r r g g r u z l u # q o.w.b 3 $ $ 6 g f f l x b m t , O = , 3 $ < ",
"5 p N d p u p h w g z h b 3 0 +.l . q Z.S.g.m.g.#.=.c q 7 c c i g g f g j a 5 * r #.S.A.g.:.d X % g l y l #.z - O - 1 @ $ , , @ ",
"4 w d z j a h g p l p y q > q o.F.= u F.A.t.A.3.3.#.&.z r a a a j f j x i 4 4 i b.S.d.g.A.f.C w . % r b m u 5 1 , = 4 q d d l r ",
"d y 0 p z l p u l p 0 1 > 1 u b b ; $.P.w.V 3.g.g.=.e.C B a 5 j p g l p 5 5 N G.H.V.u.V.h.C ..u.2 = 1 n l 1 , u p - r #.S.&.g.:.",
"g.s - 1 p l l u 5 , , 0 0 p d d t = h O.l l h l m %.V z Q h 4 l h z p 6 r &.D.V.f.V.d.h.h.f.h.) r.l = O 4 d a 0 - e A.S.d.B :.&.",
":.o.0 o , 3 , O $ , d p a z 5 - & O 1 l z p p c h z c V B c w 4 z q 4 N H.S.u.S.h.h.f.f.f.f.d.d.y.t.u q - u h & z :.B.g.:.:. .) ",
"&.w.y O 0 b d y $ $ y y , * 5 o.l 6 = ; u z v p l p i l Q ` j 4 & + p S.S.S.V. .f.d.u.X.........Q v y l $ = u 3.g.B.g.d.f.b.d.C ",
"o.g.b $ u S.w.$.5 $ - - w  .g.S.Z.3.u 1 6 l x g p l c z z j c B p 5 5 N V.d.` :.-.{ ) ( C S S S m v u u @ m w.D.g.g.u.=.u.f.:.B ",
"m o.&.5 0 F.t.$.$ d g.g.S.K.V./ y.#.l e 5 y h x h p a l B V B N 5 4 + - V u.V  .( C { ( ) S N j h x u 1 = J.F.e.g.g.V.d.u.u.{ ) ",
"m l #.w ; m V u o.g.S.S.d.u.b.H.x u q y u y r x j l z c c p 7 5 q p p 5 @ a h.&.w.q. ./ Z Z k r r r e : & 3.6.=.u.g.f.C N N N N ",
"z t m r ; l b 5 y N B :.V.G.C.| h u r u w = * 7 r h z a 5 4 w h G.S.g.C w 7 a b ) q.:.V k x h f r r e 1 & z =.=.&.C a a a a a a ",
"r f f 6 1 h f = 5 C C l j ) c.c r p u e 1 1 - % : : 5 r z ` d.V.g.h.:.g.S.l - 5 w c #.V l h f f f h f 6 : r d.` V z a a N C N N ",
"r E e O 1 7 :   , a l V / B S g y p u q c S.=.1 X 6 V b.h.u.:.g.g.g.u.&.C g.N @ X y O.#.x h h h f f f f 6 & B -.a l z V C N N N ",
"l u 1 1 c 9.F r 0 u m b B x L r a l 5 a V.i.x.4 + N b...u.d.u.g.:.-.o.o.:.:.d 5 $ @ q m o.m n l l t u l e * 6 M w j Z F V V z z ",
"m - O g b.,.#.D.*.l b b b x ^ m z = a A.q.6 j g 7 8 j ..G.u.C u.N o.&.V o.V w . $ $ , , 0 v o.v l n n u 1 ; e R M M Z j l l l p ",
", $ 5 F N.x.3.D.F.0 t l o.Q Z g @ 5 =.j i / g.B ..S a i B u.u.g.:.a y d a w $ $ q u 1   o 5 l m n f s u : % 7 } M c g f u h l l ",
"$ l y.n.M.M.b.n.g.o 0 u h u 7 : 5 z a 5 V S.f.| V ) B i a C C c N d N V y @ $ d m V d 0 = O 1 o.s l n u ; ; 8 c h h h f p p y 5 ",
"d $.A.y.L Z R m.o.O y 0 $ O & : p p @ l J.B.u.q.) B B N N a N N c c a 5 5 u a b m V b m v 3 , v n v y : e m f X : : 6 w i i q , ",
"l o.V h h g h x o.- y y y e w 6 - - - h.S.g.K.q.f. .V j a a C N a 7 - 4 a u.&.N z m b V w.E y = n t - 1 r u 2 X X & * : 5 : @   ",
"0 l b p h c h i b $ 0 b A.3.) x l $ , H.S.) d.x.B B ) N w 7 i w 4 q c g.g.c l C m c m c Q w.p   O = t u 1 X 2 } j.x.g.:.V c i 4 ",
"$ y z l h g j m y - y w.F.E 9.N.g.p 5 o.B.D.9.S.c.B ( u.w @ a g.G.h.g.u.&.C V b C c c x b E l @ = > = = r <.N.x.0.x.V.g.u.&.V a ",
"y = b l g j x i $ 5 b o.w.S.9.,.*.0 5 w.c =.d.6.q. .` / 7 7 S.A.u.q.:. .-.` B B B B N c x V p & = = = m D.M.b.2.x.n.b.p.) ` :.d.",
"d @ p c c g l g O , l u d A.S.S.u # 5 w.l p B q.q.| / ` a j S.&.:.&.{ {  .` B c V c c b m E z 5 = @ e 9.N.N.D.b.x.x.6.q.6.:.&.C ",
"$.$ y u 7 : - X $ 0 b V d p j g.p $ 1 o.l h j j B ( ,.:.p a A.:.d.d...:.q. .Z N C c c N B C c u = = V A.=.0.V.n.C.x.) ) -.d.6.:.",
"o.. 5 4 : 8 r - - $ y v v p r z u < , p z c x r i m B B w r A.g.f.i.q...u.:. .( Q c V C V B B a @ 5 y.6.c E Z L d.2.q.q.d.g.g.d.",
"m O r l c ^ <.T p y , = 6 x g - = O = q l h j j i j w p y a g.:.u.u.....q.u.:.:.=.( ( ` V c c i = p 6.c j c 8 B j Z | j.d...:.u.",
"v = z 6.k.^ M ^ *.$.t , = * 1 = q O o q %.z f x g x i j p p w.g.h.V.v.f.d.| | q.:.:. .( B N j r & m Q p c j 8 k i j B N c c C d.",
", , E ^ ,.L x ^ m m l v 5 . e =.w.l 1 1 $.^ x g a z a j w : c :.d.v.G.V.h.u.q.u.u. ./ c c B g 4 : x b l x j g g j g i i 7 a B =.",
"$ l D.m L n.,.F V %.b l q : Q F.t.A.m = h Q / x a r : 6 4 @ i c j B d.v.b.f.x.b.p./ j j j B j = - h l m g g c r g g i r a j l z ",
"B ( .. .(  . .:.B m x j X r N.0.6.d.d.z + C ..B 8 4 8 u.V.V w 7 j g c L V ( ) g x r l B h p u - 1 q v m l f l x f f f 6 x @.u % ",
" .d.f.u.q.q.) Q Z c c f & x N.n.6.f.h.{ * a 8 7 @ N V.f.C  .C g * 2 j T c x F c z F l h c p = O , < t l h r e 2 : : e e n l 1 = ",
"( ) ) q.q.| &.V c c x w 2 3.A.A.6.f.g.q.4 4 @ 7 B V.G.p.) {  .B g ; 1 c ^ z h x x c g l l - O u 1 O o @ 6 e e 6 8 6 6 1 = % O 3 ",
"N c c N B / B c x g x 4 e A.e.n.g.d.:.=.4 + 4 S L.h. .p.d.) B ) j.g 4 r m V c g c i c x - @ l g.#.s = 6 m <.n.y.<.} <.M b y < t ",
"V c a l j l h p h p p - r t.m m 9.y.:.=.5 @ r H.g.V.V.f.d. .) ( B } T r w c T c x c z 5 @ h A.y.#.m 6 g y.9.,.^ C c V l b l 1 1 ",
"V j a z z j l p l p p - u M v f x m Q #.7 + p m.u.V.V.f.u.....) c } } m f 7 e x p h : X h m.6.V ^ ^ g Z S.x.9.=.3.c d p v l 0 y ",
"c z d a l d p a u y w 1 p l x u u h x x : & j V V.d.u.f.f.X...u.2.B c } } 7 & 6 6 - O w g.6.x V V ( r k M.| M.N.=.z N V o.d , 5 ",
"c l z z d i 0 q 5 , 1 , u u c y u u l f * - R Z k  .h.V.h.v.f.../ ,.^ / } j : & - & h n.w.V %.E c S 8 B C.} x.c.V.c a b a 5 $ s ",
"l b l l y y b #.C v w = @ 5 w , ; ; 1 6 . 6 c T C c C u...X.f.X.q.L Q m 9.F - 6 6 l #.#.F V V z k 9 j g M.b.H.=.c a d l p $ @ i ",
"y p q 6 r V g.y.=.w.p - 6 p a j E x f f O 2 c K N B N j a N N j j Z ^ m ,.m ; * e j V m m b x l k j j 7 2.d.Q z p z l 4 - u a @ ",
"= & @ u w.w.6.=.B.m.p 4 c ` V w.#.,.M ^ 7 7 M M c ` N i w i p a r j M F R g * : g v m x j x l h g k j 7 Z ,.r h u p l y , m g.d ",
"l , @ l y.#.n.F.D.m 4 w :.g.=.) m R x 9.f f T c B ` z w i i p d g g x ^ x * * x c B c l h l l h g k j r r #.u l z u d q $ - p a ",
"r t 2 r x M ,.,.x.7 5 Z d.d.d./ ( ^ x Z 6 7 / m m x r r d u t d h x c m e X 2 ,.E E m l l h l h h f k x 1 x n b l l 3 O @ 1 6 : ",
", : 5 x m f g f c 4 j V.d.) d. .| ( Z g * r F F V h y u l u u d r Z Z f * * h R #.E c z h h l l x f h M = q d u t q O % m g.M j ",
"M e : l T f g B 7 r } D.f.| u.p.K k A 9 * j V V m p u u s u l f h Z j 6 * 6 F m E E F x l h h l x n f M q % 3 3 t % # n m.m.<.M ",
"R h 6 f Z x g 6 4 k x.x.d.j.p...) k ) 8 % c x C d u u u q s v f T c 7 1 : r #.F E Q E m x h l l l M u n u o < # # O l Z.r.<.N.0."
};