/* XPM */
static char *a261d7a22c67411da356e1c64e455c456wDcE36soojrJhN2[] = {
/* columns rows colors chars-per-pixel */
"64 64 124 2 ",
"   c None",
".  c #FD0001",
"X  c #EF4C07",
"o  c #EF4408",
"O  c #EF4C08",
"+  c #F14207",
"@  c #F14C07",
"#  c #F04508",
"$  c #F04B08",
"%  c #EF5007",
"&  c #EE5409",
"*  c #F15207",
"=  c #F05508",
"-  c #E5650D",
";  c #E56B0D",
":  c #E5710D",
">  c #EC8707",
",  c #EE8A07",
"<  c #E3850B",
"1  c #EB8608",
"2  c #E6890D",
"3  c #EE8C09",
"4  c #F18D07",
"5  c #FD8F01",
"6  c #F18D08",
"7  c #E5970E",
"8  c #E59C0E",
"9  c #FD9301",
"0  c #FD9201",
"q  c #FE9200",
"w  c #FF9200",
"e  c #FE9201",
"r  c #FE9301",
"t  c #FC9002",
"y  c #FD9002",
"u  c #FC9102",
"i  c #FD9102",
"p  c #FC9003",
"a  c #FD9003",
"s  c #FC9103",
"d  c #FE9002",
"f  c #FE9102",
"g  c #FC9202",
"h  c #FD9202",
"j  c #FC9302",
"k  c #FD9302",
"l  c #FC9203",
"z  c #FD9203",
"x  c #FC9303",
"c  c #FE9202",
"v  c #FE9001",
"b  c #FE9001",
"n  c #E7A60E",
"m  c #E4AC0F",
"M  c #E6AC0E",
"N  c #E6AF0F",
"B  c #E5AE0F",
"V  c #EFAF08",
"C  c #F1AF07",
"Z  c #F1AB09",
"A  c #F0AB0A",
"S  c #F1AC0A",
"D  c #F1AD09",
"F  c #EFB209",
"G  c #EFB009",
"H  c #F1B008",
"J  c #F1B209",
"K  c #F0B309",
"L  c #F1B309",
"P  c #F0B20A",
"I  c #F1B30A",
"U  c #F0B408",
"Y  c #F1B408",
"T  c #F0B509",
"R  c #F1B509",
"E  c #F1B609",
"W  c #F2B608",
"Q  c #F1B509",
"!  c #F1B908",
"~  c #F0B809",
"^  c #F0B909",
"/  c #E59E3C",
"(  c #F1D70B",
")  c #F1D809",
"_  c #F2D809",
"`  c #F1D80A",
"'  c #F3D809",
"]  c #FCE103",
"[  c #FDE103",
"{  c #FEE102",
"}  c #FEE103",
"|  c #FDE302",
" . c #FDE203",
".. c #FCE303",
"X. c #FDE303",
"o. c #FEE202",
"O. c #FFE202",
"+. c #FEE302",
"@. c #FEE303",
"#. c #FCE204",
"$. c #FEE203",
"%. c #E4A348",
"&. c #E4A249",
"*. c #EEAF59",
"=. c #F0AE56",
"-. c #EFB15C",
";. c #F0B057",
":. c #EFB464",
">. c #EFB465",
",. c #F2B769",
"<. c #F1B86C",
"1. c #F0B96D",
"2. c #F1B96D",
"3. c #F1C361",
"4. c #F1C262",
"5. c #EFC07F",
"6. c #F0C07F",
"7. c #F1C17F",
"8. c #EFC385",
"9. c #F0C180",
"0. c #F1C180",
"q. c #F0C181",
"w. c #F0C384",
"e. c #F2C992",
/* pixels */
"                                                                                                                                ",
"                                                                                                                                ",
"                                                                                                                                ",
"                                                                                                                                ",
"                                                                                                                                ",
"                                        i 5 i 5 4 i i i i 4 5 i i i 4 i i 5 i 4 i 5 i 5                                         ",
"                                        i 5 5 i 4 i i 5 5 4 5 5 5 i 4 5 i 5 i 4 5 i i 5                                         ",
"                                        5 i i i 4 i 5 i i 4 i i i 5 4 i 5 i 5 4 i 5 i i                                         ",
"                                        i 5 i 5 4 z 5 i i 3 i i i 5 4 z 5 i i 4 5 z z 5                                         ",
"                                      *.4 4 4 4 2 4 4 4 4 2 4 4 4 4 2 3 4 4 4 2 3 6 6 6 =.                                      ",
"                              i 5 i 5 4 z i 5 i 4 5 i 5 5 3 5 i z 5 4 5 i i i 4 z 5 a z 4 5 i i i                               ",
"                              i i 5 i 4 5 i i 5 6 5 5 i i 4 i 5 5 5 4 z 5 i 5 4 5 5 z 5 4 i i 5 i                               ",
"                              i 5 i 5 4 i 5 i 5 4 z 5 5 i 4 5 i i 5 6 z 5 i 5 4 z 5 i 5 4 i 5 i i                               ",
"                              5 5 5 5 4 i i 5 i 6 z i i 5 4 5 i 5 z 6 5 i 5 5 4 i 5 5 5 4 5 i 5 5                               ",
"                            e.0.0.7.0.%.4 4 4 4 2 4 4 4 4 2 4 4 4 4 2 6 4 4 4 2 6 4 4 4 2 4 4 4 4 =.                            ",
"                    i i i 5 2.        w.5 5 5 i 4 5 i 5 i 4 5 5 5 i 4 5 5 i 5 4 5 i 5 z 4 5 5 z i 4 i i i i                     ",
"                    i 5 i 5 2.        w.5 i 5 i 4 i i 5 i 4 5 i 5 i 4 i i 5 5 4 5 i i 5 4 i 5 i 5 4 5 i i i                     ",
"                    i i 5 5 2.        w.5 5 i 5 4 i i i 5 4 i 5 i i 4 i 5 i i 4 i i 5 i 4 5 i i i 4 5 i 5 i                     ",
"                    i i i 5 <.        8.5 i i 5 4 x i i i 4 i i 5 i 4 k i i i 4 5 i i 5 4 5 i 5 i 4 i 5 i 5                     ",
"                  -.4 4 4 4 / 1.w.0.w.&.4 4 4 4 ; @ @ @ @ ; 3 4 4 4 ; @ @ @ @ - 4 4 4 4 2 4 4 4 4 2 4 4 4 4 ;.                  ",
"          5 i i i 4 t i 5 5 4 5 5 5 5 4 5 5 i i $ . . . . + i 5 i k @ . . . . + i 5 i i 4 5 i 5 5 3 i 5 i 5 4 i 5 i i           ",
"          i i 5 i 4 i 5 i 5 4 z 5 i 5 4 5 i i i $ . . . . + i i 5 i @ . . . . + z i i 5 4 i 5 i i 4 i 5 5 i 4 5 i i 5           ",
"          5 5 i i 4 i 5 i 5 4 5 5 i 5 4 i i i i $ . . . . + i i i k @ . . . . + i 5 5 i 4 5 i i i 4 i i i i 4 i 5 i i           ",
"          i i 5 5 4 i i 5 i 4 i i 5 i 4 5 i i i $ . . . . + i i i k @ . . . . + i i i 5 4 i 5 i 5 4 i 5 i 5 4 5 i 5 i           ",
"          4 4 4 4 2 4 4 4 4 2 4 4 4 4 2 4 4 4 4 ; @ @ @ @ ; 4 4 4 4 ; @ @ @ @ - 4 4 4 4 2 4 4 4 4 2 4 4 4 4 2 4 4 4 4           ",
"          5 i i z 4 5 z 5 i 4 i 5 i 5 4 5 i i i 4 k k k i 4 i 5 i i 4 i i k k 4 5 i i i 4 i 5 i 5 4 i i z 5 4 i i i i           ",
"          i 5 i z 4 z 5 5 i 4 5 i 5 i 4 i 5 5 i 4 5 i i 5 4 i i i i 4 i 5 i i 4 5 i 5 i 4 i 5 i i 4 i 5 5 i 4 5 5 5 i           ",
"          i i 5 i 4 5 i i 5 4 z i i 5 4 5 i i i 4 i i i i 4 i i i 5 4 5 i i i 4 i 5 i i 4 5 i 5 5 4 5 i i 5 4 5 i i 5           ",
"          i 5 i z 4 5 i 5 i 4 5 5 i 5 3 i i i i 4 i i 5 i 4 i i i i 4 i i 5 i 4 s i i i 4 i i 5 i 3 i 5 i 5 4 5 5 z i           ",
"          4 4 4 4 2 4 4 4 4 2 4 4 4 4 ; o + + + ; 4 4 4 4 ; + + + o ; 4 4 4 4 - o + + + - 4 4 4 4 2 4 4 4 4 2 6 4 4 4           ",
"          5 i i 5 4 z i 5 5 4 5 5 i i * . . . . + i i i i @ . . . . + i i i k * . . . . o z 5 i i 4 z 5 i 5 4 i 5 i 5           ",
"          i i 5 i 3 z 5 i i 4 i i 5 i @ . . . . @ i i i i * . . . . @ i 5 i i * . . . . # i i i 5 4 i 5 i 5 4 5 i 5 i           ",
"          5 i i z 4 i 5 5 i 4 i i i i % . . . . @ i i i i * . . . . + k i i i * . . . . o k i 5 i 4 i 5 i i 4 i 5 i 5           ",
"          i i i s 4 5 z i 5 4 i i i k O . . . . @ i 5 i k % . . . . X k i i i * . . . . o x i z 5 4 5 5 5 i 4 5 i 5 z           ",
"          4 4 4 3 2 4 4 4 4 2 4 4 4 6 : O @ @ @ ; 4 4 4 4 : @ @ O O ; 4 4 4 4 ; @ @ @ @ ; 3 4 4 4 8 Y Y Y Y 8 4 4 4 4           ",
"          i 5 i z 4 5 i i i 4 5 5 i i 4 k k k i 4 5 i i i 4 i i i k 3 i i i i 4 k k k i 4 i i i 5 Y X.o.X.X.Y i 5 i i           ",
"          i i 5 i 4 i i i i 4 i i i 5 4 i 5 i 5 4 i 5 i i 4 5 5 5 i 4 i i 5 i 4 5 i 5 i 4 i i 5 5 H o.o.o.o.Y i 5 i i           ",
"          5 5 i i 3 i i 5 i 4 5 5 i i 4 i 5 5 i 4 5 i 5 5 4 i i i 5 4 i i i 5 4 i i i 5 4 i 5 i z Y o.o.o.o.Y 5 i i 5           ",
"          i 5 i i 3 i 5 i 5 4 5 i 5 5 4 i i i i 4 i i i i 4 i 5 i 5 4 i i i i 4 t i i i 4 5 i 5 5 P @.o.@.o.Y 5 5 i z           ",
"          4 4 4 4 2 4 4 4 4 2 4 4 4 4 2 4 4 4 4 ; + + + + - 4 4 4 4 ; + + + + - 4 4 4 4 2 4 4 4 4 m ( ( ( ( N 4 4 4 4           ",
"          i i 5 i 3 i i 5 i 4 i 5 i i 4 i i 5 i X . . . . o i i i i @ . . . . + i i 5 i 4 5 i i z H @.o.o.o.Y 5 i i 5           ",
"          i 5 i i 4 i i i 5 4 5 5 i i 3 5 t t t O . . . . + i i i i @ . . . . + i 5 5 i 4 i 5 i 5 H o.o.o.X.W 5 i 5 i           ",
"          i i 5 i 3 i 5 i 5 4 i i i 5 1 4 , , 4 O . . . . + i i i k @ . . . . + i i i 5 4 5 i i 5 H o.o.o.X.W i 5 5 i           ",
"          5 i i i 4 i i 5 i 4 5 5 i i , 4 t 4 t O . . . . + i i i k @ . . . . + i 5 i i 4 5 5 5 5 Y @.o.o.o.Y 5 i i i           ",
"                  :.4 4 4 6 2 1 1 3 3 2 4 1 3 3 ; & & & = ; 4 4 4 4 : = = = = ; 4 4 4 4 8 ! ! ! ~ m V A Z Z 3.                  ",
"                    i 5 5 5 6 , , 1 2 < , 1 1 1 < , 4 3 t 4 5 i i i 4 i k k i 4 i i i 5 H o.@.o.@.P 5 5 5 5                     ",
"                    5 i 5 5 4 4 5 4 5 1 5 5 5 4 3 5 5 5 i 4 i 5 i i 4 i i i i 4 i 5 i 5 C o.o.o.@.I 5 5 5 i                     ",
"                    i 5 i i 4 i i 5 i 4 5 i 5 5 3 5 i i i 4 5 i i 5 4 5 i i i 4 5 i 5 5 C o.o.o.@.H 5 5 i i                     ",
"                    i i 5 i 4 i 5 i i 4 5 i i 5 4 i 5 i 5 4 i 5 i z 3 t 5 5 5 4 5 i 5 5 G @.o.X.@.I z z i i                     ",
"                            <.4 4 4 4 2 3 4 4 4 2 4 4 4 4 2 4 4 4 4 8 ~ ! ! Y N F ! Y ! N Z H Z D 4.                            ",
"                              5 5 i 5 4 i i 5 i 4 5 i i i 4 i 5 i 5 H @.@.o.o._ @.@.o.X.Y 5 5 5 5                               ",
"                              i i 5 i 4 i 5 i 5 4 i i 5 5 4 i i 5 5 H @.o.o.o.' @.@.o.o.Y 5 i 5 i                               ",
"                              i i i 5 4 5 i i 5 4 i 5 i i 4 i 5 i 5 H o.o.o.o.( @.X.X.X.Y 5 i i i                               ",
"                              5 5 i i 4 i 5 i i 4 i i 5 5 4 5 i i 5 G ] o.o.@.( ' X.o.o.Y 5 i 5 i                               ",
"                                      :.4 4 4 4 2 4 4 4 4 2 4 4 4 4 7 Z Z Z Z n Z Z Z Z 3.                                      ",
"                                        i 5 5 i 4 i 5 i 5 4 5 i 5 i 4 5 5 5 5 4 5 5 i i                                         ",
"                                        i i i 5 4 5 i i i 4 i 5 i 5 4 5 5 5 i 4 i i 5 i                                         ",
"                                        i i i i 4 i 5 i 5 4 5 i i i 4 z i i 5 4 5 i i 5                                         ",
"                                        i i i z 4 z z z i 4 z z i z 6 z z z i 4 z z i i                                         ",
"                                                                                                                                ",
"                                                                                                                                ",
"                                                                                                                                ",
"                                                                                                                                ",
"                                                                                                                                "
};
