/* XPM */
static char *_954902edcd14862887a994c1d7ece5f0rfnSmdybwlmH8Wx[] = {
/* columns rows colors chars-per-pixel */
"64 64 152 2 ",
"   c #060603",
".  c #0A0B06",
"X  c #0E0E0D",
"o  c #100F0D",
"O  c #11120F",
"+  c #151514",
"@  c #181715",
"#  c #171813",
"$  c #191916",
"%  c #1D1D1B",
"&  c #201F1C",
"*  c #1F201B",
"=  c #21211E",
"-  c #242423",
";  c #282724",
":  c #272823",
">  c #292926",
",  c #27282A",
"<  c #2C2C2B",
"1  c #312E2C",
"2  c #2F302C",
"3  c #31312E",
"4  c #2F2F31",
"5  c #2F3130",
"6  c #343433",
"7  c #383735",
"8  c #373834",
"9  c #393936",
"0  c #363639",
"q  c #3C3C3B",
"w  c #403E3E",
"e  c #41413E",
"r  c #3F3F41",
"t  c gray28",
"y  c #464646",
"u  c #454545",
"i  c #434343",
"p  c #484745",
"a  c #464847",
"s  c #464847",
"d  c #484846",
"f  c #494947",
"g  c #494946",
"h  c #464648",
"j  c #494748",
"k  c #474948",
"l  c #474948",
"z  c #484848",
"x  c #494949",
"c  c #4A4A48",
"v  c #4B4B49",
"b  c #48484A",
"n  c #49494B",
"m  c #494B4A",
"M  c gray29",
"N  c #4B4B4B",
"B  c #4A4C4B",
"V  c #4B4B4D",
"C  c #4C4C4C",
"Z  c gray30",
"A  c #4C4E4D",
"S  c #4E4E4C",
"D  c #4C4C4E",
"F  c #4E4E4E",
"G  c gray31",
"H  c #4B4C4B",
"J  c #4F504B",
"K  c #51514F",
"L  c #51514E",
"P  c #4F4F51",
"I  c #4F5150",
"U  c #505050",
"Y  c #515151",
"T  c #525250",
"R  c #535351",
"E  c #535250",
"W  c gray32",
"Q  c #535353",
"!  c #555553",
"~  c gray33",
"^  c #555555",
"/  c #575654",
"(  c #565656",
")  c gray34",
"_  c #545453",
"`  c #585755",
"'  c #595957",
"]  c #565658",
"[  c #565659",
"{  c #585858",
"}  c gray35",
"|  c #5A5A58",
" . c #5B5B59",
".. c #58585A",
"X. c #5A5A5A",
"o. c #5B5B5B",
"O. c #5C5C5A",
"+. c gray36",
"@. c #5D5D5D",
"#. c gray37",
"$. c #5F5F5F",
"%. c #5C5C5B",
"&. c #5E605F",
"*. c #60605E",
"=. c #61615F",
"-. c #5E5E60",
";. c gray38",
":. c #606060",
">. c gray39",
",. c #656565",
"<. c #676765",
"1. c gray40",
"2. c #646463",
"3. c #696966",
"4. c #676769",
"5. c #686868",
"6. c DimGray",
"7. c #6A6A6A",
"8. c gray43",
"9. c #6C6C6B",
"0. c #706F6D",
"q. c #6E706F",
"w. c #70706E",
"e. c #71716F",
"r. c #757575",
"t. c #767676",
"y. c #747474",
"u. c #797977",
"i. c #787876",
"p. c gray47",
"a. c gray48",
"s. c #7B7B7D",
"d. c #7D7D7D",
"f. c #7B7B7B",
"g. c #7E807F",
"h. c #81817F",
"j. c #7F7F81",
"k. c #818181",
"l. c #808082",
"z. c #838383",
"x. c #848484",
"c. c #838483",
"v. c #868887",
"b. c #878789",
"n. c #8B8B8B",
"m. c #91918F",
"M. c #8F9190",
"N. c #939393",
"B. c #959595",
"V. c #939392",
"C. c #9B9B9B",
"Z. c gray63",
/* pixels */
"< = % & > 6 7 6 6 & $ # > > > - @ O $ , 6 4 4 4 - @ 7 X.~ +.>.C < 4 4 - $ = r 5 - 6 g ! B e r 0 6 , > > $ > q i e 0 h i 5 , - 3 ",
"$ & , 0 q 0 0 7 q 0 < $ $ $ $ $ - % - < 7 0 0 0 - @ 3 X.1.o.+.~ 0 < 6 6 - - o.4.E > 6 L C i 7 < , > 6 - % 0 V N i J ~ H r < % - ",
"- 5 r i q 0 q i q k y > * % - - % - - < 7 0 0 6 < * 2 g Y i H +.X.q 7 6 & % 4.b.q.Y - 4 y 0 6 > & - > - - 8 b I H I k i v q = % ",
"< q V V y i y N Y ~ a > $ + - , - , , 7 r q 6 5 7 - > q C C C ~ X.N q 6 , % 7.s.i.X.i - % 6 < - & - - % % < 0 H B q 5 0 y i ; = ",
"6 i V y y N ~ -.&.X.u = $ $ , 6 6 4 6 q g q 6 7 q > - q N ` ~ Y C +.~ k r % P 4.;.o.i 7 - $ - % & - - % + , 7 i a 0 6 6 7 q < & ",
"q P Y y y C +.y.>.` q * * < r N V q 0 i N e 0 i 0 - % e V X.+.+.X.;.X.Y b $ 0 ~ C b i 0 0 =   % % % + % @ , 4 i a r i 0 0 y 6 # ",
"0 ~ o.Y Y ~ X.+.7.N < # % - q X.] V y N i 0 8 w > $ @ 7 +.q.7.;.+.X.Y P i & 6 V N i q y 0 - = @ + X X + @ & , r a i i 0 i i 1 % ",
"0 Y ~ C Y X.~ +.` 3 = < 2 $ > C ] V N b 8 < = % % * % % C +.;.:.+.+.-.] r $ > r i N y q q < % - + % % + + , 4 6 q q q q w 3 & ; ",
"> < q Y ! y N i - 2 0 i y r - % < : : % $ : 3 i w q q 6 - p ` K Y ! C e - % = 8 E j i y w 6 < 6 & @ ; > & % = > 2 2 2 < * = > > ",
"$ @ $ & > - - $ 6 y N N C ~ 7 = = % : < u O.*.1.<...` #.i = 1 9 6 < - - = - % = i Y P C g q 6 % & @ = 1 - @ O @ + + $ * * = : = ",
"> - = % % = % - i c J ~ ~ Y 0 - % 7 j E 3.a.t.t.k.d.t.u.<.; & % & = 3 e i i 6 6 : i L X.! i q > & @ = - = > - - 5 8 q q 3 - * * ",
"< 7 7 < = - $ > e i J o.Y y 8 = & V 1.6.i.k.a.s.k.B.V.x.0.6 = & > 6 y B C ! ~ -.i - < i q 6 3 $ & - 1 4 6 w 0 6 9 s ^ ^ e - $ * ",
"6 6 6 7 > - $ - 8 i Y X.Y C i - , ` 6.9.p.b.b.z.n.m.m.n.y.7 $ 1 i q i 0 i J ] ;.*.C - + < > O 6 r w i j k i 0 7 9 q C +.J < % < ",
"q 7 6 q i 0 , - q q i C X.! C > 7 :.8.8.j.n.n.n.V.k.k.z.e.7 & e C i 0 6 q k U X.*.` C > $ = 6 ~ -.-.+.W P k 0 9 5 6 r C i % $ 3 ",
"r 7 6 q i 7 < & 6 6 7 y X.~ L > 6 =.a.l.l.b.m.n.k.j.b.a. .= 3 ` X.j r 6 6 7 y ~ C ~ ~ i - - i ] ,.8.9.;.+.Y q < , < 0 q 7 % % 9 ",
"q q i k i 6 6 - - 8 0 q Y +.~ = 9 <.z.m.M.b.z.t.k.k.z.7.v $ q Y X.C C q 0 6 6 q g ~ O.1.q - C 9.y.8.9.;.:.H 0 6 , , - < < & % 3 ",
"i k U U N r 7 4 = 8 q r I C ! = q q.v.m.h.x.d.v.n.i.a.O.3 - < N ..V P N q q 8 0 i Y *.t.e.> E 3.9.9.9.;.E j r 7 4 > - - - & @ 0 ",
"0 C ~ Y U Y N i = 8 J N P C e = 9 3.g.i.u.h.h.x.n.k.3.6 + + % i N b i Y +.C q 0 b i y.a.u.=.w 3.4.=.-.;.` j q 0 q 4 - - & $ % 0 ",
"k V Y ..X.o.~ C > > J L ! v 3 # = J =.0.e.y.i.v.p.~ < @ $ % @ - r C v ;.y.X.b r k ~ 2.0.0.0.7 e +.E Y ..~ V N C i q < > % + - 3 ",
"b b P +.4.7.;.] 8 = 3 3 6 > % * = = 2 e / *.O. .r & @ & = - % $ > N +.y.d.7.o.C i +./ #.*.=.w ; r r j V j N v C j r 7 < $ $ > 8 ",
"9 a ` ;.7.4.X.i < * - : = $ - 4 > = : = = = > $ $ $ , > = - - % $ 3 O.a.x.h.3.X.V C ;.+. .E 3 & - < 0 w i u j j y 6 6 > % - & - ",
"> 0 C +...N 7 > $ = : > = > w r E  .7.O.8 & = = , 6 4 , , - % - - % 6 Y ;.3.~ C i 6 g i e 3 > & % @ @ 1 1 4 6 w 0 - = # $ > - - ",
"- % - < > $ + % > > = = % 1 V Q 0.t.x.x.w.3 $ : 0 q 0 6 4 = & 4 6 % @ = 3 3 > > = $ % % = & 1 1 > & @ @ @ & & & + % 0 C ! ~ i < ",
"J q > * % * > 7 i 0 8 > % = r -.y.x.v.d.y.8 % 3 b r 0 6 , , 6 < < 6 % % > $ + + + % @ o O ; - - - > 1 - & ; - & 0 Y e.h.x.i.7.X.",
"1.9.+.< % , , 0 i q 0 7 , % 4 [ 1.7.h.y.7.> = r i r 0 0 2 < 7 0 7 6 - $ % $ - - = % + + X % % > q a y w 1 = & 1 ;.t.k.x.n.n.s.7.",
"q.c.k.~ % , 6 q q 6 < 7 r , - , y y O.! q - - 5 i r q 0 q 0 q q r 7 % $ = > 0 , , = % X . + , 0 N I Y Y C q & 9 <.d.x.k.s.t.y.y.",
"7.d.f.;., < 0 6 6 , < 6 4 , % @ = > : = * * % 9 i i e q q y B B y < % % - , 6 4 4 - % + X - 4 r B Q X.! ! v @ w 1.t.a.d.d.a.y.9.",
"N ;.1.X., - 7 6 , , < 6 , % % @ = = $ = > : @ > q y B y e i g B q - $ - - & , 0 4 - $ @ - 4 0 r B ^  .! C g % p 1.4.9.0.t.t.1.~ ",
"r ~ ~ C q & , , - - , 1 , % @ O * * 8 e ` R 9 * - 7 i e q e i u , $ - < , - > 6 9 % @ % 6 q r B J I I ..g 8 = q X.;.+.Y ~ ;.X.C ",
"a C N i b % & - , - - , - % @ + o = L 3.g.i./ : @ = > > > < 2 2 % - 5 7 4 0 7 4 5 $ % 6 y e r I B i i ~ i - % ; y C N 0 i Y ~ Y ",
"e y N i 0 $ % , , , - & = % % % # > O.y.h.3.g 2 * = * * # $ $ $ $ < i q 0 i 0 > * % 6 e H i r i s i i k q = % - q y r 7 q N C y ",
"k y q i q , - - , - % & , , % % # # ` h.0.c q > $ * = = = = = = % 6 P b b i 6 , @ > q 9 i N i 6 0 s k 4 > $ % - 0 q q 7 0 q i i ",
"6 q e q q < - , 6 % % , , - - % + $ O.t.1.C 6 = - 6 0 9 0 0 6 - $ 8 ` K p q : O $ % 5 0 q i r 6 6 6 3 = % % % $ < q q 7 0 q q 9 ",
"< 6 6 0 e 3 % % - 4 6 4 , , - % X * L O.L 7 > 6 q q q 0 r y q < % - e v q > : 9 6 > , - - - > < < > < 3 < - : > > < < 6 q q 0 6 ",
", < 4 0 y 7 = % , q 0 > 4 4 % X .   < 7 - 6 y y r 7 7 0 q y i 6 $ = = = = 6 a C i 0 0 > % + , 0 i q q q 0 6 0 q < * * < 9 9 9 2 ",
", > > > 6 , $ @ % 6 r r 0 6 - @ . % > $ > q V P 0 < < 7 7 0 i 0 = % % > q V ~ ~ C V Y q - , 0 V C C N 8 5 7 q b e = % : : = > > ",
"$ $ @ % - < < - & - 0 y 0 > @ . . > 2 $ 6 i i b 0 < 4 7 4 4 0 r = * - y ~ P ~ [ Y N y e - 7 i i i b i 0 0 r C ~ J > % * # + $ # ",
"$ @ + - 7 y b r 0 - - - = @ @ @ = = = * 3 q y i 9 < 5 q 0 , < 6 - 1 8 q V Y P i i 0 q 0 - r k q 0 7 6 6 0 V ! ` N > % - : > > * ",
", & % 4 i N N y L q - $ = 3 v O.C i < * 6 8 0 q < > 5 0 4 - % - < 6 q y P ~ b 0 6 7 r 5 , r y q 7 < - , 6 0 b N 9 > - 6 q N y 6 ",
"< % % < q N ~ -.*.C > % e 7.i.t.9.Y N 8 > < q > , , < 6 , $ $ , 6 6 0 6 q C V y q w q % 6 0 q 6 , - - - - 6 0 0 > , 5 q N ~ ~ i ",
"0 % = > 6 b X.+.<.O.> 6 3.a.d.a.y.Y y C 7 % = % $ @ = & = - % = , 0 6 6 8 C N r N 7 5 @ 3 0 0 0 4 4 - - - 1 1 - - 4 6 b I ~ ~ ~ ",
"e % $ - > 0 N ~ ;.<.1 q 9.n.x.y.2.+.X.X.q - & % @ + + + % = $ $ - , 3 q i C N y 6 > - % 3 y y q 0 < - < 6 w > % 6 i j P ~ X.X.X.",
"q $ + - > > 0 L  .*.> C d.n.v.a.y.y.1.+.p - % - + @ - < , > = % $ $ - 3 3 3 , > = * $ * = 3 6 3 - - > 1 1 > & < q k U U +.+.o.~ ",
"q = $ - < 6 0 y J L = O.n.V.x.d.t.d.e.;./ 3 @ $ $ , 7 7 0 6 6 6 > * * = * $ $ @ $ % = - * # # = % @ $ & & - $ 6 y k U ~ 1.1.;.X.",
"i - % > 6 6 6 q w t = 2.n.C.n.x.a.b.t.#.L 7 & & 4 7 q r i y y N y 7 : % * = - - 3 8 i e e 8 : = % $ = = & - % q L C Y X.1.>.-.X.",
"J - % 6 0 6 < 0 w q ; e.m.C.m.V.B.m.a.#.p > & 7 7 i N P Y ~ ;.1.;.Y 6 $ = > 6 5 q e N i L B > # > 8 g e 1 & & w ~ X.+.+.>.+.X.X.",
"C % % 7 q 0 7 0 w < > r.m.C.m.B.C.n.k.7.e & & q q C U ~ X.;.a.h.a.7.i % % = < 6 e q i i C C : 8 +.O.*.*.p > & < N Y X.-.;.+.X.X.",
"q $ % 9 y N i 0 1 - > 7.b.Z.B.n.x.z.d.E ; & - 3 C ~ X.6.t.a.k.a.j.t.B $ $ $ - 7 q 6 9 r i y 3 7.k.e.>.2.V < % = > 0 y Y ~ O.Y N ",
"> = * 2 i g i i 8 = - ..a.n.n.v.i.h.` - $ - @ - V +.y.q.n.n.h.i.i.3.C - @ + % < 9 2 7 q u : J h.n.d.f.;.g > $ > % + $ < 0 w i < ",
": = = > e C g e 7 - * 0 ~ t.t.1.=.q > g L 0 i - 0 +.9.a.y.n.n.d.i.` - $ % X % % > 6 6 q q : *.h.f.B.q.1.C - q y i 8 - + % - - < ",
"= = $ $ - > < < - - - > 3 e i 6 = 6 3.=.X.+.;.+.6 6 #.d.h.y.e.i.g 3 e a N 8 % $ @ - : 3 > 3 e.y.a.n.j.*.8 6 ! X.` U y 6 = = % = ",
"e q q 8 < % $ = = = * % + # * * : =.0.2.1.9.1.8.7.g - t L ~ L < 7 O.a.y.9.;...< % O * = # i =.0.y.a.a.P - B C ! ] ~ ~ N : = = 2 ",
"O.<.9.q.O.q - % = % $ * : = = = 8 *.7.2.2.e.e.f.e.h.K $ = > - y 9.t.x.x.t.*.;.~ 0 + * = # e =.0.<.9.+., t i C y Y +.L i 2 O 2 v ",
"1.i.g.t.9.` 9 % + @ % < e q 3 : = C O.` 2.0.x.h.h.d.e.q % % ` 7.a.d.n.a.q.y.;.X.k - = > = 8 ' =.2.O.< 7 i U e 0 y L C e 3 $ e ! ",
"y.f.a.4.*.! 8 % @ % > 6 e 0 e i 1 < L L +.<.7.m.m.x.h.t @ Y y.d.d.k.a.p.t.&.>.` e 2 * = = = q C L < > 8 0 C 7 7 0 q q 6 $ 3 3.=.",
"a.j.a.,.~ i < & $ % < 8 i 9 q C C 6 - L 2.t.n.B.n.n.x.g 6 1.k.n.n.a.y.1.1.Q i e e 2 $ = = # = 3 - $ > > w 0 6 0 3 q 3 % # J e.w.",
"d.d.p.7.~ q , % + - < 8 r q N C ` ` 2 8 =.f.m.m.N.h.d.q i s.n.n.M.v.q.1.+.i i C 8 * * > 2 % $ = @ % > , 6 0 3 < 7 2 7 % % 1.f.a.",
"y.b.V.a.o.r 4 % $ - - 2 i N +.+.=.=.O.= J y.h.x.x.z.2.< E d.z.V.n.g.y.1.J I ..0 = = 3 q 0 > = : % - 6 6 6 0 < - , 6 0 $ > 9.k.a.",
"t.k.n.a.4.~ q - $ , > < i ~ 7.7.=.3.&.! = ` 0.f.i.e.8 $ X.t.x.M.n.c.q.+.v V y > 6 6 0 P I N 3 = O % 5 0 0 6 > < < 7 < $ 8 y.x.f.",
"t.j.z.4.>.Y i , @ , 2 6 q Y 1.q.9.3.9.K w = e K O.C > % i ` 4.9.y.9.` a w 3 > < i V ~ -.+.-.C q - $ - 7 0 7 3 8 q 7 - $ C 9.s.j.",
"0.a.a.+.-.] h - % < 8 6 q P ;.y.y.q.9.*.i ; $ 1 3 ; ; = - , 6 0 q 1 < 1 < % ; p C +.9.9.4.7.4.;.Y 2 % * 2 2 > 2 8 > * = &.e.y.t.",
"4.1.1.1.,.b 5 % % > 8 q j ~ X.+.3.=.<.=.j = - & = $ = % % @ X + + @ @ $ ; = 1 *.y.t.t.4.9.1.1.+.+.y 2 % # = * # * # * =  .y.t.9.",
"X.Y ! Y i & @ % $ % < 0 C Y N Y !  .i w w @ & ; > % % - > > & % + - & o ; 1 ; / t.t.y.2.] Y J P C a q > = = * = * # = = e ;.1.;.",
"y y 0 > & - - - $ + - 1 i N i C v > ; $ o ; & & = % > q q r r 1 < > - % & - & 1 Y X.` ` B N i i i 6 < > > = = 3 8 > 3 = 2 y N Y "
};