/* XPM */
static char *b53b714bc19341e2860e60eaa7ab2a36J7zFP5eAkw7sBJuS[] = {
/* columns rows colors chars-per-pixel */
"64 64 101 2 ",
"   c None",
".  c #EA351E",
"X  c #EC3B1B",
"o  c #E32627",
"O  c #E62C23",
"+  c #E12229",
"@  c #E73021",
"#  c #E83220",
"$  c #FB5E06",
"%  c #F6520D",
"&  c #F8570A",
"*  c #F95909",
"=  c #EF4217",
"-  c #EE4018",
";  c #F14514",
":  c #F34A12",
">  c #FF6700",
",  c #FF6A00",
"<  c #FF6E0D",
"1  c #FF7300",
"2  c #FF7D00",
"3  c #FF6F11",
"4  c #FF7113",
"5  c #FF761B",
"6  c #FF781F",
"7  c #FF7B24",
"8  c #FF7F2A",
"9  c #FF8400",
"0  c #FF8B00",
"q  c #FF8F08",
"w  c #FF9009",
"e  c #FF9514",
"r  c #FF9718",
"t  c #FF991E",
"y  c #FF802C",
"u  c #FF9D25",
"i  c #FF9F29",
"p  c #FF8433",
"a  c #FF8A3D",
"s  c #FFA22F",
"d  c #FFA537",
"f  c #FFA638",
"g  c #FFA83D",
"h  c #FF924B",
"j  c #FF9754",
"k  c #FF9956",
"l  c #FF9D5D",
"z  c #FFAA41",
"x  c #FFAE4B",
"c  c #FFB65A",
"v  c #FF9F61",
"b  c #FFA062",
"n  c #FFA164",
"m  c #FFA367",
"M  c #FFA063",
"N  c #FFA56A",
"B  c #FFB861",
"V  c #FFB861",
"C  c #FFBB68",
"Z  c #FFBB68",
"A  c #FFAF7B",
"S  c #FFB07E",
"D  c #FFC072",
"F  c #FFC277",
"G  c #FFC174",
"H  c #FFC379",
"J  c #FFC47A",
"K  c #FFC47C",
"L  c #FFC47A",
"P  c #FFB280",
"I  c #FFB281",
"U  c #FFB484",
"Y  c #FFB586",
"T  c #FFB688",
"R  c #FFB788",
"E  c #FFB98D",
"W  c #FFBB8F",
"Q  c #FFBC90",
"!  c #FFC5A0",
"~  c #FFC6A2",
"^  c #FFC7A3",
"/  c #FFC7A4",
"(  c #FFD1B3",
")  c #FFD2B5",
"_  c #FFD6BC",
"`  c #FFD6BD",
"'  c #FFD9C1",
"]  c #FFD9C2",
"[  c #FFDCC6",
"{  c #FFDECA",
"}  c #FFDFCB",
"|  c #FFE4D3",
" . c #FFE9DB",
".. c #FFEDE2",
"X. c #FFF4ED",
"o. c #FFF6F0",
"O. c #FFFAF6",
"+. c #FFFBF9",
"@. c #FFFCF9",
"#. c #FFFEFD",
"$. c white",
/* pixels */
"                                                    Z z u e q 0 0 w r u z Z                                                     ",
"                                            Z d r q 0 0 0 0 0 0 0 0 0 0 0 0 0 e g Z                                             ",
"                                        d w 0 0 0 0 0 9 9 9 9 2 2 2 9 9 9 0 0 0 0 0 q d                                         ",
"                                  L u 0 0 0 0 9 2 1 1 > > > > > > > > > > 1 1 2 9 0 0 0 0 u L                                   ",
"                                u 0 0 0 9 2 , > > > > > > > > > > > > > > > > > , 1 2 0 0 0 0 u                                 ",
"                            x 0 0 0 9 1 > > > > > > > > > > > > > > > > > > > > > , 9 0 0 0 0 0 0 x                             ",
"                          t 0 0 9 2 > > > 6 5 > > > > > > > > > > > > > > > > > , 9 0 0 0 0 0 0 0 0 t                           ",
"                        q 0 0 9 1 > > y E  .{ 7 > > > > > > > > > , > > > > > > 2 0 0 0 0 0 0 0 0 0 0 w F                       ",
"                      0 0 0 1 > > > p  .  #.o.p > > > > > > > > > > > > > > > , 0 0 0 0 0 0 0 0 0 0 0 0 0 B                     ",
"                    0 0 0 1 > > > $ h O.+.] v > > > > > > > > > > > > > > > > , 0 0 0 0 0 0 0 0 0 0 0 0 0 0 c                   ",
"                  0 0 9 , > < A ) h , k k 3 > > > > > > > > > > > , > > > > > 1 0 0 0 0 0 0 9 0 0 0 0 0 0 0 0 B                 ",
"                0 0 9 , > 5 ^ #.#.Q > > > > > > > > > > > > > > > > > > > > > 1 0 0 0 0 0 0 0 0 0 0 0 0 0 0 0 0 L               ",
"              q 0 9 , > 6 ) #.#.| a > > > > > > > > > > > > , > > > > > > > > 1 9 0 0 0 0 0 0 0 0 0 0 0 0 0 0 0 w               ",
"            u 0 0 1 > 5 ) #.#.` 8 > > > > > > > > > > > > > > > > > > > > > > , 9 0 0 0 0 0 0 0 0 0 0 0 0 0 0 0 0 u             ",
"            0 0 1 > 3 / #.#.) 6 > > > > > > > > > > , > > > , : $ > > > > > > > 2 0 0 0 0 0 0 0 0 0 0 0 0 0 0 0 0 0 x           ",
"          0 0 9 > > I #.#.` 6 > > > > > > > > > > > > > > > > # = > > > > , > > 1 0 0 0 0 0 0 0 0 0 0 0 0 0 0 0 0 0 0           ",
"        i 0 9 1 > h o.#.| 8 > > > > > > > > > > > > > > > > & + @ > > > > > > > > 9 0 0 0 0 0 0 0 0 0 0 0 0 0 0 0 0 0 i         ",
"        0 0 1 > 6 } #.X.h > > > > > > > > > > > > > > > > > = + o & > > > > > > > 1 0 0 0 0 0 0 0 0 0 0 0 0 0 0 0 0 0 0         ",
"      u 0 9 , >   #.#.I > > > > > > > > > > > > > > : # # # o + + @ @ # X % > > > > 2 0 0 0 0 0 0 0 0 0 0 0 0 0 0 0 0 0 u       ",
"      0 0 1 > y ..#.} 5 > > > > > > > > > > > > > > $ X + + + + + + + o : > > > > > , 9 0 0 0 0 0 0 0 0 0 0 0 0 0 0 0 0 0       ",
"    z 0 0 > >     @.l > > > > > > > , > > > > > > > , > = o + + + + O % > > > > > > > 1 9 0 0 0 0 0 0 0 0 0 0 0 0 0 0 0 0 g     ",
"    w 0 2 > 7     ] 4 > > > > > > > > > > > > > > > > > > @ o + + + ; > > > > > > > > > 1 9 0 0 0 0 0 0 0 0 0 0 0 0 9 2 0 w     ",
"  K 0 0 1 > m     m > > > > > > > > > > > > > > > > > , & o + o + + # > > > > > > > > > > 1 9 0 0 0 0 0 0 0 0 0 0 0 1 1 0 0 K   ",
"  z 0 9 > ,       7 > > > > > > > > > > > > > > > > > > = + # & : O o $ > > > > > > > > > > , 2 9 0 0 0 0 0 0 0 0 2 > > 9 0 z   ",
"  r 0 2 > 7     ^ > > > > > > > > > , > > > > > > > > > X = > > > $ # : > > > > > > > > > > > > 1 9 0 0 0 0 0 0 2 , > > 9 0 r   ",
"  q 0 1 > k     v > > > > > > > > > > > > > > > > > > > % , > > > , > % > > > > > > > > > > > > > > , 1 2 2 2 1 > > > > 1 0 0   ",
"D 0 0 , >       p > > > > > > > > > > % > > > > > > > > > > > > > > > > > > > > > > > $ * > > > > > > > > > > > > > > > 1 0 0 F ",
"x 0 0 , ,       3 > > > > > > > > > > # & > > > > > > > > > > > > > > > > > > > > > > = = , > > > > > > > > > > > > > > > 9 0 x ",
"s 0 9 > <       , > > > > > > > > > % + = > > > > > > > > > > > > > > > > > > > > > > @ O > > > > > > > > > > > > > > > > 9 0 s ",
"t 0 9 > 6       > > > > > > > > > > X + @ > , > > > > > > > > > > > > > > > > , > > % o + % > > > > > > > > > > > > > > > 9 0 t ",
"e 0 9 > 7     Y > > > > > * : : : = O + o = : : : & > > > , > > > > > > > , % : : : . + + # : : : % > > > > > > > > > > > 2 0 e ",
"w 0 2 > 8     I > > > > > > : o + + + + + + + o - > > > > > > > > > > > > > $ # + + + + + + + + O & > > > > > > > > > > > 9 0 w ",
"w 0 2 > 8     I > > > > > > > % @ + + + + + o : > > > > > > > > > > > > > > , > X o + + + + + X > > > > > > > , > > > > > 2 0 q ",
"e 0 2 > 7     R > > > > > > > > & o + + + + % > > > > > > > > > > > > > > > > , > X + + + + # > > > > > > > > > > > > > > 9 0 e ",
"t 0 9 > 6       > > > > > > > > % + + + + + : , > > > > > > > > > > > > > > > > > @ + o + + O > > > > > > > > > > > > > > 9 0 t ",
"s 0 9 > 3       , > > > > > > > - + @ : # + # > > > > > > > > > > > > > > > > > & o + = = o + % , > > , > > > , > > > > > 9 0 d ",
"x 0 0 > >       5 > > > > > > > @ X $ > > = o $ > > > > > > , > > > > > > > > > : O : > > % @ = > > > > > > > > > > > > > 9 0 x ",
"D 0 0 1 > U     p > > > > > > $ : > , > > > % % > > > > > > > > > > > > > > , > : $ > > > > $ : > > > > > > > > > > > > 1 0 0 D ",
"  0 0 1 > k     v > > > > > > > > > > > > > > > > > > > > > > > > > > > > > > > > > > > > > , > > > > > > > > > > > > > 1 0 0   ",
"  r 0 2 > 7     ~ > > > > > > > > > > > > > > > > > , > > > > : & > > > > > > > > > > > > > > > > > > > > > > > > > > > 2 0 t   ",
"  z 0 9 > ,       7 > > > > > > > > > > > > > > > > > > > > > @ : , > > > > > > > > > > > > > > > > > > > > > > > > > > 9 0 z   ",
"  K 0 0 1 > m     N > > > > > > > > > > > > > > > > > > > > % o @ > > > > > > > > > > > > > > > > > > > > > > > > > > 1 0 0 K   ",
"    w 0 2 > 7       3 > > > > > > > > > > > > > > > > > , , = + o * > > > > > > > > > > , > > > > , > > > > > > > > > 2 0 w     ",
"    z 0 9 > > Y     v > > > > > > > > > > > > > > > ; # # X o + + @ # # # % > > > > > > > > > > > > > > , > > > > > , 0 0 g     ",
"      0 0 2 > 8       5 > , > > , > > > > > > > > > > # + + + + + + + o : > > > > > > > > > > > > > > > > > > > > > 1 0 0       ",
"      u 0 9 > > S     S > > > > > > > > > > > > > > > > = o + + + + @ % > > > > > > > > > > > > > > > > > > > > > , 9 0 u       ",
"        0 0 1 > 5     Q > > > > > > > > > > > > > > > > > O + + + + = > > > > > > > > > > > , > > > > > > > > > > 2 0 0         ",
"        s 0 0 , > y b 6 > > > > > > > > > , > > > > > > & o + O o + # , > > > > > > > , > > > > > , > > > > > > , 0 0 s         ",
"          0 0 9 > > > > > > > > > > > > > > > > > > , > = o # % : O o $ , > > > > > > > > > > > > > > > > > > > 9 0 0           ",
"          x 0 0 1 > > > > > > > > > > > > > > > > > > > X = > > > $ # : > > > > > > > > > > > > > > > > > > > 2 0 0 x           ",
"            t 0 0 1 > > > > > > > , > > > > > > > > > > * > > > > > > & > > > > > > > , > > > > > > > > > > 1 0 0 t             ",
"              w 0 9 , , > > > > > > > > > , > > > > > > , > > > > > > > > > > > > > > > > > > > > > > , > , 9 0 q               ",
"              H 0 0 9 , > > > > > > > > > > > > > > > > > > > > > > > > > > > > > > > > > > > > > > > > > 9 0 0                 ",
"                B 0 0 9 , > > > > > > > > > > > > > > > > > > > > > > > > > > , > , > > > > > > > > > 1 9 0 0                   ",
"                  c 0 0 0 , > > > > > > > > > > > > > > > > > > > > > > > > > > > > > > > > > > > > 1 9 0 0                     ",
"                    B 0 0 0 2 > > > > > > > > > > > > > > > > > > > > > > > > , > > > > > > > > , 2 9 0 0                       ",
"                      L w 0 0 9 , > > > > > > > > > > > > > > > > > > , > > > > > > > > > > > > 2 0 0 w                         ",
"                          t 0 0 9 2 , > > > > > > > > > > > > > > > > > > > > > > > > > > , 2 9 0 0 u                           ",
"                            x 0 0 0 9 1 , > > > > > > > > > > > > > > > > > > > > > > , 2 9 0 0 0 x                             ",
"                                u 0 0 0 0 2 1 > > > > > > > > > > > > > > > > > > 1 2 9 0 0 0 u                                 ",
"                                  L u 0 0 0 0 9 2 1 1 > > > > > > > > > , , 1 9 9 0 0 0 0 u                                     ",
"                                        d q 0 0 0 0 0 0 9 9 9 2 2 2 9 9 0 0 0 0 0 0 w d                                         ",
"                                            F d e 0 0 0 0 0 0 0 0 0 0 0 0 0 0 e d D                                             ",
"                                                    Z z u r w 0 0 w e i z Z                                                     "
};
