/* XPM */
static char *_5d4959bed9b4218b55d107c5b7f9f596xxsAphQ0MefO4FF[] = {
/* columns rows colors chars-per-pixel */
"54 64 256 2 ",
"   c #030201",
".  c #0B0100",
"X  c #030A01",
"o  c #0C0B01",
"O  c #03010A",
"+  c #0D070B",
"@  c #130200",
"#  c #1A0200",
"$  c #130C00",
"%  c #1B0B01",
"&  c #160D0C",
"*  c #1C1301",
"=  c #181603",
"-  c #010012",
";  c #0A0212",
":  c #131211",
">  c #230000",
",  c #2A0201",
"<  c #230D00",
"1  c #3C0100",
"2  c #330300",
"3  c #231501",
"4  c #281706",
"5  c #351A00",
"6  c #281918",
"7  c #2D0D10",
"8  c #352704",
"9  c #262617",
"0  c #37271A",
"q  c #322E0C",
"w  c #070328",
"e  c #110D30",
"r  c #211B33",
"t  c #3A3838",
"y  c #322F28",
"u  c #1F203E",
"i  c #480401",
"p  c #431A02",
"a  c #560E0A",
"s  c #6E1D15",
"d  c #492900",
"f  c #552900",
"g  c #483705",
"h  c #583700",
"j  c #4A3518",
"k  c #692D08",
"l  c #463727",
"z  c #4B352F",
"x  c #79362C",
"c  c #574B08",
"v  c #554C12",
"b  c #6D5205",
"n  c #796308",
"m  c #5A533B",
"M  c #52492C",
"N  c #694728",
"B  c #675439",
"V  c #754F31",
"C  c #726637",
"Z  c #1A2144",
"A  c #2D3052",
"S  c #2D376D",
"D  c #423C6F",
"F  c #38417C",
"G  c #524C4C",
"H  c #675946",
"J  c #6A4F4F",
"K  c #6B6759",
"L  c #746C50",
"P  c #787568",
"I  c #716D71",
"U  c #5A496F",
"Y  c #840E0C",
"T  c #953828",
"R  c #8B3131",
"E  c #B93C31",
"W  c #882B15",
"Q  c #CD3833",
"!  c #ED3C32",
"~  c #8A5808",
"^  c #8B6905",
"/  c #957507",
"(  c #8C6F0E",
")  c #A77418",
"_  c #8A482B",
"`  c #8E7530",
"'  c #A75C26",
"]  c #D15136",
"[  c #E64539",
"{  c #F6463B",
"}  c #ED422E",
"|  c #D66C2C",
" . c #DD7218",
".. c #8C3E50",
"X. c #D53F43",
"o. c #EC3D42",
"O. c #B3574E",
"+. c #8A7152",
"@. c #BD5A71",
"#. c #887866",
"$. c #927870",
"%. c #A76F5B",
"&. c #D2514B",
"*. c #E84C48",
"=. c #EE5048",
"-. c #CD6454",
";. c #E16352",
":. c #B39616",
">. c #93822F",
",. c #AD8F2D",
"<. c #988312",
"1. c #C69119",
"2. c #D3AB13",
"3. c #EAB905",
"4. c #F7BC04",
"5. c #F6BC16",
"6. c #EFB318",
"7. c #FB9429",
"8. c #D1B12E",
"9. c #FCA326",
"0. c #EFB434",
"q. c #D39B2B",
"w. c #FBC607",
"e. c #EAC718",
"r. c #FBC717",
"t. c #FCD91E",
"y. c #EDC00B",
"u. c #E9C926",
"i. c #F7C927",
"p. c #FBD428",
"a. c #EAC738",
"s. c #F9C934",
"d. c #FAD938",
"f. c #EFD22C",
"g. c #FDE637",
"h. c #FFE528",
"j. c #FEE21F",
"k. c #918350",
"l. c #A7934E",
"z. c #B9A84E",
"x. c #9A8566",
"c. c #918674",
"v. c #A98865",
"b. c #AB9172",
"n. c #B0A07E",
"m. c #D0B04B",
"M. c #ECBC4F",
"N. c #C69A71",
"B. c #C4AB73",
"V. c #F4AE59",
"C. c #E9C845",
"Z. c #FACC45",
"A. c #F8D545",
"S. c #E5CA58",
"D. c #F1D550",
"F. c #FEE845",
"G. c #FFEB5B",
"H. c #FFF54D",
"J. c #E9D86F",
"K. c #FFEC65",
"L. c #FDF16E",
"P. c #D3CB6C",
"I. c #384BA0",
"U. c #374C9F",
"Y. c #475287",
"T. c #454A99",
"R. c #47569B",
"E. c #54558D",
"W. c #56649A",
"Q. c #4857A8",
"!. c #675E99",
"~. c #9C9688",
"^. c #999695",
"/. c #8C8C89",
"(. c #A49D97",
"). c #B1A591",
"_. c #BAB5B7",
"`. c #B3AEA7",
"'. c #A19EA0",
"]. c #CDB18D",
"[. c #F1BB90",
"{. c #CABBB2",
"}. c #BCC0AF",
"|. c #D8CC91",
" X c #EBC98A",
".X c #FECC8C",
"XX c #F7C78B",
"oX c #F8D38E",
"OX c #E9C797",
"+X c #F5CC93",
"@X c #FECD94",
"#X c #FDCC9B",
"$X c #FAC798",
"%X c #EBD597",
"&X c #FDD293",
"*X c #F4D29C",
"=X c #F8D499",
"-X c #E7D484",
";X c #D7C8BB",
":X c #CBC5B3",
">X c #EACBA5",
",X c #F9CCA5",
"<X c #EAD5A8",
"1X c #FDD4A3",
"2X c #FDDAAC",
"3X c #F7D8A6",
"4X c #E9D6B5",
"5X c #F7DAB5",
"6X c #E9CCB7",
"7X c #FBE5B7",
"8X c #F4E1B2",
"9X c #FFE09C",
"0X c #B9BACE",
"qX c #C8BBC4",
"wX c #CCC6C9",
"eX c #D3D0D1",
"rX c #F9DBC3",
"tX c #EDDAD2",
"yX c #FAE4C7",
"uX c #FFF3C8",
"iX c #E8E6DB",
"pX c #F8F5DB",
"aX c #F5E8D3",
"sX c #DBDBE7",
"dX c #E9DCE8",
"fX c #DDEBE8",
"gX c #E5E5E5",
"hX c #EBECE5",
"jX c #ECECEC",
"kX c #E7E8E8",
"lX c #F3EDEC",
"zX c #F5ECE8",
"xX c #EDF3EC",
"cX c #E9F4E6",
"vX c #F3F5E4",
"bX c #F3F3EC",
"nX c #FAF5ED",
"mX c #F5FAEC",
"MX c #FDFCED",
"NX c #FAFAE5",
"BX c #ECECF3",
"VX c #E9ECF8",
"CX c #F2EDF4",
"ZX c #F6ECF9",
"AX c #EDF3F4",
"SX c #ECF3FB",
"DX c #ECF8F8",
"FX c #F4F4F4",
"GX c #FBF5F4",
"HX c #F4FAF4",
"JX c #FCFCF4",
"KX c #F5F4FC",
"LX c #FBF5FC",
"PX c #F5FBFC",
"IX c #FCFCFC",
"UX c #DFE0DA",
/* pixels */
"hXHXPXKXFXNXGXLXZXIXbXbXIXSXFXGXlXFXIXIXM O X     @ . . X o X X   z PXLXPXSXPXbXvXMXhXIXLXZXJXJXlXLXbXLXGXxX",
"JXxXKXLXbXnXIXlXLXkXJXJXCXLXbXHXiX`.{.).M c c c v v M v v c v c g C ).`._.BXcXIXvXhXIXZXZXIXIXnXIXbXIXbXnXIX",
"mXGXKXKXLXPXLXKXLXFXbXpXMXNXmXJXtXo . # :.a.a.s.G.K.G.K.L.G.L.K.D.:.= O . iXIXhXLXKXIXLXLXKXFXKXKXKXFXHXHXFX",
"hXJXLXFXLXKXFXPXFXIXxXmXNXhXMXP v k.>.<.f.j.t.p.p.s.p.p.p.e.Z.C.F.8.<.>.k.m P IXBXLXVXLXIXFXPXLXFXLXFXIXLXlX",
"JXbXnXGXFXHXIXxXPXBXPXKXBXPXIXq 8 S.a.f.t.t.h.s.9.9.0.9.9.s.0.M.J.-XJ.P.|.o 9 HXPXVXIXKXjXbXmXmXLXFXIXFXFXIX",
"nXnXJXGXnXFXHXHXHXHXPXZXPX$.# l.8.r.p.p.d.i.i.9.| | | |  .1.k 2 2 5 # % = $ o = = $ eXLXIXIXvXcXFXKXLXKXKXPX",
"jXIXLXFXJXmXcXHXcXcXPXkX_.L g 8.r.w.5.D.9.7.V.| T T T _ V ~ c k k k k f h f h g g 8 b.{._.eXmXmXxXPXFXIXIXAX",
"IXKXKXKXKXHXmXcXmXmXGXqX# n D.y.4.4.s.9. .| ] W i 2 , , > , ( D.0.s.V.Z.M.C.C.a.C.S.8 @ + K mXHXLXFXLXFXFXIX",
"jXPXKXKXKXKXDXPXVXPXLXqX> ~ s.r.9. . .| _ s f b / / ^ ,.,.) 0.A.F.a.A.D.A.A.A.s.A.a.:./ >.C P eXIXIXjXLXIXkX",
"IXVXKXKXSXLXPXcXPXsXIX;X# ^ s.5.7. .| E a , > n d.e.d.G.K.L.D.G.g.H.H.g.H.A.F.G.F.F.e.e.G.n X }.JXiXIXlXkXIX",
"AXDXKXKXLXZXvXNXHXIXl g m.0.0.q.' 1 1 i ) m.q.2.e.y.w.4.w.r.5.5.u.g.f.e.p.i.i.5.e.y.j.j.H.C.P.v q MXJXJXLXLX",
"cXPXKXFXLXGXpXNXiXmX9 3 S.q.7.~ _ d d d q.s.r.w.y.w.w.4.5.3.r.u.2.:.:.:.1.1.2.u.r.3.j.g.g.H.L.b 8 :XwXJXLXFX",
"PXcXmXmXGXGXMXaXJXhX9 8 -X( 2 1 p M.Z.5.i.5.4.4.w.r.y.f.s.A.a.S.& @ # # # @ d S.d.f.3.e.g.F.d.D.B.X m JXlXIX",
"DXmXvXmXZXLXGXbXcXJX= = n n ' ~ ) 0.3.w.w.4.i.5.r.6.a.n b n n b 3 . .   . . % C b n 8.u.h.f.H.a.B.o B JXCXLX",
"BXPXmXvXLXZXZXIXHXcXy X o n D.s.5.r.w.w.4.5.Z.0.M.M.m.< @ . @ . . . . o       . X @ ,.d.e.u.g.C.B.o m MXLXLX",
"PXDXnXnXZXLXLXVXPXIX= 3 z.8.6.w.w.w.4.r.i.0.f d 5 d 5 # . @   @ ).$.#       O O o $ 8 c C.a.D.b 8 |.tXMXbXIX",
"SXPXLXhXIXBXSXPXsXwXg c s.r.4.5.w.y.0.:.8.,.# + .         @ 7 z >X].0 > . .   O - & . * l.z.z.c q JXJXbXIXjX",
"PXPXFXIXFXJXPXPXI . m.Z.3.w.4.5.y.A.( # % + . + O       $ . $.rX$X1XrXH @       - O O .   o   :XJXUXIXLXkXIX",
"DXPXLXjXFXGXxXHXI % 8.e.w.w.w.r.0.( j @ @   . O   X     4 L B.1XOX@X3Xv.H 3   X O     .     . K /.LXPXFXIXxX",
"FXcXPXIXIXhXmXJXH @ 2.w.w.w.4.i.8.@ # .     O O O       M uX X&X&X3X X<X8Xq   o       +     .   $ jXFXFXIXkX",
"IXPXJXFXkXIXwX0 ` m.6.y.4.4.s.b d . + - O O O O   O :   l 5X&XoX@X[.9XoX<X= $ X   X   + ; U eXr + cXIXIXIXIX",
"jXjXJXFXIXgX).$ ( C.e.r.4.5.Z.8 . $ O O O   O   O O   9 m |.+XoX=X@X&X X|.v = o = 9 o O - I IXK t LXFXjXFXFX",
"IXBXIXIXdX: . $ ^ f.r.4.5.Z.V.d %       X         :   JX:X# +.=X#X#X&X*X<XpX4XX H iX= O O I IXkXjXIXPXIXHXIX",
"KXPXFXFXHXI G @ / i.6.5.s.1.` 8     X X X X X   + t P ^.k.N ].=X#X[.,X*X<Xn.#.m ~.vXy     I LXJXIXkXIXFXGXLX",
"hXHXIXKXGXJXwX@ / u.5.5.A.^ > # . O     X         :XJX. j 4XOX=X$X,X$X,X>X< 4 :XpXMXy     K JXmXGXPXFXGXFXjX",
"JXJXBXjXIXLX_.# ( D.5.2.h n l.5 . ;       = ).L . ).JX. * 8 v.9XXX#X#X+X2X5 . j c.MX9 $ `.eXmXxXHXjXIXFXLXIX",
"mXvXJXnXKXIX_.3 ` m.0.2.3 ^ J.g . + . 9   7 yXb.5 {.zX0 % < v.+X.X[..XoX$Xj 4 < c.NX9 6 IXIXHXHXFXIXxXKXJXjX",
"xXmXMXbXLXLXKXMXC @ m.S.S.S.8.q @ . H tXl # 5XOX[.4X6XnXJXuX3X&X@X@XoX.X1XuXNXyXrX6X9 6 FXPXFXHXHXFXIXFXHXLX",
"IXgXpXMXFXLXHXmX(.B k.,.` z.P.8 @ B k.yXl 2 [.3X,X>X6XaXaXaX2X+X@X X.X&XOX7XyXuXyX6X0 4 LXPXSXPXKXFXGXHXPXIX",
"VXIXMXvXCXLXxXHXJXvX4 # @ n -X8 8 6X8X<X5 2 $XXX=X$X5X>X6X,X#X@X#X1X2X3X*X*X,XOX>XrX5 6 IXKXSXPXPXIXjXLXGXkX",
"PXSXCXJXmXmXFXAXDXSX_.(.{.+.M @ 5 <X%X%XB.v.#X&X@X.XoX+X,X#X@XXX1XN.N v.3X X X=X>XrX5 4 NXJXPXVXPXxXIXFXFXIX",
"KXIXZXGXvXNXHXDXPXSXIXIXLX$.@ % j [.|.%X5X2XXXXX.X.X.X.X#X@X.X#X2XN., %.3X&X X%XOX6X0 0 pXmXSXPXKXJXFXLXLXFX",
"FXPXLXbXJXHXFXPXFXKXKXjXGXlXhXvX{.  C 8X8X<X=X&XoXoX#X@X=X#X$X#X$X#X[.[.@X&X3X7X+.. _.vXcXmXIXZXFXLXFXHXHXlX",
"IXFXFXIXhXLXGXFXPXFXFXIXkXJXLXFXiXG P ~.n.v.v.B.%X X[.#X*XOX#X#X,XOX,X$X#XN.l.n.P H eXIXAXPXlXJXIXlXIXFXFXIX",
"BXFXGXkXIXFXHXIXFXGXLXjXIXFXFXIXJXGX/.    . @ M 7X2X5X5X5X3X1X2X5X4X4X5X4X< $   I AXBXVXIXLXLXKXFXPXbXLXIXjX",
"LXFXFXIXAXLXLXFXPXFXFXIXjXLXGXFXgXIXeX^.(.~.# 7 B N V N N N N N B m m m M (.^.^.eXAXIXKXZXLXKXKXLXHXLXFXFXIX",
"IXFXFXIXFXFXGXFXGXFXHXIXFXGXPXxXPXfXHXJXIXaX, , . @ , , , # , > > # . O . UXLXIXPXkXPXFXGXGXJXDXHXFXPXFXFXIX",
"xXFXLXkXIXFXHXIXFXIXIXkXIXFXFXPXfXmXcXHXG 6 eX$.@ J %.O.R 2 R O.O.R # #.CXlXLXZXVXPXjXcXIXFXIXxXbXIXFXIXLXjX",
"IXFXHXIXhXPXFXFXGXAXFXIXkXIXLXFXIXLXnXHXt X aX$., ..&.&.E Y Q [ ] &.a %.{.GXdXLXIXkXHXJXmXmXbXGXIXFXIXjXxXIX",
"FXLXFXFXIXLXFXPXHXGXLXFXIXFXFXLXLXLXJXJXy X tXv.2 R =.Q *.] ! { { ] -.s > dXIXZXFXPXHXcXIXJXbXGXFXPXFXGXLXFX",
"bXFXLXbXPXFXFXIXFXFXIXjXIXHXGXIXCXZX}.K P k.yXx., T [ } [ &.T Y [ } &.W > J /.DXSXPXKXPXFXBXLXLXFXGXFXLXLXFX",
"IXFXxXIXjXIXLXjXIXbXFXIXFXIXFXKXLXLXP   ].7X6Xv.i E =.{ [ &.s i Q { *.Y 1 # 9 DXPXfXLXkXKXIXVXLXPXxXIXxXbXIX",
"jXLXIXjXIXbXHXIXjXLXIXkXIXFXkXIXZXLX'.  ).>X5 s Q ! ! =.} { ] &.! ! { Q O.2 X : /.IXLXGXIXFXIXAXFXIXAXIXPXjX",
"PXGXFXIXFXIXFXFXIXLXFXPXFXIXFXLXdXsXI   ].,X# s =.=.o.o.} { ] Q =.! =.*.O.p = 9 P :XtXGXLXZXAXPXLXFXGXFXFXLX",
"IXFXFXIXFXIXGXFXIXFXlXIXFXFXIXHXhXO X . N.[.7 a &.*.o.o.! o.Y i o.! *.;.@.2 4 aXK   wXJXzXIXxXDXPXFXLXFXFXIX",
"kXLXIXjXIXBXFXIXkXIXIXjXIXAXGX(.K k.L +.V.,X%.x x E *.*.*.*.R R @.&.Y Y x V %.rXK o {.IXJXiXPXHXxXIXbXIXPXjX",
"IXFXxXIXjXIXLXjXIXPXFXIXkXIXLX: $ 8X*X=X,X,XrXb.> _ -.] &.;.@.@.@...1 # @ wXrXzXP . sXPXkXIXjXHXIXxXPXFXbXIX",
"AXGXLXxXIXFXHXIXFXFXGXFXIXFXIXy * 4X*X@X#X[.2X$.@ 7 1 i i i 1 a U !.D D G y 6 6 I tXdXDXZXKXFXLXFXIXFXLXLXFX",
"FXGXIXAXLXFXHXLXjXLXFXIXFXFXIXG z ].]. XoX X<Xc.+ w e w e w e w T.Q.R.W.Y.w ; r ^.IXlXHXGXnXGXGXGXLXFXIXGXFX",
"IXFXbXIXjXIXHXjXIXIXjXFXFXIXjXIXeX@ B uX<X%XuXc.O D R.R.R.Q.W.Y.U.Q.U.R.W.w Z PXLXgXIXnXlXIXlXLXIXjXLXbXFXIX",
"jXLXIXjXIXFXFXIXxXLXbXxXIXkXIXIXiXI #.#.+.#.P G A F Q.I.I.S Z S R.U.Q.S A E.^.AXxXJXbXHXPXBXPXLXAXIXAXIXIXjX",
"IXHXFXLXbXLXPXFXIXjXPXLXhXIXFXjXHXLXc.. o     r !.!.Q.Q.S w - - Y.R.Y.Z - xXJXIXJXjXPXSXFXPXSXKXLXFXGXFXFXLX",
"LXHXFXPXFXLXLXbXLXFXHXIXFXIXFXLXKXbXiX:Xl ; U F T.I.T.w F 0XwXqXe A sXG . y z 0 ^.PXPXSXPXDXDXDXPXFXPXFXFXLX",
"kXHXIXjXIXbXFXIXjXIXFXFXIXkXIXxXKXPXHXnXt + !.!.!.E.Y.e I IXIXLX: y tX#.3 % 3 3 #.UXkXFXPXxXPXbXbXIXbXIXIXjX",
"IXFXxXIXjXIXLXkXIXGXLXFXkXIXFXFXPXVXLXIXz : :XeXeXz - SXKXIXlXzX6 p rX>X8X3X%X5XH # eXLXFXIXiXIXIXxXIXxXbXIX",
"FXLXLXbXPXFXHXIXFXHXHXLXIXFXHXLXFXPXCXZXG @ 4X<X4X$.H /._.FXGXGX# z 4X>X%X*XOX<Xn.H c.'.IXlXGXlXFXLXFXLXPXFX",
"FXGXGXFXIXFXFXIXFXPXHXCXIXFXFXHXAXIXnXmXl # <X>XOX5X>X. M JXjXGX+ 0 5X5X3X3X<X8XyXaX& + ZXCXnXnXFXIXFXPXLXFX",
"IXFXAXIXjXIXLXjXLXFXFXIXkXLXIXFXIXIX).M v.v.OX1X*X%X|.* M MXxXSXqX~.l q j g g q l y (.wXGXIXnXMXIXjXIXbXbXIX",
"jXHXIXjXIXbXFXIXFXLXIXhXIXFXFXPXVXZX/.@ n.uX@X+X X*XOX. M HXPXSXZXwXo = $ o = : ; e wXIXZXjXFXvXlXIXCXIXIXjX",
"IXFXFXIXAXLXFXFXHXFXFXIXAXGXLXFXLXLX~.@ ).1X3X1X2X2X6X+ M IXfXPXKXAXxXHXbXJXiXFXSXsXPXSXSXPXFXIXGXFXHXFXFXPX",
"LXFXFXIXFXLXHXFXGXFXFXPXbXLXHXFXGXIX'.K c.c.x.b.x.b.$.G ^.jXLXDXPXVXPXDXHXFXIXJXFXPXDXSXKXIXVXBXLXFXIXFXFXIX",
"jXPXIXjXIXbXFXIXFXLXIXhXIXFXFXLXFXIXJXIXy .     @ . @ ZXIXCXHXPXDXKXSXFXIXxXJXvXxXIXxXPXKXBXIXLXAXIXbXIXIXjX",
"IXFXbXIXjXIXHXjXPXFXFXIXkXIXIXFXIXSXHXDX:X`.`.`._.(._.LXlXIXFXcXPXxXIXCXCXIXgXIXGXxXJXbXGXIXzXIXIXlXPXFXFXIX",
"FXHXLXFXPXFXFXLXHXGXLXxXIXFXFXKXVXPXPXcXPXmXIXIXPXIXLXZXIXBXFXIXbXJXnXGXGXGXIXlXbXJXbXbXJXvXJXnXFXPXFXGXGXAX"
};
