/* XPM */
static char *_aa7655e721a4f5c8cf136d6c3faa84f[] = {
/* columns rows colors chars-per-pixel */
"54 64 256 2 ",
"   c #030201",
".  c #0B0100",
"X  c #030A01",
"o  c #0C0B01",
"O  c #03010A",
"+  c #0D070B",
"@  c #130200",
"#  c #1A0200",
"$  c #130C00",
"%  c #1B0B01",
"&  c #160D0C",
"*  c #1C1301",
"=  c #181603",
"-  c #010012",
";  c #0A0212",
":  c #131211",
">  c #230000",
",  c #2A0201",
"<  c #230D00",
"1  c #3C0100",
"2  c #330300",
"3  c #231501",
"4  c #281706",
"5  c #351A00",
"6  c #281918",
"7  c #2D0D10",
"8  c #352704",
"9  c #262617",
"0  c #37271A",
"q  c #322E0C",
"w  c #070328",
"e  c #110D30",
"r  c #211B33",
"t  c #3A3838",
"y  c #322F28",
"u  c #1F203E",
"i  c #480401",
"p  c #431A02",
"a  c #560E0A",
"s  c #6E1D15",
"d  c #492900",
"f  c #552900",
"g  c #483705",
"h  c #583700",
"j  c #4A3518",
"k  c #692D08",
"l  c #463727",
"z  c #4B352F",
"x  c #79362C",
"c  c #574B08",
"v  c #554C12",
"b  c #6D5205",
"n  c #796308",
"m  c #5A533B",
"M  c #52492C",
"N  c #694728",
"B  c #675439",
"V  c #754F31",
"C  c #726637",
"Z  c #1A2144",
"A  c #2D3052",
"S  c #2D376D",
"D  c #423C6F",
"F  c #38417C",
"G  c #524C4C",
"H  c #675946",
"J  c #6A4F4F",
"K  c #6B6759",
"L  c #746C50",
"P  c #787568",
"I  c #716D71",
"U  c #5A496F",
"Y  c #840E0C",
"T  c #953828",
"R  c #8B3131",
"E  c #B93C31",
"W  c #882B15",
"Q  c #CD3833",
"!  c #ED3C32",
"~  c #8A5808",
"^  c #8B6905",
"/  c #957507",
"(  c #8C6F0E",
")  c #A77418",
"_  c #8A482B",
"`  c #8E7530",
"'  c #A75C26",
"]  c #D15136",
"[  c #E64539",
"{  c #F6463B",
"}  c #ED422E",
"|  c #D66C2C",
" . c #DD7218",
".. c #8C3E50",
"X. c #D53F43",
"o. c #EC3D42",
"O. c #B3574E",
"+. c #8A7152",
"@. c #BD5A71",
"#. c #887866",
"$. c #927870",
"%. c #A76F5B",
"&. c #D2514B",
"*. c #E84C48",
"=. c #EE5048",
"-. c #CD6454",
";. c #E16352",
":. c #B39616",
">. c #93822F",
",. c #AD8F2D",
"<. c #988312",
"1. c #C69119",
"2. c #D3AB13",
"3. c #EAB905",
"4. c #F7BC04",
"5. c #F6BC16",
"6. c #EFB318",
"7. c #FB9429",
"8. c #D1B12E",
"9. c #FCA326",
"0. c #EFB434",
"q. c #D39B2B",
"w. c #FBC607",
"e. c #EAC718",
"r. c #FBC717",
"t. c #FCD91E",
"y. c #EDC00B",
"u. c #E9C926",
"i. c #F7C927",
"p. c #FBD428",
"a. c #EAC738",
"s. c #F9C934",
"d. c #FAD938",
"f. c #EFD22C",
"g. c #FDE637",
"h. c #FFE528",
"j. c #FEE21F",
"k. c #918350",
"l. c #A7934E",
"z. c #B9A84E",
"x. c #9A8566",
"c. c #918674",
"v. c #A98865",
"b. c #AB9172",
"n. c #B0A07E",
"m. c #D0B04B",
"M. c #ECBC4F",
"N. c #C69A71",
"B. c #C4AB73",
"V. c #F4AE59",
"C. c #E9C845",
"Z. c #FACC45",
"A. c #F8D545",
"S. c #E5CA58",
"D. c #F1D550",
"F. c #FEE845",
"G. c #FFEB5B",
"H. c #FFF54D",
"J. c #E9D86F",
"K. c #FFEC65",
"L. c #FDF16E",
"P. c #D3CB6C",
"I. c #384BA0",
"U. c #374C9F",
"Y. c #475287",
"T. c #454A99",
"R. c #47569B",
"E. c #54558D",
"W. c #56649A",
"Q. c #4857A8",
"!. c #675E99",
"~. c #9C9688",
"^. c #999695",
"/. c #8C8C89",
"(. c #A49D97",
"). c #B1A591",
"_. c #BAB5B7",
"`. c #B3AEA7",
"'. c #A19EA0",
"]. c #CDB18D",
"[. c #F1BB90",
"{. c #CABBB2",
"}. c #BCC0AF",
"|. c #D8CC91",
" X c #EBC98A",
".X c #FECC8C",
"XX c #F7C78B",
"oX c #F8D38E",
"OX c #E9C797",
"+X c #F5CC93",
"@X c #FECD94",
"#X c #FDCC9B",
"$X c #FAC798",
"%X c #EBD597",
"&X c #FDD293",
"*X c #F4D29C",
"=X c #F8D499",
"-X c #E7D484",
";X c #D7C8BB",
":X c #CBC5B3",
">X c #EACBA5",
",X c #F9CCA5",
"<X c #EAD5A8",
"1X c #FDD4A3",
"2X c #FDDAAC",
"3X c #F7D8A6",
"4X c #E9D6B5",
"5X c #F7DAB5",
"6X c #E9CCB7",
"7X c #FBE5B7",
"8X c #F4E1B2",
"9X c #FFE09C",
"0X c #B9BACE",
"qX c #C8BBC4",
"wX c #CCC6C9",
"eX c #D3D0D1",
"rX c #F9DBC3",
"tX c #EDDAD2",
"yX c #FAE4C7",
"uX c #FFF3C8",
"iX c #E8E6DB",
"pX c #F8F5DB",
"aX c #F5E8D3",
"sX c #DBDBE7",
"dX c #E9DCE8",
"fX c #DDEBE8",
"gX c #E5E5E5",
"hX c #EBECE5",
"jX c #ECECEC",
"kX c #E7E8E8",
"lX c #F3EDEC",
"zX c #F5ECE8",
"xX c #EDF3EC",
"cX c #E9F4E6",
"vX c #F3F5E4",
"bX c #F3F3EC",
"nX c #FAF5ED",
"mX c #F5FAEC",
"MX c #FDFCED",
"NX c #FAFAE5",
"BX c #ECECF3",
"VX c #E9ECF8",
"CX c #F2EDF4",
"ZX c #F6ECF9",
"AX c #EDF3F4",
"SX c #ECF3FB",
"DX c #ECF8F8",
"FX c #F4F4F4",
"GX c #FBF5F4",
"HX c #F4FAF4",
"JX c #FCFCF4",
"KX c #F5F4FC",
"LX c #FBF5FC",
"PX c #F5FBFC",
"IX c #FCFCFC",
"UX c #DFE0DA",
/* pixels */
"hXHXLXKXGXvXGXIXCXIXlXbXIXKXFXGXFXGXIXIXG         . . . . o   X . z IXLXLXVXIXxXvXJXgXIXLXCXJXJXbXIXFXHXHXjX",
"JXxXKXLXbXnXIXCXIXkXJXJXBXLXbXmXiX`.`.).M c c c v v v v v v v c g C ).`._.BXkXJXmXhXIXFXZXIXIXmXIXFXIXbXFXIX",
"mXHXKXKXLXLXKXKXLXFXvXvXMXmXmXJXUX. . @ :.s.a.s.G.K.K.K.L.G.L.K.D.:.% . . UXIXhXIXPXIXLXLXLXFXKXKXKXGXGXGXFX",
"hXJXGXFXLXKXFXIXAXIXcXmXNXiXGXP M k.` <.i.t.t.p.p.s.i.p.p.e.s.A.F.8.<.>.k.m P IXBXLXVXLXIXFXKXPXCXLXFXIXIXjX",
"JXbXnXHXFXGXIXAXPXkXIXKXBXIXLX8 8 S.a.f.t.j.h.p.9.9.9.9.6.s.0.m.J.J.J.P.|.o 9 HXKXVXIXKXjXbXmXmXIXFXIXFXFXIX",
"nXnXGXGXFXFXHXHXHXDXIXKXIX$.% l.8.e.i.p.d.i.i.9. .| | |  .1.k 2 , 5 % % 3 $ . = = . eXIXIXIXvXvXHXKXLXKXKXGX",
"jXIXLXFXJXmXcXJXcXcXIXgX`.+.h 8.r.w.4.A.9.7.V.| T T T _ _ ~ b h k k k f h f h h g d b.{._.eXmXmXxXIXBXIXLXBX",
"IXKXKXKXGXHXHXcXHXHXFXwX% V D.3.4.4.s.0.| | | W 2 2 , , > > ( D.0.M.M.S.M.C.C.a.C.S.5 @ . K JXHXIXFXLXFXGXIX",
"jXPXKXKXKXKXFXIXVXIXLXqX# ~ a.5.9. . .;.T a k b / / / ,.,.) 0.Z.F.u.A.A.A.A.A.s.A.a.:./ >.C P wXIXHXjXKXIXkX",
"IXAXKXLXSXKXIXjXIXsXIX;X# ^ s.5.9. .] E a > > b d.e.d.G.G.K.A.G.g.H.F.F.H.d.F.H.F.F.e.u.D.( . _.JXhXIXjXgXIX",
"AXPXKXKXKXKXvXNXGXIXl g m.0.s.q.' 1 1 i ' m.8.2.e.3.w.4.w.r.5.5.u.d.f.u.p.i.i.5.r.w.j.j.F.S.P.v q MXJXJXKXLX",
"cXPXPXFXLXFXpXNXiXbX9 3 S.q.q.~ ~ f p d q.s.r.w.w.w.4.w.w.3.5.5.2.:.:.:.1.1.2.i.e.3.t.g.g.H.L.b 8 :X;XJXIXFX",
"PXcXmXGXFXGXMXpXJXiX9 8 -X^ 2 1 p M.A.i.i.r.3.4.4.r.y.i.s.C.a.S.< @ % @ # # d S.C.f.3.e.F.g.g.D.B.. m JXlXIX",
"HXxXvXNXGXLXGXbXhXJX9 * n ( ) ~ ) a.3.w.w.4.r.i.5.i.a.n b n n b 3 .     . @ % C b n 8.f.d.p.H.a.B.. H JXFXLX",
"BXPXmXbXLXLXZXIXPXcX9   @ n D.s.i.r.w.w.4.5.Z.0.M.M.m.< @ . $   . . . o       . . @ ,.a.6.i.d.Z.z.$ m MXGXLX",
"PXAXbXGXLXLXLXVXIXIX= 3 z.8.6.y.w.4.4.r.p.8.f d p d 5 @ . .   . ).#.@       O O + @ 8 c C.a.D.b 8 :XtXnXbXIX",
"SXPXHXjXIXCXSXPXsXwXg c s.r.5.w.w.3.0.:.8.,.# @ .         @ 7 l >X].j % . .   O O & . * l.z.z.g q JXJXbXIXjX",
"PXPXFXIXFXHXDXIXI . m.A.3.w.4.r.3.A.( # % . . . O   O   $ . $.rX*X*XrXH @       - -   .   o   :XJXgXIXPXkXIX",
"AXIXLXjXFXHXxXHXI % 8.e.w.w.4.r.8.( h @ $   . O   O     4 L B.1XXX+X2Xv.H *     O O       . . K /.IXGXGXIXjX",
"FXjXIXIXIXhXmXJXH # 2.w.w.w.3.s.8.# @ .     O O O   X   M uX X&X@X1X X3X8Xq   o       +     . . + jXFXFXIXkX",
"IXFXHXFXgXIXwX0 ` m.6.w.w.4.s.b d @ + - O O O O     :   l 5X+X.X&X[.9X=X<X* $         + ; U eX6 + kXIXIXIXIX",
"jXjXJXFXIXgX(.. ( C.e.r.4.5.Z.p @ $ O - O   O O O     9 m ].+X@X&X@X&X X%Xj 3 o = 9 o   O I IXK t IXFXjXGXFX",
"IXBXIXIXUX+ . @ ^ f.r.4.5.Z.S.d *       X         :   JX:X# +.1X@X#X#X*X<XpX4X  H iX:   O I IXkXjXIXIXIXGXIX",
"FXIXFXGXGXI G @ / i.5.5.s.1.` 8 .   X   X       . t P ~.x.N ].#X#X[.1X,X>Xn.x.m ~.pXy     P HXJXIXkXIXGXGXIX",
"hXHXLXKXFXIXwX@ / u.r.5.Z.~ # @ . O     X         :XMXo j 4XOX+X$X1X$X1X>X< 4 ;XaXMXy     K JXmXGXIXFXGXGXjX",
"JXJXjXjXIXIX_.% ( A.u.2.h ~ l.4 . ;       = ).L . ).JX  * 8 v.2XXX$X@X$X2X5 @ 0 c.MX9 $ `.eXmXxXFXjXIXGXIXIX",
"mXvXJXFXLXIX_.3 ` m.a.2.2 ^ J.8 . + . 9   4 yXb.5 ].zX0 % < v.+X@XXX.X+XOXj 4 < c.NX0 6 IXIXHXHXFXIXjXIXGXkX",
"xXmXMXbXLXKXFXMXC # m.C.S.S.m.8 @ . H tXl > 5XOXOX4X6XnXMXaX3X&X@X&X&XXX1XuXpXyXrX4X0 6 CXLXHXHXHXFXIXGXGXIX",
"IXgXpXMXZXKXPXmX).B k.,.>.z.P.8 @ B x.yXl , [.2X#X,X6XaXaXyX2X+X#X X+X&X X7XyXpXyX6X0 4 LXKXSXPXKXFXIXGXGXIX",
"VXIXMXvXCXIXxXHXIXnX4 @ @ b -X8 8 4X7X<X5 2 $XXX@X$X5X>X6X,X1X@X#X1X2X1X*X*X*XOX>XyX8 4 IXFXSXPXKXIXjXGXGXkX",
"PXSXlXJXmXmXxXAXSXVX_.(.{.+.M @ 5 <X%X%XB.v.@X=X.X.X@X+X*X1X.XXX1XN.N b.2X X X*X>XrX5 3 NXGXPXVXPXjXIXFXFXIX",
"KXIXCXJXvXNXHXDXPXSXIXIXLX$.@ % j |.|.%X2X2XXXXX.X.X.X.X&X@X.X@X2XN., %.1XoX X+XOX6X0 0 pXHXBXIXKXIXFXGXPXFX",
"KXKXLXbXJXHXHXPXKXKXKXjXGXjXhXzX{.. C 8X5X<X1X&XoXoX&X.X+X=X@X#X$X$X[.$X@X&X1X7X+.. {.hXxXxXIXCXFXIXFXPXGXjX",
"IXGXGXIXkXPXKXBXIXFXFXIXkXIXIXbXiXG P ~.n.x.v.B.%X X[.$X*XOX$X$X1XOX1X$X#XN.x.n.P H eXIXAXPXlXIXIXjXIXFXFXIX",
"jXGXIXkXIXGXGXIXFXIXIXkXIXGXGXIXGXJX/.    . @ M 7X2X2X5X5X3X2X2X4X4X4X5X4X< $   P FXBXCXIXLXKXKXBXIXFXIXIXjX",
"IXGXGXIXAXGXGXFXGXGXGXIXFXGXGXGXgXIXeX^.(.~.@ 4 B z V N N N N N N B m m M (.(.^.eXBXIXKXKXLXKXPXIXFXIXFXFXIX",
"IXGXGXIXAXGXGXFXIXGXGXIXFXIXGXAXPXfXPXIXIXaX, # . @ > , , > , > > # . . . UXIXIXPXfXIXKXGXGXHXFXPXFXIXGXGXIX",
"jXGXPXkXIXGXGXIXFXIXIXkXIXFXFXPXfXDXcXJXG 6 wX$.# J %.O.x 1 R O.O._ # #.nXlXLXZXBXIXkXjXIXGXIXxXxXIXFXIXIXkX",
"IXGXFXIXkXPXGXjXPXAXFXIXkXIXIXFXIXLXGXJXt   tX$.> ..&.&.E Y Q [ ] &.a %.{.ZXdXIXIXkXHXJXmXGXxXHXIXFXIXjXjXIX",
"FXGXGXAXIXGXGXIXGXIXIXFXIXGXFXLXLXZXIXJXy X tXv., R ;.! *.] [ =.{ [ -.s @ dXIXCXKXHXIXhXJXJXbXGXFXPXFXIXIXGX",
"FXGXIXFXIXFXGXIXFXGXIXjXIXGXGXIXlXIX}.K L x.5Xv.2 T [ } [ &.T Y } } &.s > J /.PXDXPXFXLXFXBXLXLXFXGXFXIXGXFX",
"IXGXjXIXkXIXIXkXIXAXFXIXjXIXFXFXIXLXP   ].7X4X%.i E =.{ [ &.s i ! { *.Y 2 @ 9 PXPXkXGXkXKXIXVXLXIXjXIXjXFXIX",
"kXIXIXkXIXjXGXIXkXIXIXkXIXGXkXIXZXIX'.  ].[.p s E ! { { } [ Q *.! { =.Q O.2 o : /.IXLXGXIXKXIXBXBXIXFXIXIXkX",
"IXGXFXIXFXIXGXFXIXGXFXIXFXIXFXLXdXeXI . ].,X# s ;.{ { { } { X.Q =.! =.*.O.p % 9 P :XiXGXLXFXAXIXIXFXPXFXGXIX",
"IXGXFXIXFXIXGXFXIXFXxXIXFXFXIXGXgX  o . N.[.> a &.*.o.o.! [ Y i X.o.*.;.-.2 5 aXK   ;XIXzXIXxXDXPXFXIXFXGXIX",
"kXIXIXkXIXjXGXIXkXIXIXjXIXFXGX^.K #.L +.[.$X%.x W E *.=.[ &.R R &.&.Y s x V $.rXK . {.IXIXiXIXHXxXIXFXIXIXjX",
"IXFXjXIXkXIXIXkXIXIXFXIXkXIXGX: $ 8X*X=X$X,X5Xb.> R -.] ] ;.-.@.@...> @ @ ;XtXaXP   sXIXjXIXkXHXIXAXIXFXFXIX",
"FXGXIXFXIXFXGXIXFXGXGXGXIXjXIXy * 4X*X&X#XOX5X#.@ 7 1 i i i 1 a U E.D D G y 6 6 I UXgXKXFXLXFXLXFXIXGXIXIXFX",
"FXGXIXFXIXFXGXIXjXPXFXIXFXFXIXG z ].]. XoX X<Xx.  w e w e w e e T.T.R.R.Y.w w r ^.IXlXGXGXlXGXGXFXIXGXIXIXFX",
"IXFXjXIXkXIXIXkXIXIXjXGXGXIXkXGXeX@ B 7X3X%XuXc.- S R.Q.R.W.W.Y.U.Q.Q.R.W.w u IXLXgXIXmXbXIXlXLXIXjXIXFXFXIX",
"kXIXIXkXIXjXGXIXjXPXAXjXIXkXIXIXiXP #.#.+.+.P G A F Q.I.T.S Z S R.U.Q.S A I ^.AXxXIXFXHXPXBXIXKXCXIXFXIXIXjX",
"IXGXFXIXFXIXGXFXIXkXIXPXkXIXFXkXGXIXc.. @ . O u W.Q.Q.Q.S w - - Y.Y.Y.Z - jXIXJXJXhXPXAXDXIXSXKXLXFXIXFXFXIX",
"IXGXFXIXFXIXGXFXIXGXIXIXFXIXFXIXKXFXiX:Xt ; U F T.T.T.e D 0XwXqXe A eXG . y l 0 ^.IXIXDXPXDXDXAXPXFXIXFXFXIX",
"kXIXIXkXIXjXFXIXkXIXFXFXIXkXIXjXPXPXJXGXG ; !.!.!.E.Y.e I IXIXIX& y iX#.3 % 3 * $.eXjXKXIXxXIXxXxXIXFXIXIXjX",
"IXGXjXIXkXIXPXkXIXIXGXFXkXIXFXFXPXBXLXIXt & :XeXeXt O KXLXIXlXzX7 0 rX>X2X<X>X5XH @ eXGXFXIXUXIXIXjXIXAXFXIX",
"FXGXIXFXIXFXGXIXFXGXGXIXIXFXGXPXDXPXBXLXz @ 4X<X4Xk.H c._.FXGXGX% l 5X>X%X*XOX<Xb.H c.'.IXlXIXbXFXIXGXIXGXFX",
"FXGXIXFXIXFXGXIXGXIXIXFXIXFXFXHXAXIXbXMXj # 3X*X%X8X>X. M JXjXGX@ 0 rX5X3X3X3X<XyXaX& + GXGXnXnXFXIXGXIXIXFX",
"IXGXjXIXkXIXPXkXIXFXFXIXkXIXIXFXIXIX).M x.v.OX1X*X*X].3 M MXjXFX{.~.l q g g g j y y ^.wXKXIXnXJXIXjXIXlXFXIX",
"kXPXIXkXIXjXGXIXFXIXIXkXIXFXFXLXBXFX/.@ n.uX*X+X X*XOX. m GXIXSXKXeXo = = o * & + e wXIXCXjXmXhXjXIXFXIXIXkX",
"IXGXFXIXFXIXGXFXGXFXFXIXFXIXIXGXKXIX~.. ).5X3X1X2X2X4X@ M IXfXPXSXAXjXHXbXGXiXjXSXsXIXSXVXIXFXIXHXFXIXFXFXIX",
"IXGXFXIXFXIXGXFXGXFXFXIXAXGXIXGXGXIX'.K c.c.x.b.x.b.$.G ~.kXIXPXPXVXIXDXFXHXIXHXFXPXKXSXKXIXKXBXIXGXIXGXGXIX",
"kXPXIXkXIXjXGXIXFXIXIXkXIXFXFXIXFXIXHXIXy . . . . . . GXIXjXIXPXSXKXVXAXIXxXJXbXxXIXxXIXKXBXIXKXFXIXFXIXIXjX",
"IXGXjXIXkXIXIXkXIXFXFXIXkXIXIXFXIXBXFXHX_.`.`.`._.'._.GXCXIXGXjXIXjXIXFXCXIXgXIXGXjXHXbXHXIXhXIXIXjXIXFXFXIX",
"FXHXIXFXIXFXGXIXGXIXIXAXIXFXFXKXVXLXPXcXIXHXIXIXIXIXIXKXIXjXFXIXmXJXbXJXGXGXIXlXbXIXbXbXJXvXJXnXFXPXFXIXHXFX"
};
