/* XPM */
static char *_9efc9585c6d4045e3d112d869b99315griOcprKaLQdSZsc[] = {
/* columns rows colors chars-per-pixel */
"64 76 201 2 ",
"   c None",
".  c #050404",
"X  c #0A0706",
"o  c #0D0906",
"O  c #070808",
"+  c #0C0B0B",
"@  c #070708",
"#  c #110A07",
"$  c #120D0B",
"%  c #1C0F0D",
"&  c #0F100E",
"*  c #14110F",
"=  c #1B110E",
"-  c #0D0D10",
";  c #0F1010",
":  c #141415",
">  c #1B1513",
",  c #1C1815",
"<  c #151718",
"1  c #1D1519",
"2  c #171818",
"3  c #1A1B1C",
"4  c #22140F",
"5  c #2C1A06",
"6  c #231610",
"7  c #231A15",
"8  c #2B1A16",
"9  c #21161B",
"0  c #2A161B",
"q  c #241A1C",
"w  c #2B1D1B",
"e  c #2A1617",
"r  c #331D1B",
"t  c #361C17",
"y  c #1E201F",
"u  c #2A210D",
"i  c #24211C",
"p  c #2D211C",
"a  c #2B2216",
"s  c #34231E",
"d  c #39241F",
"f  c #3F2E13",
"g  c #3D3013",
"h  c #1E1F20",
"j  c #251C21",
"k  c #2B1F23",
"l  c #1F2121",
"z  c #232424",
"x  c #2C2324",
"c  c #212826",
"v  c #252728",
"b  c #272929",
"n  c #2A2C2D",
"m  c #2F2D26",
"M  c #342522",
"N  c #3C2521",
"B  c #3C2922",
"V  c #362A2C",
"C  c #352928",
"Z  c #39342C",
"A  c #333028",
"S  c #2D2F30",
"D  c #2E3131",
"F  c #2D3936",
"G  c #323535",
"H  c #3B3836",
"J  c #343738",
"K  c #363A3A",
"L  c #393D3E",
"P  c #3D3534",
"I  c #402B0F",
"U  c #4C2F0C",
"Y  c #443515",
"T  c #5C3915",
"R  c #4F2B15",
"E  c #602D1D",
"W  c #782A19",
"Q  c #422523",
"!  c #432B24",
"~  c #4B2D26",
"^  c #452E28",
"/  c #4B2F28",
"(  c #512F28",
")  c #443026",
"_  c #46312A",
"`  c #4C3129",
"'  c #4D342A",
"]  c #56322A",
"[  c #54322A",
"{  c #5B352B",
"}  c #54392E",
"|  c #5C3A2E",
" . c #503027",
".. c #463833",
"X. c #5D3E31",
"o. c #523C30",
"O. c #60372C",
"+. c #613A2E",
"@. c #613E31",
"#. c #723525",
"$. c #3A403F",
"%. c #5B461C",
"&. c #56411A",
"*. c #5F450A",
"=. c #694C0C",
"-. c #674E1F",
";. c #684F1F",
":. c #7A5C19",
">. c #7F601B",
",. c #54482C",
"<. c #5D4033",
"1. c #554135",
"2. c #644C21",
"3. c #66512C",
"4. c #68532E",
"5. c #634233",
"6. c #734933",
"7. c #605435",
"8. c #3B3F40",
"9. c #423F43",
"0. c #3D4242",
"q. c #3D4343",
"w. c #424343",
"e. c #414242",
"r. c #414645",
"t. c #424947",
"y. c #444A4A",
"u. c #454B4B",
"i. c #4D4E4E",
"p. c #4B4C4B",
"a. c #4B4041",
"s. c #444F50",
"d. c #4C5153",
"f. c #565656",
"g. c #5B5E5D",
"h. c #575B58",
"j. c #565449",
"k. c #60625E",
"l. c #736749",
"z. c #5D6263",
"x. c #666865",
"c. c #676868",
"v. c #6A6B6B",
"b. c #656565",
"n. c #6E716F",
"m. c #757676",
"M. c #7E7E7E",
"N. c #7A7A7B",
"B. c #87301D",
"V. c #B23D1F",
"C. c #AB391E",
"Z. c #8D3B29",
"A. c #AF3D21",
"S. c #B83E21",
"D. c #CB3F20",
"F. c #995A1A",
"G. c #89671D",
"H. c #9B741B",
"J. c #82492C",
"K. c #8B5031",
"L. c #985333",
"P. c #954A39",
"I. c #AE502E",
"U. c #8E702E",
"Y. c #95752D",
"T. c #907231",
"R. c #B46124",
"E. c #A47C24",
"W. c #C55C28",
"Q. c #D35E29",
"!. c #E75626",
"~. c #D9692D",
"^. c #C57724",
"/. c #DE7E29",
"(. c #F66827",
"). c #E56827",
"_. c #935D40",
"`. c #847A5C",
"'. c #B46959",
"]. c #AC7C72",
"[. c #AC8226",
"{. c #A7802B",
"}. c #B98C26",
"|. c #B18A33",
" X c #C6972C",
".X c #CB9E3A",
"XX c #CD9E34",
"oX c #FC812B",
"OX c #FF8F2C",
"+X c #FE952D",
"@X c #CCA03D",
"#X c #B79953",
"$X c #B19148",
"%X c #968D72",
"&X c #8B8266",
"*X c #D2A94D",
"=X c #D5AF5A",
"-X c #CDA243",
";X c #DEB968",
":X c #C1A563",
">X c #868686",
/* pixels */
"                                                                                                                                ",
"                                                8.y.w.r.e.e.e.e.w.r.w.w.w.w.q.1.                                                ",
"                                        `.d.f.8.v 1 3 3 3 G K J G n n n n 2 < l 8.f.d.&X                                        ",
"                                    N.x.q.8.S S n < 3 K L t.q.L G G G K F h 2 F F b S G v.N.                                    ",
"                                >Xm.3 2 q.u.K J D l l u.u.8.H K G G J G D 3 S 8.L G G S 2 3 m.>X                                ",
"                              m.v y 3 < $.q.G J D b 3 r.L K J G G J G J G 3 q.t.L G G n 2 2 y z m.                              ",
"                          c.v n L G c 2 D K G V S b 3 K J G G G J G G G D 3 K q.L G G n 2 z G G v h b.                          ",
"                        g.K y.L G J G 3 b G G G S v 3 G J J J G G G G S v 3 S K G G G b 3 G G G K J b g.                        ",
"                      i.K y.0.8.J G D 3 3 n G n n b 3 D F J J J G G b b 3 2 n J J J n 3 z G G J G G G b d.                      ",
"                    i.3 K t.L J G G n n 3 b G n n v 2 3 n J D D S v 3 3 1 < n F G K S l L G G J G G G b 3 i.                    ",
"                  i.0.K c G q.J J G D S 3 3 b v 3 3 < < 3 3 h 2 3 2 > < < < 3 1 D D 3 z y.G G J G G v z G n p.                  ",
"                f.0.q.K D b b J G G n n 3 2 2 3 z 3 2 l l j l j v b b b v 3 z n c 3 : z u.L J J G b z G G G S i.                ",
"                z 0.L G J v 3 z J G n 3 < 3 h z v z 9 9 q q j 9 0 q j j k 0 n D n n z 1 n 0.K J v 3 z G G G G z                 ",
"              v.K K G G J S i 3 b n z 1 h h z j 9 j Q Q N Q N r r Q Q Q Q / k k n n v c 2 v K n 3 y S G G J G b c.              ",
"              y 0.G G G G G v < < z h h z 1 1 k Q Q ] | { [ [ d B O.] ] [ <.^ d M 9 v H c 3 b 3 , z D G G G J J 3               ",
"            M.3 G G J G G G v 2 < h z z z j r ~ O.| [ | +.[ [ d N { ] ] _ X.| ] Q 0 k J K b c < < b G D G G J J 3 M.            ",
"            < 3 b J J J D D v < > l v z N p ! { { { [ | { { | d d { } ' Z ) } { ] ! 0 M 8.s.q.b 3 G $.J G J G n 3 <             ",
"          >X3 l 2 b D G D n v < 2 3 l r X.C ! ] ! ~ ~  . .~  .p p ~ ! d w d  .~ / N M / k h.d.t.b K q.G J J b 3 y < >X          ",
"          3 b q.l 2 l b n n z 3 z z 1 k | B N d 6 a , , a 7 > u 6 , > 6 > = 6 , w s B X.k j z.u.F K e.$.J n 3 3 n i 3           ",
"        >Xb t.q.K h h j v z 3 3 c z 0  .5.B ! ! &.|.t.i [.,.2 U %.y u =.m : *.g w r B @./ k g.q.D K q.L S 3 3 n G G l >X        ",
"        >Xb t.0.K K K z < h h l z 0 ~ | 5.) ) B 2.*Xk.a .X7.< :.U.z u :.A 2 =.U p p B 5.] ~ V f.s.K 8.D l D S J G J z >X        ",
"        L D K G J K K S h h l j 9 0 ` +.5.Z ! B 3.;Xx.i @X`.v G.$Xe.g [.Z = =.Y r p B | { ( 0 V f.d.K J 8.J J J G J S L         ",
"      v.b K G G G G J J h < h j 0 Q  .| 5.B ! B 3.;Xx.p *X%XS G.#Xd.Y XXh.i H.%.s p d 5.] ] ~ 0 z.f.D 8.u.8.F H L.<.J v n.      ",
"      n.n 0.G G G F J S h h h k Q  . .| 5.B ! N 4.;Xx.z =X%XS U.:Xd.Y XXj., }.;.w p d <.] ] ] ~ 9.f.q.K u.0.J H ~.6.F l n.      ",
"      n.h o.6.K F J D b h h j r [ [ [ } 5.B ) Q 4.;Xh.a *X&Xb T.#XK Y  XZ , }.-.w s d { { [ { { r 9.d.q.q.t.K H K.1.n ~ ].      ",
"      g.z J.W.V +.J D 1 h j k N ] ( ( { 5.B ) B 4.=Xi.i @Xl.h G.Y.l Y  XZ 3 }.-.w w d { [ [ [ { Q V i.u.K s.q.K n { C E '.      ",
"    f.K u._.R.Q W._ S 1 h j N O.{ ] ( ] 5.d ^ ! 2.-X1.y .X7.2 G.Y.3 Y  XA , }.;.w s d { { { ] [ X.N L i.J y.0.J 3 V.Z.D v f.    ",
"    f.K p.I.W.E C.V n h h j N { { / [ [ 5.d ^ B &.[.m y {.,.< >.>.; Y [., * {.%.w s d O.{ [ ] | 5.^ H t.S F J 3 s W.6._ C f.    ",
"    f.K P.!.(. Xt 9 2 l z j Q { [ [ ( ( | N ! B i a i 7 a p i a a 7 a s a i a a s p d { { ] ( | @.^ x D b 3 3 x V.(.L.Z.B.f.    ",
"    f.H I.(.OX~...n 3 2 1 N { { ( ( [ ( { M N ~ d s , 7 7 7 M p s d d d d d ! d ~ N d { ( { { { @.@.Q j 2 > l C Q.OX).J.B f.    ",
"    p.W !.(.+X(.A.% : h 9 Q { ] [ ( ( { { N B ]  .~ M s M B ^ p B }  . .{ } <.[ ( Q M | ( / ( | @.@.Q 9 3 < % C.(.+X(.!.W r.    ",
"    d.t R.^.F.XXE 9 < h j Q | / ^ [ { ] ` s ^ +.{  . .^ Z  .[ M B | | [ { 5.5.| ] Q M ] ^ ^ ^ { | +.r 1 z 3 Z E /.F.^.R.t f.    ",
"    h.+ I U 5 T ; b 3 l 1 ^ X.' ^ ! d ^ [ s ' 5.{  .| [ ) [ +.Z d | | [ | +.5.} ] Q s  .B w q ) | Q = o : y q.: T 5 U f + f.    ",
"    f.& X . + . 1 b 3 l j ^ X.^ p q > M [ s _ 5.| ] { { _ [ 5.B d | | [ O.5.| [ ] d s ^ q $ $ 7 s 7 o . . 3 q.y X X O O & f.    ",
"    f.< + + ; @ l c 3 l 9 ^ ' i : > > p ~ s ` 5.{ ] ] { ' | 5.! d | { { { O.] [ ] ! q w * $ $ * o y 2 o : 3 n b O ; O + 2 f.    ",
"    f.y : O + + 3 3 < h 9 ^ ) < y < < * s i M ` ! Q ! ~ ! !  .p p ! ! ! ! ~ ! ! ! s , $ * z 2 3 * q , 2 c 3 c y O + o ; 3 f.    ",
"    f.K S @ . : J G 3 < 9 ^ ^ : l ; & X + + : ; : : : $ : : : : : : * : : : : + : : : ; z F 3 < $ o # * 3 y u.0.< . . z b f.    ",
"    f.K F + . 2 G n 3 3 9 ^ ^ ; l 2 & X + + : : : : 2 2 < < < 2 < < < < : < < < < < : : h F D 3 $ # # , b y u.q.2 . + z b f.    ",
"    h.K F + . 1 G n 3 z j / ) + & ; + o * : : : : < 1 2 3 1 3 h 3 3 3 3 3 3 2 2 < : $ : 2 < 3 < o i y 2 n l u.0.3 . + c b f.    ",
"    f.K D O . < n n 3 l 9 ! } q X X X , d r d ] ~ ~ ! ^  . .[ N s ~ [ ~ ~  .~ ~ ~ N > : o o # $ # 3 : . + l u.q.3 . + v b h.    ",
"    f.D n + . < b z < l 9 ! | N $ $ * s / s B { { ( ( ( { { +.Q d { { { ] O.] ] O.Q B ) $ $ # $ d 8 # . . 2 b L l . O c b f.    ",
"    g.n b < + : l 3 < l q Q { ~ x p > ^ [ s N { { ] ] ( ( { O.N d ] { ] ( O.] ] { Q B } w : $ w [ ~ 6 * i < 3 c < < : l b f.    ",
"    f.3 3 : : + < 2 < h 9 C N s ..^ x w ..M N { { ( ]  .( { O.B d ] { ] ] { ] ] { ! d <./ p r ^ { O.t : l 2 2 < & < ; 2 y f.    ",
"    f.v l < < 2 l < : 2 9 M j : n s i o V x d { { ( ( ( ( { O.N d ] { ] ] ] ] ] { ) d +.] ^ ( { { { r > y < 2 l < ; < y y h.    ",
"    f.K $.c z z G j < l 0 r 8 o = = = # a 7 d { { ] ] ( ] ( ] ! d ] { ] ] ] ( ] { ! d | [ '  .( { { Q x n 3 n G v 3 y n b f.    ",
"    f.K $.c 3 h D S 3 l 9 , : 4 d Q Q 4 > > s ] O.{  .] ( ( { d d ] { ] ] ] ] ] O.! B +.{ { ] ] { { N x b z u.q.b l y b b h.    ",
"    f.K t.G 3 3 S v h h j > 7 s Q Q ! d , > d { O.| ( ] ( ] ] d d { { ( ] ] ] ] { ! f 5.{ {  . .] | ! k n l q.r.K v 3 b b f.    ",
"    f.K y.J 3 z v h : h j % : p Q d Q r = $ t { O.{ ( ( ( { ] d d ] { ] ] ] ] ] { ! B X.{ { ] ] ] X.^ k n 2 c q.0.b z n b f.    ",
"    f.n G b y v y 2 < y 9 Q d > 9 , > = 7 7 d { | { ] ( ] { ] M d ] { ] ( ] ] ] { Q d O.{ { ] ] ( { ! k n 2 3 i K b b F b f.    ",
"    f.3 y 2 : 3 < < < 2 3 Q ] r ; $ : 8 d w N { { ]  .( ( { ] d d ( ] ] ] { ] ] { Q d { ( O.(  .{ @.! 9 3 < < 2 y < < y 2 f.    ",
"    f.< 3 : 3 b b b 3 y 9 Q { ~ N N N ( ~ r N { { ] { ( ( { ] s d ]  .] { O.] ] { ! M O.{ { { ] ( @.^ j v 3 K $.n < : 2 > f.    ",
"    f.b G b v G K G 3 i q N | | [  .] { ] s ! | | ] { ] ( { { d d ( ] [ O.O.] ] { ! M { { ( { ] ( | ~ k b z s.t.K l z b z h.    ",
"    f.L u.J v G G S h h j N | @.[ ` [ {  .s ! | O.] { ] ( { { s d ( ] ] | { ] { { d d { { [ | { ] +.! k S h q.L J v n G v f.    ",
"    f.K y.J v J G S 3 h 9 N | X. ./  .{ [ s ) +.X.] { ] ( { ] d d ] ] ] { { ] { { Q d { [ [ [  .( { Q k n h 0.K G n n D c f.    ",
"    f.K t.L J J D S 3 h j N | |  .^ ~ / [ M ^ 5.| ] { ] ] | ] s N ( ] { { { { ] { ! s [ ` ^ ! / ( +.Q j S j q.K G G J G v f.    ",
"    f.n L L J D S S 1 h j N { | ` C B ' } d ) 5.| ( ( ( { O.] N N ( ] { ] { O.] { ! s  .^ N M ! ( ( r : z h 0.J G J J n z f.    ",
"    f.< b D G b b b 3 h q N ] ] s , M ~ { s ) 5.{  . .] @.+.] d s  .] { { { | ] ] Q s ^ M = # s ! 7 X . O 3 G G D D S z 2 f.    ",
"    f.< 3 3 3 3 1 3 < < 9 N / M > : , B } M ) | { { ] ] 5.@.{ M N ] ] | { { { ] { Q p M > o o $ # 2 * X O < y y 3 3 3 2 2 f.    ",
"    f.G t.0.G D S n 3 h 0 N N 1 3 3 3 , ' d ) | ] {  .| 5.+.] M s  .] { { ] { { { ! 7 : o 3 : 3 = y y > v y q.r.$.G S D v f.    ",
"    f.K u.0.G G K G 3 h 9 N s < l : ; o > : , 7 7 7 7 7 p w 7 < > 7 7 7 w q 7 7 7 , : : 3 D 2 2 $ * = 3 b y u.t.L G G G b h.    ",
"    f.G 0.K J G D S 3 l j N r : l 2 & X O - ; ; ; : < : < : : < < < : ; : : ; : : < ; ; l J n 3 $ o o , n y q.$.J G J J v f.    ",
"    f.D K J J G S c 2 j 9 N M ; 2 : ; O + ; : : : : < < < < 2 h 2 < 2 < : < < < < : ; < 3 c c 3 $ 2 > , n 3 b G G J D D z f.    ",
"    f.S K J G G n 1 < h j N r + X + X $ p 3 w r w M k x M p N x j x M M M M M M r 7 * : : o $ * o j 3 * 3 < 3 G J D V D v f.    ",
"    f.z n n v v z 3 < h 9 N Q > o * o * } B Q { ] { ( ] | { { B s ] ( ] { { X.] ] B 7 , o + X # > 7 $ . . 2 3 b b v v v i f.    ",
"    f.< y y y 3 3 < < 2 9 Q [ M 3 q , q } B B { [ { [ [ X.{ [ N s ( ] ] ] X.| { ] N s M 7 3 = 7 ! t o . + < < y 3 3 q 3 < f.    ",
"    f.< G t.$.G G h < y 0 Q { ' ^ ^ ) [ <.B d [ { { [ { 5.|  .N d ] ( ( ] @.@.] ( N p ^ B ^ ! ] ] ] r 1 n 3 z K J G G v 2 f.    ",
"    f.3 G u.L G J S 3 l 9 Q { } 5.{  ._ <.B B  .] ]  .{ 5.+.{ M N  .( ( ] 5.| ] ] N s ` ' 5.| O.{ ( t 1 n y t.q.K J J b 3 f.    ",
"    f.G y.q.$.G G F 3 l 9 Q { { 5.{ { { +.d d { [  . . .5.| ] s d ( ( ( ( | ] ( ( d s ] } 5.| { ( ( N k n z u.q.G G G D i f.    ",
"    f.K u.$.G G S S 3 l 1 7 w 6 6 6 4 6 6 = = 6 4 4 4 4 7 4 4 = = 4 4 4 4 7 4 4 4 % = 4 4 7 6 4 4 w 7 z n z u.K G J G G v f.    ",
"    f.K u.L J J S n 3 1 M.                                                                            M.3 3 L G G J G n z h.    ",
"    f.G 0.K G S S n 3 m.                                                                                m.3 G G J D D n v f.    ",
"      p.b v z z z z m.                                                                                    m.v v v z z z w.      ",
"        c.v.v.v.c.m.                                                                                        m.c.v.v.v.c.        ",
"                                                                                                                                ",
"                                                                                                                                ",
"                                                                                                                                "
};