/* XPM */
static char *_d9cc06fee504c76ed3c5d766c5dc5fa0y16h9gINQ6uwU7H[] = {
/* columns rows colors chars-per-pixel */
"64 64 244 2 ",
"   c None",
".  c #010202",
"X  c #0B0102",
"o  c #020A02",
"O  c #090B04",
"+  c #02030B",
"@  c #0A020A",
"#  c #030A0A",
"$  c #0B0B0B",
"%  c #130100",
"&  c #180C00",
"*  c #07130E",
"=  c #161405",
"-  c #040213",
";  c #0A0614",
":  c #120715",
">  c #081214",
",  c #12141B",
"<  c #171615",
"1  c #210E0E",
"2  c #261703",
"3  c #361B00",
"4  c #281A1A",
"5  c #182419",
"6  c #2B2704",
"7  c #3D2D09",
"8  c #171A29",
"9  c #07182C",
"0  c #3A1736",
"q  c #330333",
"w  c #0D2027",
"e  c #092234",
"r  c #262827",
"t  c #342826",
"y  c #2D3129",
"u  c #3A3637",
"i  c #302F3A",
"p  c #4C1700",
"a  c #7C1E12",
"s  c #4E3005",
"d  c #6B2F00",
"f  c #4E182E",
"g  c #513328",
"h  c #712632",
"j  c #6E322F",
"k  c #711730",
"l  c #36423E",
"z  c #2B4C1D",
"x  c #785409",
"c  c #6C4A04",
"v  c #534B32",
"b  c #794638",
"n  c #694E34",
"m  c #7D7E2D",
"M  c #484C11",
"N  c #00004E",
"B  c #010459",
"V  c #001759",
"C  c #081247",
"Z  c #260057",
"A  c #043349",
"S  c #08254D",
"D  c #393D47",
"F  c #373C58",
"G  c #382B4A",
"H  c #010567",
"J  c #040879",
"K  c #130778",
"L  c #001479",
"P  c #190E70",
"I  c #2B1E76",
"U  c #0D2A6F",
"Y  c #373662",
"T  c #4F1349",
"R  c #661C4E",
"E  c #45385D",
"W  c #4A3D4F",
"Q  c #60284B",
"!  c #41377E",
"~  c #1F464D",
"^  c #2B4849",
"/  c #36434A",
"(  c #284254",
")  c #32544F",
"_  c #274564",
"`  c #454646",
"'  c #464858",
"]  c #515652",
"[  c #665945",
"{  c #735E47",
"}  c #694850",
"|  c #57734D",
" . c #716E4D",
".. c #4C5373",
"X. c #715574",
"o. c #941E0C",
"O. c #A30D00",
"+. c #962B19",
"@. c #BB3106",
"#. c #97002D",
"$. c #C51500",
"%. c #C92403",
"&. c #C53901",
"*. c #DD3A03",
"=. c #E83B02",
"-. c #EE3404",
";. c #AC4F0F",
":. c #826A18",
">. c #90600E",
",. c #A16307",
"<. c #B77503",
"1. c #A47411",
"2. c #854339",
"3. c #8E4124",
"4. c #96692B",
"5. c #C64706",
"6. c #D74907",
"7. c #C95507",
"8. c #D75204",
"9. c #C9521C",
"0. c #E74803",
"q. c #F74A05",
"w. c #E85606",
"e. c #F45301",
"r. c #FD5402",
"t. c #F35900",
"y. c #FE5B02",
"u. c #FB580C",
"i. c #FE5A15",
"p. c #ED5114",
"a. c #C37806",
"s. c #DB7102",
"d. c #D2700A",
"f. c #E76706",
"g. c #F36301",
"h. c #FE6303",
"j. c #FA6509",
"k. c #F86414",
"l. c #FA750C",
"z. c #E35E3D",
"x. c #E77327",
"c. c #8E1F49",
"v. c #8C4F51",
"b. c #82675D",
"n. c #87744C",
"m. c #947B69",
"M. c #8D776C",
"N. c #D77255",
"B. c #C97B6B",
"V. c #EF7C61",
"C. c #E1654A",
"Z. c #97831B",
"A. c #A6830A",
"S. c #898124",
"D. c #DA8800",
"F. c #CE9305",
"G. c #E99700",
"H. c #F59C02",
"J. c #F59311",
"K. c #E1A705",
"L. c #EFB308",
"P. c #D78E27",
"I. c #C58C23",
"U. c #EAA929",
"Y. c #DC9A1D",
"T. c #FFC605",
"R. c #9A8273",
"E. c #AA8578",
"W. c #AF9773",
"Q. c #BBA87D",
"!. c #C59263",
"~. c #F1876F",
"^. c #F7BE67",
"/. c #E99453",
"(. c #060687",
"). c #001599",
"_. c #020C93",
"`. c #1E2D88",
"'. c #0E2C90",
"]. c #292881",
"[. c #0031A5",
"{. c #0B04A9",
"}. c #2B5C9B",
"|. c #4C508F",
" X c #645C8C",
".X c #747192",
"XX c #6A6BA3",
"oX c #927A92",
"OX c #738382",
"+X c #8C8296",
"@X c #988683",
"#X c #AA8D98",
"$X c #A8A18E",
"%X c #8DA4A6",
"&X c #B9ADAD",
"*X c #928EB1",
"=X c #CF9C89",
"-X c #E4978B",
";X c #FE968F",
":X c #CBB297",
">X c #ECA48A",
",X c #FAA186",
"<X c #F9AA90",
"1X c #E8B699",
"2X c #F9B797",
"3X c #D7BDB6",
"4X c #D4B3A5",
"5X c #EAB7A8",
"6X c #F0BFBA",
"7X c #DCC8AE",
"8X c #E5C2A3",
"9X c #E7C8AA",
"0X c #F6D4AB",
"qX c #EDCBB4",
"wX c #E6C5B4",
"eX c #F5CDB4",
"rX c #FDD5B5",
"tX c #FEDCBB",
"yX c #F7D5BB",
"uX c #EED2B2",
"iX c #FDE2BF",
"pX c #FDE1AF",
"aX c #F2C399",
"sX c #91D4DC",
"dX c #EEDEC6",
"fX c #FED4C4",
"gX c #FEDCC3",
"hX c #FBDBC9",
"jX c #E8DCD3",
"kX c #F7D5D4",
"lX c #EDCDC8",
"zX c #FEE3C3",
"xX c #FEE4CC",
"cX c #F7E6C9",
"vX c #FEF6C5",
"bX c #FEE7D5",
"nX c #FDF1DA",
"mX c #F5DAFF",
"MX c #FBFBEC",
"NX c #FCECFC",
"BX c #FDFCFD",
"VX c #FAF9FB",
"CX c #E5FFF5",
"ZX c #DDD6CC",
/* pixels */
"                                                                                                                                ",
"                                                                                                                                ",
"                                                                                                                                ",
"                                                                                                                                ",
"                                                                                                                                ",
"                                          V e A _ ) )                                                                           ",
"                                          S - % # w ^ ) F |                                                                     ",
"                                            r + o X @ < ) Y b                                                                   ",
"                                              . . . . . ; ' v [                                                                 ",
"                                              X . . . . . # / F  .                                                              ",
"                                              s + . . . . . , / ]                                                               ",
"                                              x + O . . + + . y ^ n                                                             ",
"                                                X . . . . + . . ^ ` |                                                           ",
"                                r 2 > o = d ,.  6 X ; . . . + X 0 / ~ F / ] n 4.                                                ",
"                          p X o r / ..] / 9 X = 6 . @ + . . . - : = o . < , r ] 4.                                              ",
"                          c & . * y ] OX%X Xy + + X . . . o o . o . + X . . + 9 n F.                                            ",
"                              d - X @ > / ' ' i + X + . ; X X @ - + o + X X + . > m I.4.[ [ n v v v d                           ",
"                                :.o . o . r l ' > . . O . . $ . . g { + . X . . + D D w e , o : o + M                           ",
"                                  m o . X X < O . . ; . X . o % v gXfXt . . # . - ; o X + O + - s                               ",
"                                    S.. . O . - . . o = v.# o g fXrXyX@X. o . . o . . $ . . % x                                 ",
"                                      Z.O o o X X o . [ v.. @ -XcX0XfXM.. . t 4 + X X . . $ s                                   ",
"                                        <.X @ o X . X j j X 2.=XzXyXeXM.. . g 8 . + . . 8 u ) ` {                               ",
"                                          F.X X . + . g >X1 B.2XgXqXtX4Xt 7X7X< . - + o 5 8 , 5 < 9 4                           ",
"                                        z v 3 - o @ $ 6 ;XR.1X,XfXgXiX9XlXbX4X. + . X . . @ @ X @ 2                             ",
"                                    + - . . . . , = 1 ~.lXCXBXfXgXgXzXMXBXVX&Xb.o < $ . . . o 2                                 ",
"                                        . . # X M.aXj -XBXMXVX&XeXxX&XjXVXVXnXW.g 9XM.. + & >.                                  ",
"                                          + . . oXqXN.,XMXMXVX] 8XxXR.&XVXBXcXqX3XiX{ . p                                       ",
"                                            + . m.2Xz.~.ZXVXBXNXtXyXdXBXBXNXkXlX8XfXD + = 3 3 c                                 ",
"                                              . t 2Xz.V.~.ZXfXvX5XqXzXyXuX7XyX8XyX:X. o . . 2 x                                 ",
"                                            * + + v 4X/.<XiXfXqX5XqXuXqXcXvXxXwX1Xt + s                                         ",
"                                                6 = - f ;XgXzXfXyX8XyXhXfXnXM.% # o o 2 ,.                                      ",
"                                                    1.c x -XrXcXrXgXhXfXxXm.6 7 c ,.<.A.                                        ",
"                                                      T.L.G./.1XdXtXkX1XU.K.T.L.                                                ",
"                                                    Y.G.G.J.l.>XeX:X8X>Xl.H.J.H.                                                ",
"                                                  S.2.e.j.q.!.vX0X0XhXdXN.e.y.t.4.                                              ",
"                                                ` {.T y.f.y.T !  X.X.X].j y.j.p.(.].                                            ",
"                                                XXB f =.r.t.h N H H H K 7.r.e.;.U {.}                                           ",
"                                                tX+Xq 0.h.u.w.S B V (.;.j.w.k.o.N .XbX                                          ",
"                                              VX9XiX+X&.h.g.y.6.C H +.y.g.j.r.0 oXzXlX                                          ",
"                                              NXqXrX^.5.q.u.e.j.6.;.r.r.j.r.w.P.tX9XhX                                          ",
"                                              NXiX*X1.G.@.+.c.j h h k 3.&.=.G.F.Q.iXmX                                          ",
"                                                sX_.].U.U J K H L _.(.J (.b Y.P `.3XNX                                          ",
"                                                  ).4XxX#Xf R f f T T h 0 $XkX|.J #X                                            ",
"                                                  OXgXzXN.q.e.r.i.y.w.y.p.1XNX4Xn.                                              ",
"                                                    0X=X6.j.h.i.w.=.j.h.r.x.4X                                                  ",
"                                                      %.u.y.r.g.8.6.h.j.e.q.x.                                                  ",
"                                                      -.r.r.t.i.6.8.y.r.i.=.0.                                                  ",
"                                                    9.0.j.y.h.y.0.q.i.r.h.0.q.J.                                                ",
"                                                    9.6.e.0.q.u.7.f.w.r.h.e.t.p.                                                ",
"                                                    r.y.*.6.i.w.D.s.0.r.h.u.r.8.                                                ",
"                                                o.-.f.t.y.y.y.8.J.D.;.q.=.8.u.0.d.                                              ",
"                                                  o.e.y.e.u.*.a.    &.=.y.e.-.q.q.                                              ",
"                                                  R O.%.0.@.5.P.    s.$.-.p.k.p.p.                                              ",
"                                                _ Z T _.L 4.          a.+.%.*.#.b                                               ",
"                                                  Q I `.Y               ' (.K T W                                               ",
"                                                }.E.W.XX                 .|.Y X.b.                                              ",
"                                              '.H P ).K                    X.XE.E                                               ",
"                                              '.)._.[.                    A J ).K G                                             ",
"                                                                              V B Z                                             ",
"                                                                                                                                ",
"                                                                                                                                ",
"                                                                                                                                ",
"                                                                                                                                ",
"                                                                                                                                "
};
